<svg width="30" height="30" viewBox="0 0 30 30" fill="none" xmlns="http://www.w3.org/2000/svg">
<circle cx="15" cy="15" r="15" fill="black"/>
<path d="M11.4673 23.4409C11.3128 23.412 11.195 23.3581 11.1095 23.3021C10.8222 23.1285 10.3678 22.6519 10.5915 21.4548L11.5226 16.4732L9.71528 16.1354C8.68034 15.942 8.40056 15.3861 8.32267 15.0758C8.24622 14.7578 8.24152 14.1414 9.06697 13.4884L16.155 7.93899C17.1102 7.19031 17.7397 7.3719 18.027 7.54549C18.3143 7.71908 18.7687 8.19569 18.545 9.39281L17.614 14.3744L19.4212 14.7122C20.4562 14.9056 20.736 15.4615 20.8138 15.7718C20.8903 16.0898 20.895 16.7062 20.0695 17.3592L12.9815 22.9086C12.3162 23.4317 11.8071 23.5044 11.4673 23.4409ZM17.3987 8.5551C17.3697 8.58166 17.1931 8.62859 16.8834 8.87444L9.79537 14.4239C9.53292 14.6306 9.47316 14.7793 9.46738 14.8102C9.48139 14.8208 9.60597 14.924 9.93036 14.9846L12.3169 15.4307C12.6336 15.4898 12.8471 15.8015 12.7879 16.1182L11.7486 21.679C11.6764 22.0652 11.7142 22.2481 11.7364 22.3002C11.7653 22.2737 11.942 22.2267 12.2517 21.9809L19.3397 16.4315C19.6022 16.2247 19.6619 16.076 19.6677 16.0452C19.6537 16.0345 19.5291 15.9313 19.2047 15.8707L16.8182 15.4247C16.5015 15.3655 16.288 15.0538 16.3472 14.7371L17.3865 9.17629C17.4664 8.79157 17.4195 8.61494 17.3987 8.5551Z" fill="white"/>
</svg>
