<svg width="17" height="16" viewBox="0 0 17 16" fill="none" xmlns="http://www.w3.org/2000/svg">
<path fill-rule="evenodd" clip-rule="evenodd" d="M3.63477 0.000421565C4.50655 0.0121286 5.1278 0.66538 5.91373 1.49189C6.10807 1.6956 6.31801 1.91803 6.55293 2.15217C7.69164 3.29165 7.36774 4.22119 7.10629 4.96732C6.8222 5.78134 6.57635 6.48376 8.04831 7.95572C9.52027 9.42769 10.2219 9.18184 11.0352 8.89541C11.7821 8.63473 12.7093 8.3085 13.8503 9.44798C14.0821 9.67978 14.3006 9.88738 14.5036 10.0802C15.3332 10.87 15.9888 11.4936 15.9998 12.3677C16.0083 13.1123 15.5556 13.8724 14.438 14.9901L13.9432 14.6545L14.3623 15.0627C14.1149 15.3163 13.4569 15.9922 12.1684 16H12.145C10.2001 16 7.66432 14.4516 4.60801 11.396C1.53921 8.32801 -0.0115762 5.78446 6.50539e-05 3.83564C0.00715505 2.54787 0.682259 1.88837 0.935911 1.64096L0.957562 1.61732L1.01006 1.56448C2.13003 0.444508 2.89957 -0.0159682 3.63477 0.000421565ZM3.61994 1.17112H3.61369C3.26322 1.17112 2.73096 1.52233 1.98863 2.2434L1.83956 2.38979L1.84125 2.38943C1.84125 2.38943 1.82852 2.40404 1.80681 2.42618L1.75462 2.47841C1.56575 2.66181 1.17473 3.04346 1.17079 3.84188C1.16459 4.95873 1.89901 7.03243 5.4353 10.5679C8.95443 14.0863 11.025 14.8293 12.145 14.8293H12.1614C12.9598 14.8246 13.3407 14.4336 13.5241 14.2455C13.5795 14.1885 13.6247 14.1456 13.6567 14.1199C14.4349 13.337 14.8329 12.7556 14.829 12.3818C14.8243 12.0009 14.3506 11.5513 13.6958 10.9277C13.4874 10.7303 13.261 10.5141 13.0222 10.2753C12.4025 9.65792 12.0974 9.76329 11.4223 10.0005C10.4896 10.3276 9.21199 10.7756 7.22101 8.78302C5.22926 6.79205 5.67569 5.51442 6.00114 4.58098C6.23684 3.90666 6.34455 3.59994 5.72564 2.98025C5.48369 2.7383 5.26594 2.50884 5.06536 2.29812C4.44567 1.64721 3.99846 1.17659 3.61994 1.17112ZM10.3383 2.77693C11.9624 3.09224 13.2166 4.34567 13.5327 5.97061C13.5944 6.28904 13.3876 6.59576 13.0707 6.65742C13.0325 6.66444 12.995 6.66834 12.9575 6.66834C12.6828 6.66834 12.4385 6.47479 12.3839 6.19538C12.1591 5.04029 11.2686 4.14978 10.1151 3.92578C9.79741 3.86412 9.59059 3.5574 9.65225 3.23975C9.7139 2.9221 10.0261 2.7145 10.3383 2.77693ZM10.2915 0.00487023C13.4743 0.358422 15.946 2.82704 16.3027 6.00901C16.3386 6.33056 16.1076 6.62011 15.7868 6.65601C15.7649 6.65835 15.7423 6.65991 15.7205 6.65991C15.4262 6.65991 15.1734 6.43904 15.1398 6.14012C14.844 3.50527 12.7976 1.46044 10.162 1.16777C9.8412 1.13186 9.6094 0.843092 9.6453 0.52154C9.68042 0.200767 9.96685 -0.0357141 10.2915 0.00487023Z" fill="#005C94"/>
</svg>
