<svg width="16" height="16" viewBox="0 0 16 16" fill="none" xmlns="http://www.w3.org/2000/svg">
<path fill-rule="evenodd" clip-rule="evenodd" d="M8.00128 0C10.14 0 12.1499 0.83151 13.6596 2.34192C16.7801 5.4625 16.7801 10.5394 13.6596 13.66C12.1298 15.1905 10.07 16.0004 7.98341 16.0004C6.84595 16.0004 5.70104 15.76 4.62983 15.2642C4.3142 15.1376 4.01867 15.0185 3.80651 15.0185C3.56234 15.02 3.23406 15.1332 2.91694 15.2426C2.26632 15.4659 1.4564 15.7443 0.857145 15.1473C0.260126 14.5496 0.535559 13.7419 0.757394 13.092C0.866823 12.7719 0.979229 12.4414 0.979229 12.1913C0.979229 11.9858 0.880222 11.7238 0.728362 11.3463C-0.665925 8.33519 -0.0212625 4.70618 2.34374 2.34267C3.85341 0.832254 5.86258 0 8.00128 0ZM8.00202 1.11662C6.16109 1.11662 4.43182 1.83275 3.13282 3.13249C1.09759 5.16623 0.543747 8.28904 1.75342 10.9042C1.92761 11.3352 2.09585 11.755 2.09585 12.1913C2.09585 12.6267 1.94622 13.0652 1.81446 13.4523C1.70578 13.7709 1.54126 14.2518 1.64697 14.3575C1.75044 14.4647 2.23431 14.2957 2.55366 14.1863C2.93704 14.0553 3.37177 13.9049 3.80279 13.9019C4.23455 13.9019 4.64174 14.0657 5.07276 14.2391C7.71319 15.46 10.836 14.9046 12.8705 12.8709C15.5548 10.1851 15.5548 5.8161 12.8705 3.13175C11.5707 1.832 9.84221 1.11662 8.00202 1.11662ZM10.9401 7.56525C11.3511 7.56525 11.6846 7.898 11.6846 8.30966C11.6846 8.72132 11.3511 9.05408 10.9401 9.05408C10.5292 9.05408 10.1928 8.72132 10.1928 8.30966C10.1928 7.898 10.5225 7.56525 10.9334 7.56525H10.9401ZM7.95595 7.56525C8.36686 7.56525 8.70036 7.898 8.70036 8.30966C8.70036 8.72132 8.36686 9.05408 7.95595 9.05408C7.54503 9.05408 7.20855 8.72132 7.20855 8.30966C7.20855 7.898 7.53758 7.56525 7.94925 7.56525H7.95595ZM4.97144 7.56525C5.38236 7.56525 5.71586 7.898 5.71586 8.30966C5.71586 8.72132 5.38236 9.05408 4.97144 9.05408C4.56053 9.05408 4.22405 8.72132 4.22405 8.30966C4.22405 7.898 4.55383 7.56525 4.96474 7.56525H4.97144Z" fill="#005C94"/>
</svg>
