<svg width="17" height="21" viewBox="0 0 17 21" fill="none" xmlns="http://www.w3.org/2000/svg">
<path d="M11.3122 0C14.0814 0 16.3193 1.09341 16.35 3.87291V19.385C16.35 19.5587 16.3091 19.7324 16.2274 19.8857C16.0945 20.1309 15.8697 20.3149 15.5938 20.3966C15.3281 20.4784 15.0318 20.4375 14.7865 20.2944L8.16478 16.9836L1.53281 20.2944C1.38055 20.3752 1.20581 20.4273 1.03209 20.4273C0.459844 20.4273 0 19.9572 0 19.385V3.87291C0 1.09341 2.24813 0 5.00719 0H11.3122ZM12.007 6.17213H4.31231C3.87291 6.17213 3.51525 6.52978 3.51525 6.97941C3.51525 7.42801 3.87291 7.78669 4.31231 7.78669H12.007C12.4464 7.78669 12.8041 7.42801 12.8041 6.97941C12.8041 6.52978 12.4464 6.17213 12.007 6.17213Z" fill="#005C94"/>
</svg>
