<svg width="24" height="24" viewBox="0 0 24 24" fill="none" xmlns="http://www.w3.org/2000/svg">
<path d="M16.24 3.65039H7.76004C5.29004 3.65039 3.29004 5.66039 3.29004 8.12039V17.5304C3.29004 19.9904 5.30004 22.0004 7.76004 22.0004H16.23C18.7 22.0004 20.7 19.9904 20.7 17.5304V8.12039C20.71 5.65039 18.7 3.65039 16.24 3.65039Z" fill="url(#paint0_linear_425_2097)"/>
<path d="M14.35 2H9.65001C8.61001 2 7.76001 2.84 7.76001 3.88V4.82C7.76001 5.86 8.60001 6.7 9.64001 6.7H14.35C15.39 6.7 16.23 5.86 16.23 4.82V3.88C16.24 2.84 15.39 2 14.35 2Z" fill="#6CB8B8"/>
<path d="M15 12.9502H8C7.59 12.9502 7.25 12.6102 7.25 12.2002C7.25 11.7902 7.59 11.4502 8 11.4502H15C15.41 11.4502 15.75 11.7902 15.75 12.2002C15.75 12.6102 15.41 12.9502 15 12.9502Z" fill="white"/>
<path d="M12.38 16.9502H8C7.59 16.9502 7.25 16.6102 7.25 16.2002C7.25 15.7902 7.59 15.4502 8 15.4502H12.38C12.79 15.4502 13.13 15.7902 13.13 16.2002C13.13 16.6102 12.79 16.9502 12.38 16.9502Z" fill="white"/>
<defs>
<linearGradient id="paint0_linear_425_2097" x1="3.29004" y1="3.56544" x2="14.8115" y2="25.0703" gradientUnits="userSpaceOnUse">
<stop stop-color="#527589"/>
<stop offset="1" stop-color="#7FCEC5"/>
</linearGradient>
</defs>
</svg>
