<svg width="20" height="20" viewBox="0 0 20 20" fill="none" xmlns="http://www.w3.org/2000/svg">
<g clip-path="url(#clip0_48_364)">
<path d="M19.9998 9.37248C19.8793 7.4225 19.1908 5.55041 18.0192 3.987C16.8475 2.4236 15.244 1.23723 13.4063 0.574144C11.5685 -0.0889375 9.57693 -0.199741 7.67698 0.255394C5.77703 0.710529 4.05179 1.71171 2.71397 3.1355C1.37614 4.55929 0.484209 6.34345 0.148127 8.26803C-0.187955 10.1926 0.0465057 12.1735 0.822605 13.9664C1.59871 15.7593 2.88251 17.286 4.51577 18.3581C6.14901 19.4302 8.06031 20.001 10.014 20H15.8332C16.9379 19.9989 17.9971 19.5595 18.7782 18.7784C19.5594 17.9972 19.9987 16.938 19.9998 15.8333V9.37248ZM18.3332 15.8333C18.3332 16.4964 18.0698 17.1322 17.6009 17.6011C17.1321 18.0699 16.4962 18.3333 15.8332 18.3333H10.014C8.83812 18.3328 7.67554 18.0844 6.60209 17.6044C5.52863 17.1244 4.5684 16.4235 3.78401 15.5475C2.99582 14.6719 2.40395 13.6379 2.04809 12.5148C1.69222 11.3917 1.58059 10.2056 1.72068 9.03581C1.94187 7.19077 2.77083 5.4718 4.07688 4.14992C5.38292 2.82803 7.09176 1.97841 8.93401 1.73498C9.29337 1.68994 9.65517 1.66712 10.0173 1.66665C11.9594 1.66135 13.8413 2.3399 15.3332 3.58331C16.2044 4.30743 16.9196 5.20094 17.4353 6.20967C17.951 7.2184 18.2564 8.32135 18.3332 9.45165V15.8333Z" fill="#6E6E6E"/>
</g>
<defs>
<clipPath id="clip0_48_364">
<rect width="20" height="20" fill="white"/>
</clipPath>
</defs>
</svg>
