<svg width="218" height="121" viewBox="0 0 218 121" fill="none" xmlns="http://www.w3.org/2000/svg">
<path d="M99.7179 120.709H56.1181C55.6424 120.709 55.1726 120.604 54.7415 120.403C54.3104 120.202 53.9285 119.909 53.6225 119.545C53.3165 119.181 53.0939 118.754 52.9702 118.295C52.8465 117.835 52.8247 117.354 52.9063 116.886C55.5836 101.308 55.571 86.3657 52.8687 72.06C52.7866 71.6286 52.7925 71.1851 52.8859 70.756C52.9793 70.3269 53.1583 69.9211 53.4122 69.5628C53.6661 69.2045 53.9897 68.9011 54.3636 68.6708C54.7375 68.4405 55.154 68.288 55.5882 68.2224C70.3873 65.982 85.4419 66.0151 100.231 68.3206C100.998 68.4416 101.696 68.8328 102.2 69.4234C102.704 70.0141 102.981 70.7654 102.979 71.5418V117.448C102.979 117.876 102.895 118.3 102.731 118.696C102.567 119.092 102.327 119.451 102.024 119.754C101.721 120.057 101.362 120.297 100.966 120.461C100.57 120.625 100.146 120.709 99.7179 120.709Z" fill="#48A8E2"/>
<path d="M55.6138 116.887C58.2911 101.309 58.2784 86.3671 55.5758 72.0613C55.4939 71.6299 55.4998 71.1864 55.5932 70.7573C55.6867 70.3282 55.8657 69.9224 56.1196 69.5641C56.3736 69.2058 56.6971 68.9025 57.071 68.6722C57.4449 68.4418 57.8614 68.2893 58.2957 68.2237C65.1272 67.1924 72.0228 66.6415 78.9314 66.5752C71.119 66.5054 63.3133 67.0567 55.5882 68.2237C55.154 68.2893 54.7375 68.4418 54.3636 68.6721C53.9897 68.9024 53.6661 69.2058 53.4122 69.5641C53.1583 69.9224 52.9793 70.3282 52.8859 70.7573C52.7925 71.1864 52.7866 71.6299 52.8687 72.0613C55.5712 86.3674 55.5837 101.309 52.9064 116.887C52.8247 117.356 52.8465 117.836 52.9702 118.296C53.0939 118.755 53.3165 119.182 53.6225 119.546C53.9285 119.91 54.3103 120.203 54.7414 120.405C55.1725 120.606 55.6424 120.71 56.1181 120.711H58.8253C58.3496 120.71 57.8798 120.606 57.4488 120.405C57.0177 120.203 56.6359 119.91 56.3299 119.546C56.024 119.182 55.8014 118.755 55.6777 118.296C55.554 117.836 55.5321 117.356 55.6138 116.887Z" fill="#D1D3D4"/>
<path d="M106.871 57.3395C105.246 54.5544 104.128 50.8596 103.612 47.766C106.585 37.867 103.356 26.887 89.3568 29.1165C83.7371 27.5631 74.4897 28.3527 75.4745 38.3819C75.2884 40.8222 75.416 43.4319 75.3422 45.8209C75.5471 54.2489 69.9898 62.2876 70.0089 68.4326C69.646 74.9972 110.518 75.9693 108.749 67.7732C110.595 64.3746 108.681 61.0367 106.871 57.3394V57.3395ZM75.6423 36.8417C75.7915 29.2187 82.4983 28.0876 87.4836 28.9255C78.8276 28.2933 76.3467 32.0393 75.6424 36.8417H75.6423ZM103.542 47.3665C103.123 44.2066 104.459 40.7484 103.835 37.8956C104.651 40.7216 104.83 44.3264 103.542 47.3666V47.3665ZM109.193 65.9062C109.123 66.4169 108.963 66.9113 108.723 67.3672C108.457 64.2541 106.891 59.6669 105.498 55.073C107.125 58.5724 109.721 62.4765 109.193 65.9062Z" fill="#0B3650"/>
<path d="M113.336 77.0624C106.063 70.2881 88.4771 68.4144 78.5954 71.7025L78.5587 71.6494C77.6668 71.9442 76.7503 72.2604 75.8384 72.5421L75.8703 72.5769C71.76 74.0718 66.7619 76.2433 65.4936 78.0208C62.7461 81.8681 62.9861 109.398 62.9861 109.398H116.032C116.032 109.398 116.086 80.9094 113.336 77.0624Z" fill="#6DA7CA"/>
<path d="M94.5452 70.5456C94.5069 71.2682 89.7477 77.9658 89.7477 77.9658L84.528 70.2072C84.9069 68.2382 86.1189 61.9421 86.4762 60.082L93.2136 60.219L93.2557 60.5431L94.5452 70.5456Z" fill="#CBE8F9"/>
<path d="M94.5452 70.5461C92.7897 68.4675 92.1318 62.1928 85.9438 62.9216L86.4743 60.1592L93.2117 60.2966L93.2556 60.5436L94.5452 70.5461Z" fill="#B0D5EB"/>
<path d="M78.2252 48.7209L79.9386 54.2678C79.8827 54.2494 79.8231 54.2458 79.7654 54.2573L79.7552 54.2268C71.0544 53.8957 70.402 44.8131 76.3585 45.8766C76.5808 46.9324 77.5 47.8312 78.2251 48.7209H78.2252ZM100.844 54.9315C100.634 54.9848 100.432 55.0069 100.19 55.0528C100.223 54.9653 101.18 50.0721 101.228 49.834C101.84 48.8663 102.352 47.8388 102.755 46.7674C107.919 45.1399 109.2 52.9516 100.844 54.9315Z" fill="#CBE8F9"/>
<path d="M104.023 45.9093C102.159 67.6071 77.2157 66.3887 75.754 45.1467C76.6675 24.5008 104.231 25.276 104.023 45.9093Z" fill="#CBE8F9"/>
<path d="M90.3106 29.8361C90.0795 29.8299 89.8527 29.8499 89.6238 29.8561C107.312 30.972 106.092 61.633 88.9996 61.8031C107.367 62.5782 109.472 30.6639 90.3106 29.8361Z" fill="#B0D5EB"/>
<path d="M93.5845 53.9102C93.2616 55.0111 92.6893 55.8038 92.0139 56.2734V56.2885C89.9461 57.7773 87.3703 56.3557 86.9047 53.9102C89.113 54.3137 91.3761 54.3137 93.5844 53.9102H93.5845Z" fill="#122B3B"/>
<path d="M92.9826 53.998V54.732C91.2063 55.1139 89.3861 55.0263 87.5067 54.6735V53.998C89.3242 54.2363 91.1651 54.2363 92.9826 53.998Z" fill="white"/>
<path d="M92.0139 56.2719V56.287C91.4681 56.6954 90.801 56.9088 90.1194 56.8928C89.4379 56.8769 88.7815 56.6326 88.2554 56.1991C88.909 55.2762 91.4367 55.2998 92.0139 56.2719Z" fill="#48A8E2"/>
<path d="M82.3912 49.7942C82.3535 48.8915 85.1708 48.8914 85.133 49.7946C85.1706 50.6971 82.3533 50.6971 82.3912 49.7942ZM95.3741 49.7942C95.3369 48.8915 98.1541 48.8914 98.116 49.7946C98.1538 50.6971 95.3365 50.6971 95.3741 49.7942Z" fill="#91CBEE"/>
<path d="M81.8726 48.1974C82.1734 46.0235 86.4283 45.9365 86.6578 48.1974C85.3765 47.0686 83.1852 47.1775 81.8726 48.1974ZM93.3142 48.1974C93.6149 46.0235 97.8699 45.9365 98.0994 48.1974C96.8184 47.0686 94.6269 47.1775 93.3142 48.1974Z" fill="#0B3650"/>
<path d="M89.0822 99.1109C89.0496 96.8771 92.5586 96.8771 92.5255 99.1109C92.5583 101.345 89.0491 101.345 89.0822 99.1109ZM89.0822 104.878C89.0496 102.645 92.5586 102.645 92.5255 104.879C92.5583 107.112 89.0491 107.112 89.0822 104.878Z" fill="#D1D3D4"/>
<path d="M88.1138 99.1109C88.081 96.8771 91.5899 96.8771 91.557 99.1109C91.5897 101.345 88.0807 101.345 88.1138 99.1109ZM88.1138 104.878C88.081 102.645 91.5899 102.645 91.557 104.879C91.5897 107.112 88.0807 107.112 88.1138 104.878Z" fill="#64696C"/>
<path d="M89.0822 86.2319C89.0496 83.9982 92.5586 83.9982 92.5255 86.2319C92.5583 88.4661 89.0491 88.4658 89.0822 86.2319ZM89.0822 91.9998C89.0496 89.7662 92.5586 89.766 92.5255 92C92.5583 94.2337 89.0491 94.2337 89.0822 91.9998Z" fill="#D1D3D4"/>
<path d="M88.1138 86.2319C88.081 83.9982 91.5899 83.9982 91.557 86.2319C91.5897 88.4661 88.0807 88.4658 88.1138 86.2319ZM88.1138 91.9998C88.081 89.7662 91.5899 89.766 91.557 92C91.5897 94.2337 88.0807 94.2337 88.1138 91.9998Z" fill="#64696C"/>
<path d="M84.5279 70.2079L79.7402 72.5866C83.1406 73.8272 86.4698 75.6759 89.7476 77.9665L84.5279 70.2079ZM94.5452 70.1543L99.7549 72.5866C95.7899 73.8475 92.3549 75.5568 89.7476 77.9665L94.5452 70.1543Z" fill="#A7CADF"/>
<path d="M85.4648 34.7636C85.4648 34.7636 86.6122 40.6256 76.2126 48.3358C69.5251 23.8366 110.303 21.9837 104.054 49.4914C104.054 49.4914 95.7965 44.0912 95.1649 38.454C95.1649 38.454 94.9219 41.1271 95.1649 41.9048C95.1649 41.9048 88.0464 41.6644 85.4648 34.7636Z" fill="#0B3650"/>
<path d="M104.249 46.1156H103.174C105.808 22.8188 73.8144 22.836 76.4546 46.1156H75.3803C72.7164 21.4072 106.919 21.4246 104.249 46.1156Z" fill="white"/>
<path d="M74.7693 45.1982C74.7475 43.7086 77.0876 43.7086 77.0655 45.1986C77.0875 46.6878 74.7473 46.6878 74.7693 45.1982ZM102.564 45.1982C102.542 43.7086 104.882 43.7086 104.86 45.1986C104.882 46.6878 102.542 46.6878 102.564 45.1982ZM88.5703 59.7511C88.5733 59.7501 88.5761 59.7494 88.5791 59.7482C88.5401 59.6547 88.2395 58.4541 88.2043 58.3209C87.8051 58.3851 87.3825 58.5884 87.273 58.9955C80.9604 60.5972 75.9539 59.0646 76.2301 52.5059L75.1574 52.4471C74.5447 59.9386 81.5612 61.8575 87.6197 60.0156C87.9076 60.242 88.3185 60.1875 88.6536 60.0757L88.5703 59.7511Z" fill="white"/>
<path d="M88.5703 59.7509C88.5733 59.7499 88.5761 59.7492 88.5791 59.748C88.5401 59.6545 88.2395 58.4538 88.2043 58.3207L88.184 58.3254C88.2238 58.4773 88.4214 59.2702 88.4684 59.4C88.4655 59.4012 88.4627 59.4017 88.4598 59.4026L88.5429 59.7272C88.2074 59.8391 87.7972 59.8936 87.5092 59.667C82.9695 60.9316 77.1181 60.6236 75.4886 55.7324C76.9212 60.9057 82.9574 61.3326 87.6196 60.0154C87.9077 60.2418 88.3185 60.1872 88.6535 60.0755L88.5703 59.7509ZM76.1079 52.499C76.0812 53.5822 76.2184 54.5555 76.513 55.4016C76.2582 54.4588 76.1626 53.48 76.2301 52.5057L76.1079 52.499Z" fill="#CCCCCC"/>
<path d="M71.3751 50.4762C71.3751 52.4949 72.837 54.1312 74.6405 54.1312V46.8213C72.8371 46.8213 71.3751 48.4576 71.3751 50.4762Z" fill="#6DB9E8"/>
<path d="M71.5041 49.6866C71.5041 49.5946 71.5104 49.5044 71.5162 49.4141C71.4225 49.7604 71.3751 50.1176 71.3751 50.4764C71.3751 52.4949 72.837 54.1315 74.6405 54.1315V53.3341C72.8974 53.2576 71.5041 51.6563 71.5041 49.6866Z" fill="#CCCCCC"/>
<path d="M103.663 41.9376C103.369 41.9364 103.087 41.8247 102.872 41.6247C102.657 41.4247 102.525 41.1511 102.502 40.8583C101.953 34.3406 96.4723 29.2047 89.8147 29.2047C83.1571 29.2047 77.6765 34.3406 77.1267 40.8583C77.1043 41.1511 76.9725 41.4247 76.7575 41.6247C76.5425 41.8247 76.2601 41.9364 75.9664 41.9376C75.1899 41.9399 74.6642 41.2136 74.8257 40.4583C75.5783 32.7687 82.1411 26.7561 90.0507 26.8788C97.841 26.9996 104.217 33.0637 104.827 40.7299C104.833 40.8865 104.808 41.0427 104.752 41.1892C104.696 41.3357 104.611 41.4693 104.503 41.5822C104.394 41.695 104.263 41.7847 104.119 41.8458C103.975 41.9068 103.82 41.9381 103.663 41.9376Z" fill="#48A8E2"/>
<path d="M88.9616 29.0146C82.304 29.0146 76.8233 34.1501 76.2735 40.6683C76.2531 40.928 76.1467 41.1734 75.9712 41.3658C75.7956 41.5583 75.561 41.6867 75.3043 41.7308C76.0075 42.2442 77.0809 41.7374 77.1267 40.8577C77.6587 33.5193 84.826 27.9775 92.1409 29.4192C91.1024 29.1509 90.0342 29.015 88.9616 29.0147V29.0146ZM104.824 40.6891C104.266 33.912 99.2007 28.3943 92.6413 27.1436C98.7826 28.6914 103.437 34.0199 103.971 40.4992C103.993 40.7882 103.906 41.0748 103.727 41.3026C103.548 41.5305 103.29 41.6829 103.004 41.7299C103.762 42.2918 104.931 41.6377 104.824 40.6891Z" fill="#CCCCCC"/>
<path d="M75.9176 45.4834C75.6579 45.4834 75.4007 45.5346 75.1607 45.634C74.9208 45.7334 74.7027 45.8791 74.5191 46.0628C74.3354 46.2465 74.1898 46.4646 74.0904 46.7046C73.991 46.9445 73.9399 47.2018 73.94 47.4615V53.4912C73.94 54.0157 74.1484 54.5187 74.5192 54.8896C74.8901 55.2605 75.3931 55.4688 75.9176 55.4688C76.4421 55.4688 76.9452 55.2605 77.316 54.8896C77.6869 54.5187 77.8953 54.0157 77.8953 53.4912V47.4615C77.8953 47.2018 77.8442 46.9446 77.7448 46.7046C77.6455 46.4646 77.4998 46.2465 77.3162 46.0628C77.1325 45.8791 76.9145 45.7334 76.6745 45.634C76.4346 45.5346 76.1774 45.4834 75.9176 45.4834Z" fill="#48A8E2"/>
<path d="M76.3054 45.5225C76.911 46.0583 76.5102 51.8462 76.6184 52.6173C76.6327 53.8496 75.4561 54.81 74.2527 54.5567C74.4829 54.9171 74.8238 55.1931 75.2242 55.3433C75.6246 55.4936 76.063 55.5099 76.4734 55.3899C76.8839 55.2698 77.2444 55.0199 77.5007 54.6776C77.7571 54.3353 77.8955 53.9191 77.8953 53.4914V47.4619C77.8952 47.0047 77.7368 46.5616 77.4469 46.208C77.1571 45.8545 76.7537 45.6122 76.3054 45.5225Z" fill="#CCCCCC"/>
<path d="M104.855 46.3379V53.6478C109.124 53.632 109.121 46.3527 104.855 46.3379Z" fill="#6DB9E8"/>
<path d="M107.991 49.2033C107.991 49.1114 107.984 49.0212 107.979 48.9307C108.073 49.2771 108.12 49.6344 108.12 49.9933C108.12 52.012 106.658 53.6481 104.854 53.6481V52.851C106.598 52.7748 107.991 51.1729 107.991 49.2033Z" fill="#CCCCCC"/>
<path d="M103.578 45.001C103.318 45.0009 103.061 45.0521 102.821 45.1514C102.581 45.2507 102.363 45.3964 102.179 45.58C101.996 45.7636 101.85 45.9816 101.751 46.2215C101.651 46.4614 101.6 46.7185 101.6 46.9782V53.0081C101.6 53.5326 101.808 54.0357 102.179 54.4066C102.55 54.7775 103.053 54.9858 103.578 54.9858C104.102 54.9858 104.605 54.7775 104.976 54.4066C105.347 54.0357 105.555 53.5326 105.555 53.0081V46.9782C105.555 46.7185 105.504 46.4614 105.405 46.2214C105.305 45.9815 105.16 45.7635 104.976 45.5799C104.792 45.3963 104.574 45.2507 104.334 45.1513C104.094 45.052 103.837 45.0009 103.578 45.001Z" fill="#48A8E2"/>
<path d="M103.19 45.0391C102.584 45.5749 102.985 51.3632 102.877 52.1339C102.878 52.4262 102.944 52.7146 103.069 52.9785C103.195 53.2424 103.377 53.4754 103.603 53.6606C103.829 53.8459 104.093 53.9789 104.377 54.0502C104.66 54.1215 104.956 54.1292 105.243 54.0729C104.281 55.7085 101.532 54.9439 101.6 53.008V46.9781C101.6 46.521 101.759 46.078 102.048 45.7245C102.338 45.371 102.742 45.1288 103.19 45.0391Z" fill="#CCCCCC"/>
<path d="M91.7712 59.6829C90.6945 59.8674 88.3246 61.0772 87.9152 59.324C87.4291 57.5905 90.0951 57.511 91.1243 57.156C91.2902 57.1135 91.4629 57.1041 91.6324 57.1284C91.8019 57.1526 91.965 57.21 92.1124 57.2973C92.2597 57.3846 92.3884 57.5001 92.4912 57.6371C92.5939 57.7741 92.6686 57.93 92.7111 58.0959C92.7968 58.431 92.7459 58.7864 92.5697 59.084C92.3934 59.3816 92.1062 59.597 91.7712 59.6829Z" fill="#6DB9E8"/>
<path d="M92.7111 58.0952C92.6406 57.8202 92.4822 57.5758 92.2601 57.3991C92.038 57.2224 91.7642 57.1231 91.4805 57.1162C92.688 57.457 92.6532 59.345 91.4025 59.6189C91.1595 59.6618 88.9758 60.2873 88.777 60.2392C89.2751 60.4924 91.2514 59.7565 91.7712 59.6821C92.1062 59.5962 92.3934 59.3807 92.5696 59.0832C92.7459 58.7856 92.7968 58.4303 92.7111 58.0952ZM89.2934 58.4041C89.3185 58.3907 89.3479 58.3878 89.3752 58.396C89.4025 58.4041 89.4254 58.4228 89.439 58.4478C89.4526 58.4729 89.4557 58.5022 89.4477 58.5296C89.4397 58.5569 89.4213 58.58 89.3963 58.5938C89.3712 58.6067 89.3421 58.6092 89.3151 58.6009C89.2882 58.5926 89.2655 58.574 89.2521 58.5492C89.2387 58.5244 89.2355 58.4954 89.2432 58.4682C89.2509 58.4411 89.2689 58.4181 89.2934 58.4041ZM89.8951 58.5171C89.8978 58.4893 89.9113 58.4637 89.9326 58.4456C89.9539 58.4275 89.9814 58.4184 90.0093 58.4201C90.0372 58.4218 90.0633 58.4343 90.0822 58.4549C90.1011 58.4754 90.1113 58.5026 90.1107 58.5305C90.1079 58.5583 90.0944 58.584 90.0731 58.6021C90.0518 58.6202 90.0243 58.6293 89.9964 58.6276C89.9685 58.6258 89.9424 58.6134 89.9235 58.5928C89.9046 58.5722 89.8944 58.5451 89.8951 58.5171Z" fill="#CCCCCC"/>
<path d="M89.8782 59.2186C89.88 59.1901 89.8931 59.1633 89.9146 59.1444C89.936 59.1255 89.9642 59.1158 89.9928 59.1176C90.0214 59.1194 90.0481 59.1325 90.067 59.154C90.086 59.1755 90.0956 59.2036 90.0938 59.2322C90.092 59.2608 90.0789 59.2875 90.0574 59.3064C90.0359 59.3254 90.0078 59.335 89.9792 59.3332C89.9506 59.3314 89.9239 59.3183 89.905 59.2969C89.886 59.2754 89.8764 59.2472 89.8782 59.2186ZM89.4409 58.9777C89.4661 58.9646 89.4954 58.962 89.5224 58.9704C89.5495 58.9787 89.5723 58.9974 89.5857 59.0223C89.5992 59.0473 89.6024 59.0765 89.5945 59.1038C89.5867 59.131 89.5684 59.1541 89.5437 59.168C89.5185 59.181 89.4893 59.1836 89.4622 59.1753C89.4351 59.1669 89.4123 59.1483 89.3989 59.1233C89.3854 59.0984 89.3822 59.0691 89.3901 59.0419C89.398 59.0147 89.4162 58.9916 89.4409 58.9777ZM89.5726 57.9458C89.5977 57.9332 89.6267 57.9308 89.6535 57.9392C89.6802 57.9476 89.7027 57.9661 89.716 57.9908C89.7294 58.0155 89.7326 58.0444 89.725 58.0714C89.7175 58.0984 89.6996 58.1214 89.6754 58.1355C89.6503 58.1481 89.6213 58.1505 89.5946 58.1421C89.5678 58.1337 89.5453 58.1152 89.532 58.0905C89.5186 58.0658 89.5154 58.0369 89.523 58.0099C89.5306 57.9829 89.5484 57.9599 89.5726 57.9458ZM90.2073 57.9887C90.2198 57.9819 90.2334 57.9777 90.2475 57.9762C90.2616 57.9748 90.2758 57.9761 90.2894 57.9801C90.303 57.9841 90.3156 57.9908 90.3266 57.9997C90.3376 58.0087 90.3468 58.0197 90.3535 58.0321C90.3603 58.0446 90.3645 58.0582 90.366 58.0723C90.3674 58.0864 90.3661 58.1006 90.3621 58.1142C90.358 58.1278 90.3514 58.1404 90.3424 58.1514C90.3335 58.1624 90.3225 58.1716 90.3101 58.1783C90.2849 58.1919 90.2554 58.195 90.228 58.1868C90.2006 58.1787 90.1775 58.16 90.1639 58.1348C90.1503 58.1097 90.1472 58.0801 90.1554 58.0527C90.1636 58.0253 90.1822 58.0023 90.2073 57.9887ZM90.5137 57.6313C90.5389 57.6177 90.5684 57.6146 90.5958 57.6228C90.6094 57.6268 90.622 57.6335 90.633 57.6424C90.644 57.6513 90.6532 57.6623 90.6599 57.6748C90.6666 57.6873 90.6709 57.7009 90.6723 57.715C90.6738 57.7291 90.6725 57.7433 90.6684 57.7569C90.6644 57.7705 90.6577 57.7831 90.6488 57.7941C90.6399 57.8051 90.6288 57.8142 90.6164 57.821C90.5912 57.8346 90.5617 57.8376 90.5343 57.8295C90.5069 57.8213 90.4839 57.8026 90.4702 57.7775C90.4566 57.7523 90.4536 57.7228 90.4617 57.6954C90.4699 57.668 90.4886 57.6449 90.5137 57.6313ZM91.0409 57.7869C91.066 57.7743 91.095 57.7719 91.1217 57.7803C91.1485 57.7887 91.171 57.8072 91.1843 57.8319C91.1977 57.8565 91.2009 57.8854 91.1933 57.9124C91.1857 57.9395 91.1679 57.9625 91.1437 57.9765C91.1186 57.9892 91.0896 57.9915 91.0628 57.9831C91.0361 57.9747 91.0136 57.9562 91.0003 57.9316C90.9869 57.9069 90.9837 57.878 90.9913 57.851C90.9988 57.824 91.0167 57.801 91.0409 57.7869ZM91.2851 57.3891C91.3103 57.3754 91.3398 57.3723 91.3672 57.3804C91.3946 57.3885 91.4177 57.4072 91.4314 57.4323C91.445 57.4574 91.4482 57.4869 91.4401 57.5144C91.432 57.5418 91.4133 57.5649 91.3882 57.5785C91.363 57.5922 91.3335 57.5953 91.3061 57.5872C91.2787 57.5791 91.2556 57.5605 91.2419 57.5353C91.2283 57.5102 91.2251 57.4807 91.2332 57.4533C91.2414 57.4258 91.26 57.4027 91.2851 57.3891ZM91.7728 57.765C91.798 57.7518 91.8274 57.7491 91.8545 57.7574C91.8817 57.7657 91.9045 57.7844 91.918 57.8094C91.9315 57.8344 91.9346 57.8637 91.9266 57.891C91.9187 57.9183 91.9003 57.9413 91.8755 57.9552C91.8502 57.9688 91.8206 57.9718 91.7932 57.9636C91.7657 57.9553 91.7426 57.9365 91.729 57.9113C91.7154 57.8861 91.7124 57.8565 91.7206 57.829C91.7289 57.8015 91.7477 57.7785 91.7729 57.7649L91.7728 57.765ZM91.5792 58.1808C91.6043 58.1683 91.6333 58.166 91.6601 58.1745C91.6868 58.1829 91.7092 58.2015 91.7226 58.2262C91.7359 58.2509 91.7392 58.2798 91.7316 58.3068C91.724 58.3338 91.7062 58.3569 91.682 58.371C91.6569 58.3833 91.628 58.3855 91.6014 58.3769C91.5747 58.3684 91.5524 58.3499 91.5392 58.3253C91.5259 58.3007 91.5226 58.2719 91.5301 58.245C91.5376 58.218 91.5551 58.195 91.5792 58.1808ZM91.3335 58.8102C91.3067 58.8205 91.277 58.8197 91.2508 58.808C91.2246 58.7964 91.2041 58.7748 91.1939 58.748C91.1836 58.7212 91.1844 58.6915 91.1961 58.6653C91.2078 58.6391 91.2294 58.6186 91.2561 58.6084C91.2827 58.599 91.3119 58.6004 91.3374 58.6122C91.363 58.624 91.3829 58.6453 91.393 58.6716C91.4031 58.6979 91.4025 58.7271 91.3914 58.753C91.3803 58.7788 91.3595 58.7994 91.3335 58.8101V58.8102ZM91.8865 58.9404C91.8601 58.9493 91.8312 58.9476 91.806 58.9358C91.7808 58.9239 91.7611 58.9027 91.7511 58.8766C91.7412 58.8506 91.7417 58.8217 91.7525 58.796C91.7634 58.7703 91.7838 58.7498 91.8095 58.7388C91.836 58.7295 91.8651 58.7309 91.8906 58.7427C91.9162 58.7545 91.9361 58.7758 91.9461 58.8021C91.9562 58.8284 91.9555 58.8576 91.9444 58.8834C91.9333 58.9092 91.9125 58.9297 91.8865 58.9405V58.9404ZM90.9529 59.2052C90.9263 59.2143 90.8973 59.2127 90.8719 59.2008C90.8465 59.1889 90.8267 59.1676 90.8167 59.1414C90.8067 59.1152 90.8072 59.0861 90.8182 59.0603C90.8292 59.0345 90.8498 59.014 90.8756 59.003C90.9023 58.9935 90.9316 58.9948 90.9573 59.0066C90.983 59.0185 91.0031 59.0399 91.0132 59.0664C91.0233 59.0928 91.0226 59.1222 91.0114 59.1481C91.0001 59.1741 90.9791 59.1946 90.9529 59.2053V59.2052ZM90.4785 58.6141C90.5037 58.6013 90.5329 58.5988 90.5598 58.6072C90.5868 58.6155 90.6094 58.6341 90.6228 58.659C90.6362 58.6838 90.6394 58.7129 90.6316 58.7401C90.6239 58.7672 90.6058 58.7902 90.5813 58.8042C90.5562 58.8166 90.5273 58.8188 90.5006 58.8104C90.4739 58.8019 90.4516 58.7834 90.4383 58.7588C90.425 58.7341 90.4217 58.7053 90.4292 58.6784C90.4367 58.6514 90.4544 58.6284 90.4785 58.6142V58.6141ZM90.8629 58.2766C90.888 58.2642 90.9169 58.262 90.9436 58.2705C90.9703 58.2789 90.9926 58.2974 91.0059 58.3221C91.0192 58.3467 91.0225 58.3755 91.015 58.4025C91.0074 58.4294 90.9898 58.4524 90.9656 58.4666C90.9406 58.479 90.9116 58.4812 90.885 58.4727C90.8583 58.4643 90.836 58.4458 90.8226 58.4211C90.8093 58.3965 90.8061 58.3677 90.8136 58.3407C90.8211 58.3138 90.8388 58.2908 90.8629 58.2766ZM88.369 58.3537C88.3662 58.3259 88.3742 58.2981 88.3914 58.2761C88.4086 58.2542 88.4336 58.2397 88.4612 58.2357C88.4889 58.2318 88.517 58.2386 88.5396 58.2549C88.5623 58.2711 88.5778 58.2955 88.583 58.3229C88.5858 58.3507 88.5777 58.3785 88.5605 58.4005C88.5433 58.4224 88.5183 58.4369 88.4907 58.4409C88.4631 58.4449 88.435 58.438 88.4123 58.4217C88.3896 58.4055 88.3741 58.3811 88.369 58.3537ZM88.8775 58.7751C88.9026 58.762 88.932 58.7593 88.9591 58.7677C88.9862 58.776 89.009 58.7946 89.0225 58.8196C89.0361 58.8445 89.0392 58.8738 89.0314 58.9011C89.0235 58.9283 89.0052 58.9514 88.9805 58.9654C88.9553 58.9785 88.926 58.9812 88.8989 58.9728C88.8717 58.9645 88.8489 58.9459 88.8354 58.9209C88.8219 58.896 88.8187 58.8667 88.8266 58.8394C88.8345 58.8121 88.8527 58.7891 88.8775 58.7751ZM88.8513 59.3491C88.8765 59.3363 88.9056 59.3338 88.9325 59.3423C88.9595 59.3507 88.982 59.3693 88.9954 59.3941C89.0088 59.419 89.0119 59.448 89.0042 59.4752C88.9964 59.5023 88.9784 59.5253 88.9539 59.5393C88.9287 59.5521 88.8996 59.5545 88.8727 59.5461C88.8457 59.5376 88.8232 59.519 88.8098 59.4942C88.7964 59.4694 88.7933 59.4403 88.801 59.4132C88.8088 59.3861 88.8268 59.363 88.8513 59.3491ZM92.2067 58.4389C92.1935 58.4439 92.1794 58.4464 92.1652 58.446C92.1511 58.4457 92.1371 58.4425 92.1242 58.4368C92.1112 58.431 92.0996 58.4228 92.0898 58.4125C92.08 58.4022 92.0724 58.3902 92.0673 58.3769C92.0622 58.3637 92.0598 58.3496 92.0602 58.3355C92.0605 58.3213 92.0637 58.3074 92.0694 58.2944C92.0752 58.2815 92.0834 58.2698 92.0937 58.26C92.1039 58.2503 92.116 58.2426 92.1292 58.2376C92.1559 58.2273 92.1856 58.228 92.2117 58.2397C92.2379 58.2513 92.2583 58.2728 92.2686 58.2995C92.2789 58.3262 92.2781 58.3558 92.2665 58.382C92.2549 58.4081 92.2334 58.4286 92.2067 58.4389ZM88.8741 58.0729C88.8992 58.0607 88.928 58.0586 88.9546 58.0672C88.9811 58.0757 89.0033 58.0942 89.0166 58.1187C89.0298 58.1432 89.0331 58.1719 89.0257 58.1988C89.0183 58.2257 89.0007 58.2487 88.9768 58.2629C88.9517 58.2752 88.9229 58.2772 88.8963 58.2687C88.8698 58.2601 88.8476 58.2417 88.8343 58.2171C88.8211 58.1926 88.8178 58.1639 88.8252 58.137C88.8326 58.1101 88.8502 58.0872 88.8741 58.0729ZM88.2681 58.7921C88.2932 58.7797 88.3222 58.7775 88.3488 58.786C88.3755 58.7945 88.3978 58.813 88.4111 58.8376C88.4245 58.8622 88.4277 58.891 88.4202 58.918C88.4127 58.945 88.395 58.968 88.3709 58.9822C88.3458 58.9948 88.3167 58.9971 88.2899 58.9887C88.2631 58.9803 88.2406 58.9618 88.2273 58.937C88.2139 58.9123 88.2107 58.8834 88.2183 58.8563C88.2259 58.8293 88.2438 58.8062 88.2681 58.7921Z" fill="#CCCCCC"/>
<path d="M64.6884 78.6035C61.6733 82.534 59.8246 112.129 63.1334 115.376C67.2441 119.407 84.9054 117.658 84.9054 117.658L86.6715 106.048L77.1017 105.875L79.3401 91.7654L64.6884 78.6035Z" fill="#D1D3D4"/>
<path d="M217.369 63.0455C217.632 64.544 217.467 66.1336 216.958 67.6109C216.437 69.1035 215.585 70.4593 214.467 71.5773C213.35 72.6953 211.994 73.5467 210.501 74.0682C209.024 74.5782 207.434 74.742 205.935 74.477C207.385 74.2317 208.793 73.7815 210.116 73.1399C212.687 71.8764 214.768 69.7972 216.033 67.2267C216.673 65.9418 217.1 64.5402 217.369 63.0455ZM205.935 16.4886C207.434 16.2255 209.023 16.3895 210.501 16.8994C211.994 17.4203 213.35 18.2713 214.468 19.3892C215.586 20.5071 216.438 21.8629 216.959 23.3556C217.47 24.8335 217.634 26.4234 217.369 27.9219C217.099 26.4273 216.671 25.026 216.031 23.7411C214.767 21.1697 212.688 19.0892 210.117 17.8244C208.832 17.1839 207.43 16.7572 205.935 16.4886ZM145.571 27.9219C145.307 26.4234 145.472 24.8339 145.981 23.3565C146.502 21.8636 147.353 20.5075 148.471 19.3892C149.589 18.2709 150.945 17.4192 152.438 16.8977C153.916 16.3875 155.505 16.2237 157.004 16.4885C155.509 16.7585 154.108 17.1861 152.824 17.8262C150.252 19.0901 148.172 21.1698 146.907 23.7407C146.264 25.0636 145.814 26.4716 145.571 27.9219ZM157.004 74.477C155.506 74.7403 153.917 74.576 152.439 74.0665C150.946 73.5456 149.59 72.6947 148.472 71.5771C147.354 70.4595 146.502 69.104 145.98 67.6116C145.469 66.1337 145.306 64.544 145.571 63.0455C145.841 64.5402 146.268 65.9411 146.908 67.2257C148.172 69.7969 150.252 71.8772 152.823 73.1416C154.146 73.7834 155.554 74.2331 157.004 74.477Z" fill="#DAEDF9"/>
<path d="M213.534 27.9222V63.046C213.533 64.0437 213.337 65.0316 212.955 65.9532C212.573 66.8749 212.013 67.7123 211.308 68.4177C210.602 69.123 209.765 69.6825 208.843 70.0642C207.921 70.4458 206.933 70.6422 205.935 70.642H157.004C156.006 70.6421 155.018 70.4458 154.097 70.0641C153.175 69.6824 152.337 69.123 151.632 68.4176C150.926 67.7122 150.367 66.8748 149.985 65.9532C149.603 65.0315 149.406 64.0437 149.406 63.046V27.9222C149.406 25.9072 150.207 23.9747 151.632 22.5498C153.056 21.125 154.989 20.3244 157.004 20.3242H205.935C207.95 20.3244 209.883 21.1249 211.308 22.5498C212.733 23.9746 213.533 25.9071 213.534 27.9222Z" fill="#DAEDF9"/>
<path d="M65.4936 78.0205C62.0406 81.5724 56.7515 110.75 59.6595 114.36C63.2715 118.844 81.0163 119.167 81.0163 119.167L84.1246 107.843L74.6406 106.554L80.2645 89.4808L65.4936 78.0205Z" fill="#6DA7CA"/>
<g style="mix-blend-mode:multiply">
<path d="M62.567 112.631C59.5263 109.658 63.482 85.8057 66.0364 78.6371L65.4936 78.0205C62.0406 81.5724 56.7515 110.75 59.6595 114.36C63.2715 118.844 81.0163 119.167 81.0163 119.167L81.742 116.523C76.1912 116.72 65.2215 115.227 62.567 112.631Z" fill="#E6E7E8"/>
</g>
<path d="M83.6205 80.2061H129.185C129.986 80.2061 130.753 80.524 131.319 81.0899C131.885 81.6558 132.203 82.4234 132.203 83.2237V116.149C132.203 116.546 132.125 116.938 131.973 117.304C131.822 117.67 131.599 118.003 131.319 118.283C131.039 118.563 130.706 118.786 130.34 118.937C129.974 119.089 129.582 119.167 129.185 119.167H83.6207C82.8203 119.167 82.0526 118.849 81.4867 118.283C80.9207 117.717 80.6027 116.95 80.6027 116.149V83.2238C80.6027 82.4234 80.9207 81.6559 81.4866 81.0899C82.0525 80.524 82.8201 80.2061 83.6205 80.2061Z" fill="white"/>
<path d="M127.691 80.2061V96.7036C127.691 100.919 126.016 104.962 123.035 107.943C120.054 110.924 116.011 112.599 111.795 112.599H80.6025V116.149C80.6026 116.95 80.9205 117.717 81.4865 118.283C82.0524 118.849 82.82 119.167 83.6204 119.167H129.185C129.581 119.167 129.974 119.089 130.34 118.937C130.706 118.786 131.039 118.563 131.319 118.283C131.599 118.003 131.822 117.67 131.973 117.304C132.125 116.938 132.203 116.546 132.203 116.149V83.2242C132.203 82.8279 132.125 82.4354 131.973 82.0692C131.822 81.703 131.599 81.3703 131.319 81.0901C131.039 80.8098 130.706 80.5875 130.34 80.4358C129.974 80.2841 129.581 80.2061 129.185 80.2061H127.691Z" fill="#D3E5F0"/>
<path d="M104.494 99.1114C104.494 98.5404 104.663 97.9823 104.98 97.5076C105.298 97.0328 105.749 96.6628 106.276 96.4444C106.804 96.2259 107.384 96.1687 107.944 96.2801C108.504 96.3915 109.018 96.6664 109.422 97.0701C109.826 97.4739 110.101 97.9882 110.212 98.5482C110.323 99.1082 110.266 99.6886 110.048 100.216C109.829 100.744 109.459 101.194 108.985 101.512C108.51 101.829 107.952 101.998 107.381 101.998C106.615 101.998 105.881 101.694 105.339 101.153C104.798 100.611 104.494 99.877 104.494 99.1114Z" fill="#D3E5F0"/>
<path d="M186.811 35.975C189.101 34.6273 190.469 38.5097 186.124 39.3442L186.811 35.975Z" fill="#B0D5EB"/>
<path d="M186.213 40.6064L188.759 32.5369L189.9 32.8967L187.353 40.9663L186.213 40.6064Z" fill="#005C94"/>
<path d="M187.531 57.1649L188.57 49.0907L191.469 49.7181L189.178 41.8686L188.797 40.5605C187.921 40.3106 186.246 38.3021 187.085 37.3354C187.25 37.1473 188.067 38.2054 188.175 37.9443C188.715 36.6271 189.276 35.159 189.131 34.2815C188.955 33.2308 189.632 32.7601 189.778 33.2855C190.134 33.7396 190.663 37.7897 190.471 39.1966C190.964 40.0232 191.533 40.3451 192.522 41.8686C196.865 48.5597 203.246 59.8609 187.531 57.1649Z" fill="#CBE8F9"/>
<path d="M187.531 57.165L188.57 49.0909L191.469 49.7183L188.962 42.0619L192.207 40.6133C194.894 44.7525 199.292 51.8467 197.918 55.4758C197.071 57.7139 193.526 58.193 187.531 57.165Z" fill="#48A8E2"/>
<path d="M189.725 70.6417H171.373C171.288 69.5476 171.182 68.4291 171.07 67.3037C170.533 61.9166 169.83 56.3907 170.275 52.77C170.222 51.4344 170.7 50.5043 171.483 49.8419C171.554 49.7838 171.626 49.7272 171.7 49.6721C171.729 49.6506 171.758 49.6282 171.788 49.6085C171.802 49.5959 171.818 49.5849 171.835 49.5757C173.32 48.5578 175.611 48.2677 177.543 47.9848C177.673 47.9468 178.01 47.9228 178.464 47.908C178.546 47.9064 178.634 47.9029 178.723 47.901H178.745C180.062 47.8736 182.078 47.908 183.087 47.9194C183.335 47.9228 183.523 47.9246 183.623 47.9228C185.273 48.3115 186.922 48.7008 188.57 49.0905C188.57 49.0905 188.773 52.7331 189.025 57.3871V57.3959C189.255 61.6375 189.526 66.716 189.725 70.6417Z" fill="#48A8E2"/>
<path d="M184.405 48.0396C182.986 51.8047 178.64 51.2421 177.544 47.9848C178.764 47.8476 181.854 47.7969 183.624 47.9222C183.936 47.9442 184.191 48.0088 184.405 48.0396Z" fill="#B6DCF3"/>
<path d="M183.623 47.9242C181.981 49.9693 180.097 50.6272 178.465 47.9085L179.081 42.4315L182.667 42.4082L183.623 47.9242Z" fill="#CBE8F9"/>
<path d="M183.623 47.9242C183.49 48.0958 183.357 48.2314 183.224 48.3876C182.61 46.3282 182.111 43.5585 178.886 44.1137L179.081 42.4315L182.667 42.4082L183.623 47.9242Z" fill="#B0D5EB"/>
<path d="M187.285 35.5504C187.023 42.9643 179.714 46.7896 176.005 39.0111H175.992C171.542 29.0132 186.384 24.033 187.285 35.5504Z" fill="#CBE8F9"/>
<path d="M177.313 35.4607C177.879 35.012 178.734 34.8881 179.328 35.4033C179.535 35.5984 179.206 35.9086 179.024 35.6878C178.702 35.3119 177.919 35.3066 177.453 35.6305C177.43 35.6469 177.402 35.6541 177.374 35.6505C177.346 35.6469 177.321 35.6328 177.303 35.6112C177.286 35.5896 177.277 35.562 177.278 35.534C177.28 35.5061 177.293 35.4799 177.313 35.4607ZM185.152 35.6762C183.97 34.9771 183.614 35.9884 183.287 35.7595C182.988 35.2565 184.024 35.0793 184.324 35.1255C184.551 35.0474 185.817 35.6567 185.152 35.6762Z" fill="#0B3650"/>
<path d="M177.495 36.5472C177.478 35.3826 179.308 35.3826 179.29 36.5477C179.307 37.7117 177.478 37.7117 177.495 36.5472ZM183.373 36.5472C183.356 35.3826 185.186 35.3826 185.169 36.5477C185.186 37.7117 183.356 37.7117 183.373 36.5472Z" fill="#EAF6FD"/>
<path d="M177.707 36.5477C177.694 35.6578 179.092 35.6581 179.079 36.5477C179.092 37.4375 177.694 37.4375 177.707 36.5477ZM183.585 36.5347C183.572 35.6447 184.97 35.6447 184.957 36.5347C184.97 37.4246 183.572 37.4246 183.585 36.5347Z" fill="#0B3650"/>
<path d="M178.493 36.3158C178.324 36.1513 178.585 35.8895 178.75 36.0587C178.919 36.223 178.657 36.4854 178.493 36.3158ZM184.343 36.3158C184.174 36.1513 184.436 35.8895 184.6 36.0587C184.769 36.223 184.507 36.4854 184.343 36.3158Z" fill="white"/>
<path d="M182.777 40.2275C182.623 40.752 182.351 41.1293 182.029 41.3528V41.36C181.044 42.0689 179.818 41.3919 179.596 40.2275C180.648 40.4197 181.725 40.4197 182.777 40.2275Z" fill="#122B3B"/>
<path d="M182.49 40.2686V40.6181C181.644 40.7995 180.778 40.7579 179.883 40.5905V40.2686C180.748 40.3821 181.625 40.3821 182.49 40.2686Z" fill="white"/>
<path d="M182.029 41.353V41.3602C181.769 41.5547 181.451 41.6562 181.127 41.6486C180.802 41.641 180.49 41.5247 180.239 41.3182C180.551 40.8789 181.754 40.8901 182.029 41.353Z" fill="#48A8E2"/>
<path d="M177.707 38.2792C177.689 37.8496 179.03 37.8496 179.013 38.2792C179.03 38.7091 177.689 38.7091 177.707 38.2792ZM183.889 38.2792C183.871 37.8496 185.213 37.8496 185.195 38.2792C185.213 38.7094 183.871 38.7094 183.889 38.2792Z" fill="#91CBEE"/>
<path d="M187.607 31.5715C187.466 31.5859 187.325 31.5932 187.184 31.5934L184.75 28.4595C186.819 19.4355 196.899 29.5215 187.607 31.5715Z" fill="#0B3650"/>
<path d="M187.607 31.5729C186.936 30.181 186.142 28.3368 186.878 28.8471C189.286 30.6198 191.646 27.4068 190.311 25.7422C193.131 28.2207 190.363 31.3541 187.607 31.5729Z" fill="#CCCCCC"/>
<path d="M184.309 27.5618C184.309 27.5618 184.132 26.8727 185.02 27.0695C186.395 27.3751 188.468 31.2404 187.884 31.8323C187.141 32.5859 184.309 27.5618 184.309 27.5618Z" fill="#48A8E2"/>
<path d="M187.614 35.894C187.364 37.4556 186.831 38.9124 185.981 40.1796C186.726 38.2489 186.945 35.9221 185.799 34.0428C185.513 34.5833 185.483 35.3146 185.454 35.8665C182.506 35.7756 179.128 32.7642 178.401 31.1271C176.25 32.8559 175.836 34.7276 175.384 37.1911C171.361 24.6816 189.881 21.9478 187.614 35.894Z" fill="#0B3650"/>
<path d="M173.92 57.4767L171.07 67.3041L170.104 70.6422H164.72C165.581 63.7613 167.148 53.3665 171.483 49.8423C171.554 49.7842 171.626 49.7276 171.7 49.6726C171.729 49.651 171.758 49.6287 171.788 49.6089C171.803 49.5963 171.818 49.5847 171.835 49.5742V49.5761L173.92 57.4767Z" fill="#48A8E2"/>
<path d="M43.4636 37.5289H2.06186C1.51504 37.5289 0.99061 37.3117 0.603939 36.925C0.217268 36.5384 2.53205e-05 36.014 1.98706e-08 35.4671C-3.75734e-05 35.1964 0.0532674 34.9282 0.156872 34.678C0.260477 34.4279 0.412351 34.2006 0.60382 34.0091C0.795289 33.8176 1.0226 33.6657 1.27278 33.5621C1.52295 33.4585 1.79108 33.4052 2.06186 33.4053H43.4636C43.7344 33.4052 44.0026 33.4586 44.2527 33.5622C44.5029 33.6658 44.7302 33.8177 44.9217 34.0091C45.1131 34.2006 45.265 34.4279 45.3686 34.6781C45.4722 34.9282 45.5255 35.1964 45.5255 35.4671C45.5255 36.014 45.3082 36.5384 44.9216 36.925C44.5349 37.3117 44.0105 37.5289 43.4636 37.5289Z" fill="#325063"/>
<path d="M46.3364 18.1846C43.4595 17.5248 43.2885 21.8477 41.2732 22.9225C41.3367 20.3085 40.979 16.6605 38.3484 15.4294C35.7293 14.8376 34.5749 17.9794 34.4934 20.1008C32.7437 19.4044 32.116 16.555 30.1775 16.4044C29.2484 16.6142 29.1443 17.7639 29.318 18.5505C29.5141 21.1769 31.8021 22.8619 34.3991 22.2804C34.4459 25.2516 35.2057 28.168 36.6145 30.7843L39.569 30.9174C40.1796 29.1044 40.6503 26.9711 41.0013 25.095C43.6837 25.3438 49.704 20.5664 46.3363 18.1846H46.3364Z" fill="#4690BD"/>
<path d="M35.0103 27.6963H40.7422V33.4279H35.0103V27.6963Z" fill="#48A8E2"/>
<path d="M40.7422 27.9512V33.4288C40.4252 31.2402 38.9923 29.7617 35.0103 29.9045V27.9512H40.7422Z" fill="#CCCCCC"/>
<path d="M34.6035 27.6152H41.0943V28.7434H34.6035V27.6152Z" fill="#48A8E2"/>
<path d="M37.0129 25.6776C37.0867 26.0031 36.5806 26.0945 36.5669 25.7536C36.4931 25.4279 36.9993 25.3362 37.0129 25.6776ZM38.0839 22.2964C37.7969 22.2964 37.7964 22.7421 38.0839 22.7421C38.3701 22.7421 38.371 22.2964 38.0839 22.2964ZM37.7791 18.491C37.4925 18.491 37.492 18.9369 37.7791 18.9369C38.0661 18.9369 38.0665 18.491 37.7791 18.491ZM35.2299 21.1547C34.9429 21.1547 34.9425 21.6004 35.2299 21.6004C35.5165 21.6004 35.517 21.1547 35.2299 21.1547ZM37.7928 24.2597C37.6796 23.9849 37.2958 24.184 37.29 24.4216C37.3137 24.833 37.9254 24.5784 37.7928 24.2597ZM39.7335 25.0208C39.5503 24.6604 39.1233 25.0868 39.3722 25.3405C39.5847 25.541 39.8464 25.249 39.7335 25.0208ZM40.1387 20.0511C39.8518 20.0511 39.8511 20.4969 40.1387 20.4969C40.4254 20.4969 40.4256 20.0511 40.1387 20.0511ZM35.8373 23.3493C35.2561 22.7517 35.2573 24.1888 35.8373 23.5913C35.8573 23.5541 35.8678 23.5125 35.8678 23.4703C35.8678 23.4281 35.8573 23.3865 35.8373 23.3493ZM37.2845 20.5838C36.9979 20.5838 36.9973 21.0296 37.2845 21.0296C37.5716 21.0296 37.5719 20.5838 37.2845 20.5838ZM32.2998 20.3554C32.013 20.3554 32.0124 20.8013 32.2998 20.8013C32.5865 20.8013 32.5871 20.3554 32.2998 20.3554ZM31.3103 17.4254C31.0237 17.4254 31.0232 17.8713 31.3103 17.8713C31.5972 17.8713 31.5977 17.4254 31.3103 17.4254ZM34.303 20.8235C34.1973 20.4817 33.4411 20.6813 33.7401 21.0405C33.9166 21.1829 34.3798 21.1308 34.303 20.8235ZM30.2069 19.2139C29.9201 19.2139 29.9195 19.6596 30.2069 19.6596C30.4936 19.6596 30.494 19.2139 30.2069 19.2139ZM36.3712 17.0449C36.0847 17.0449 36.0841 17.4908 36.3712 17.4908C36.6582 17.4908 36.6587 17.0449 36.3712 17.0449ZM38.8201 17.5243C38.6972 17.2326 38.277 17.4647 38.4128 17.7342C38.5355 18.0257 38.9558 17.7941 38.8201 17.5243ZM36.3333 19.2139C36.0465 19.2139 36.0459 19.6596 36.3333 19.6596C36.6202 19.6596 36.6204 19.2139 36.3333 19.2139ZM40.4297 21.5848C40.3218 21.2335 39.707 21.494 39.981 21.8016C40.1454 21.9576 40.4997 21.8391 40.4297 21.5848ZM41.0921 23.8142C40.6063 23.3115 40.3162 24.6313 40.9702 24.1616C40.9674 24.1654 40.9644 24.1689 40.9616 24.1725C40.9816 24.1468 41.0045 24.1236 41.0299 24.1033C41.0291 24.1041 41.0282 24.1048 41.0272 24.1054C41.0731 24.0743 41.1054 24.0269 41.1174 23.9728C41.1295 23.9187 41.1204 23.862 41.0921 23.8143V23.8142ZM43.6796 23.5861C43.4624 23.2768 43.1371 23.6772 43.2456 23.9369C43.3244 24.1588 43.6803 24.0858 43.672 23.8516L43.6654 23.8989C43.6802 23.7944 43.7466 23.6865 43.6796 23.5861ZM45.6696 19.6175C45.4867 19.2569 45.0595 19.6837 45.3083 19.9368C45.5206 20.1379 45.7828 19.8455 45.6696 19.6175ZM46.6589 20.6447C46.5109 20.3151 46.0743 20.6563 46.2248 20.9192C46.3922 21.1914 46.775 20.8992 46.6589 20.6447ZM44.0446 21.2803C43.937 20.9291 43.322 21.1897 43.5959 21.497C43.7606 21.6528 44.1146 21.535 44.0446 21.2803ZM37.8789 26.5584C37.5783 26.5309 37.553 27.0014 37.8554 27.0039C38.1559 27.0313 38.1815 26.5606 37.8789 26.5584ZM35.89 26.8093C35.7764 26.5181 35.3233 26.7566 35.4448 27.019C35.558 27.31 36.0115 27.0717 35.89 26.8093ZM39.6059 26.9389C39.319 26.9389 39.3186 27.3844 39.6059 27.3844C39.8925 27.3844 39.8929 26.9389 39.6059 26.9389Z" fill="#97BFD8"/>
<path d="M7.63796 18.8473C7.41501 19.2155 6.93487 18.6293 6.99249 18.2295H7.22279C7.20495 18.4856 7.35577 18.7376 7.52396 18.7335C7.55413 18.7336 7.58304 18.7456 7.60439 18.7669C7.62575 18.7882 7.63781 18.8171 7.63796 18.8473Z" fill="#2E98D8"/>
<path d="M6.66571 20.5596H19.3681V33.2618H6.66571V20.5596Z" fill="#DAEDF9"/>
<path d="M19.3687 18.2295V20.5598H6.66656V18.2295H6.99245C6.93473 18.6293 7.41526 19.216 7.63792 18.8473C7.63777 18.8171 7.6257 18.7882 7.60435 18.7669C7.583 18.7456 7.55409 18.7336 7.52392 18.7335C7.35573 18.7376 7.2049 18.4856 7.22274 18.2295H19.3687Z" fill="#48A8E2"/>
<path d="M7.22152 18.8449C7.21752 18.5751 7.64185 18.5751 7.63794 18.8449C7.64185 19.1149 7.21752 19.1149 7.22152 18.8449Z" fill="#316280"/>
<path d="M8.0574 18.2295H7.82701C7.64184 17.1045 6.67993 18.3584 7.63793 18.8473C7.41498 19.2156 6.93483 18.6293 6.99264 18.2295C6.99694 17.3407 8.05158 17.3422 8.0573 18.2295H8.0574Z" fill="#DAEDF9"/>
<path d="M8.28616 18.8449C8.28225 18.5751 8.70649 18.5751 8.70258 18.8449C8.70649 19.1149 8.28225 19.1149 8.28616 18.8449Z" fill="#316280"/>
<path d="M9.12213 18.2298H8.89184C8.88068 17.6431 8.29884 17.6404 8.28758 18.2298C8.26955 18.486 8.42028 18.7379 8.58856 18.7338C8.61799 18.735 8.64582 18.7476 8.66621 18.7688C8.68661 18.79 8.69799 18.8184 8.69799 18.8478C8.69799 18.8773 8.68661 18.9056 8.66621 18.9268C8.64582 18.9481 8.61799 18.9606 8.58856 18.9618C7.24372 18.6539 8.76982 16.4239 9.12213 18.2298Z" fill="#DAEDF9"/>
<path d="M9.35111 18.8449C9.34691 18.5751 9.77124 18.5751 9.76724 18.8449C9.77124 19.1149 9.34691 19.1149 9.35111 18.8449Z" fill="#316280"/>
<path d="M10.1868 18.2295H9.95663C9.77127 17.1045 8.80956 18.3584 9.76727 18.8473C9.54461 19.2161 9.06465 18.6293 9.12218 18.2295C9.12657 17.3407 10.1811 17.3422 10.1868 18.2295Z" fill="#DAEDF9"/>
<path d="M10.4159 18.8449C10.412 18.5751 10.8362 18.5751 10.8322 18.8449C10.8362 19.1149 10.4119 19.1149 10.4159 18.8449Z" fill="#316280"/>
<path d="M11.2518 18.2295H11.0215C10.8362 17.1045 9.8745 18.3584 10.8322 18.8473C10.6093 19.2161 10.1293 18.6293 10.187 18.2295C10.1914 17.3407 11.2461 17.3422 11.2517 18.2295H11.2518Z" fill="#DAEDF9"/>
<path d="M11.4806 18.8449C11.4767 18.5751 11.9009 18.5751 11.897 18.8449C11.9009 19.1149 11.4766 19.1149 11.4806 18.8449Z" fill="#316280"/>
<path d="M12.3164 18.2295H12.0863C11.9008 17.1045 10.9391 18.3584 11.8971 18.8473C11.6742 19.2161 11.1943 18.6293 11.2517 18.2295C11.2561 17.3407 12.311 17.3422 12.3164 18.2295Z" fill="#DAEDF9"/>
<path d="M12.5456 18.8449C12.5417 18.5751 12.9656 18.5751 12.9617 18.8449C12.9655 19.1149 12.5416 19.1149 12.5456 18.8449Z" fill="#316280"/>
<path d="M13.3814 18.2295H13.1511C12.9659 17.1047 12.0039 18.3584 12.9619 18.8473C12.739 19.2161 12.259 18.6293 12.3166 18.2295C12.3208 17.3407 13.3756 17.3422 13.3814 18.2295Z" fill="#DAEDF9"/>
<path d="M13.6103 18.8449C13.6063 18.5751 14.0306 18.5751 14.0266 18.8449C14.0306 19.1149 13.6063 19.1149 13.6103 18.8449Z" fill="#316280"/>
<path d="M14.4461 18.2298H14.2158C14.2002 17.618 13.6028 17.6612 13.6091 18.2547C13.6091 18.5151 13.7484 18.7338 13.9127 18.7338C13.9421 18.735 13.9699 18.7476 13.9903 18.7688C14.0107 18.79 14.0221 18.8184 14.0221 18.8478C14.0221 18.8773 14.0107 18.9056 13.9903 18.9268C13.9699 18.9481 13.9421 18.9606 13.9127 18.9618C12.5675 18.6539 14.094 16.4239 14.4461 18.2298Z" fill="#DAEDF9"/>
<path d="M14.6751 18.8449C14.6712 18.5751 15.0953 18.5751 15.0914 18.8449C15.0952 19.1149 14.6712 19.1149 14.6751 18.8449Z" fill="#316280"/>
<path d="M15.5108 18.2295H15.2806C15.0953 17.1045 14.1335 18.3584 15.0914 18.8473C14.8685 19.2161 14.3887 18.6293 14.446 18.2295C14.4505 17.3407 15.5052 17.3422 15.5108 18.2295Z" fill="#DAEDF9"/>
<path d="M15.7397 18.8449C15.7359 18.5751 16.1601 18.5751 16.156 18.8449C16.1599 19.1149 15.7357 19.1149 15.7398 18.8449H15.7397Z" fill="#316280"/>
<path d="M16.5757 18.2298H16.3454C16.1296 17.0223 15.29 18.5495 16.0422 18.7338C16.0716 18.735 16.0994 18.7476 16.1198 18.7689C16.1402 18.7901 16.1516 18.8185 16.1515 18.8479C16.1515 18.8774 16.1401 18.9057 16.1197 18.9269C16.0993 18.9481 16.0714 18.9606 16.042 18.9618C14.6973 18.6539 16.2233 16.4239 16.5757 18.2298Z" fill="#DAEDF9"/>
<path d="M16.8047 18.8449C16.8007 18.5751 17.225 18.5751 17.2211 18.8449C17.225 19.1149 16.8007 19.1149 16.8047 18.8449Z" fill="#316280"/>
<path d="M17.6405 18.2295H17.4101C17.2251 17.1045 16.263 18.3584 17.2211 18.8473C16.9981 19.2156 16.5181 18.6293 16.5757 18.2295C16.5801 17.3407 17.6349 17.3422 17.6405 18.2295Z" fill="#DAEDF9"/>
<path d="M17.8693 18.8449C17.8654 18.5751 18.2896 18.5751 18.2857 18.8449C18.2896 19.1149 17.8654 19.1149 17.8693 18.8449Z" fill="#316280"/>
<path d="M18.7052 18.2295H18.4749C18.2898 17.1045 17.3279 18.3584 18.2857 18.8473C18.0628 19.2161 17.583 18.6293 17.6406 18.2295C17.6447 17.3407 18.6996 17.3422 18.7052 18.2295Z" fill="#DAEDF9"/>
<path d="M7.81598 22.0781H8.75642V23.0187H7.81598V22.0781ZM9.71652 22.0781H10.6572V23.0187H9.71652V22.0781ZM11.6173 22.0781H12.5578V23.0187H11.6173V22.0781ZM13.5179 22.0781H14.4586V23.0187H13.5179V22.0781ZM15.4186 22.0781H16.3592V23.0187H15.4186V22.0781ZM17.3192 22.0781H18.2597V23.0187H17.3192V22.0781ZM7.81598 23.8738H8.75642V24.814H7.81598V23.8738ZM9.71652 23.8738H10.6572V24.814H9.71652V23.8738ZM11.6173 23.8738H12.5578V24.814H11.6173V23.8738ZM13.5179 23.8738H14.4586V24.814H13.5179V23.8738ZM15.4186 23.8738H16.3592V24.814H15.4186V23.8738ZM17.3192 23.8738H18.2597V24.814H17.3192V23.8738ZM7.81598 25.6696H8.75642V26.6098H7.81598V25.6696ZM9.71652 25.6696H10.6572V26.6098H9.71652V25.6696ZM11.6173 25.6696H12.5578V26.6098H11.6173V25.6696ZM13.5179 25.6696H14.4586V26.6098H13.5179V25.6696ZM15.4186 25.6696H16.3592V26.6098H15.4186V25.6696ZM17.3192 25.6696H18.2597V26.6098H17.3192V25.6696ZM7.81598 27.4645H8.75642V28.4054H7.81598V27.4645ZM9.71652 27.4645H10.6572V28.4054H9.71652V27.4645ZM11.6173 27.4645H12.5578V28.4054H11.6173V27.4645ZM13.5179 27.4645H14.4586V28.4054H13.5179V27.4645ZM15.4186 27.4645H16.3592V28.4054H15.4186V27.4645ZM17.3192 27.4645H18.2597V28.4054H17.3192V27.4645Z" fill="#48A8E2"/>
<path d="M17.7952 99.6855L19.0664 98.7643L20.3529 100.54L19.0818 101.461L17.7952 99.6855Z" fill="#666666"/>
<path d="M28.7025 100.448L29.9896 98.6729L31.2604 99.5943L29.9734 101.37L28.7025 100.448Z" fill="#666666"/>
<path d="M28.833 113.379L27.0919 114.79C28.0071 115.74 28.9225 116.691 29.838 117.642C30.2676 119.947 33.219 117.553 31.0534 116.656C30.3133 115.564 29.5732 114.472 28.833 113.379ZM20.5799 113.379C21.1603 113.849 21.7405 114.32 22.3206 114.79C21.4054 115.74 20.4902 116.691 19.5748 117.642C19.1453 119.947 16.1937 117.553 18.3592 116.656C19.0995 115.564 19.8397 114.472 20.5799 113.379Z" fill="#666666"/>
<path d="M20.5799 113.379C20.4822 113.524 20.3844 113.668 20.2864 113.812L21.709 114.965C20.7938 115.916 19.8784 116.866 18.9628 117.817C18.9589 117.972 18.9186 118.124 18.8451 118.261C18.7715 118.398 18.6669 118.516 18.5396 118.604C19.0607 118.651 19.5833 118.172 19.5748 117.642C20.4902 116.691 21.4055 115.741 22.3207 114.79L20.5799 113.379Z" fill="#CCCCCC"/>
<path d="M33.5274 107.929C33.3247 119.797 15.671 119.795 15.47 107.928C15.6728 96.0606 33.3264 96.0627 33.5274 107.929Z" fill="#51A9DE"/>
<path d="M26.7244 99.1768C37.6581 102.727 33.1091 119.236 21.8057 116.549C33.5669 119.932 38.4122 102.375 26.7244 99.1768Z" fill="#CCCCCC"/>
<path d="M32.4069 107.929C32.2295 118.325 16.7662 118.323 16.5904 107.929C16.7679 97.5332 32.231 97.5351 32.407 107.929L32.4069 107.929Z" fill="white"/>
<path d="M24.4987 100.021C14.103 100.198 14.1049 115.661 24.499 115.837C34.8943 115.659 34.8924 100.197 24.4987 100.021ZM24.4987 115.441C14.6244 115.272 14.6261 100.584 24.499 100.417C34.3728 100.586 34.3713 115.273 24.4987 115.441Z" fill="#CCCCCC"/>
<path d="M23.9288 114.675C23.9178 113.935 25.0796 113.935 25.0688 114.675C25.0796 115.414 23.9176 115.414 23.9288 114.675ZM28.6789 112.632C28.6723 112.201 29.35 112.201 29.3438 112.632C29.35 113.063 28.6723 113.063 28.6789 112.632ZM19.7961 112.11C20.2276 112.103 20.2276 112.781 19.7961 112.775C19.3646 112.781 19.3646 112.103 19.7961 112.11ZM20.3186 103.227C20.3248 103.658 19.6471 103.658 19.6536 103.227C19.6471 102.795 20.3248 102.795 20.3186 103.227ZM29.2013 103.749C28.77 103.756 28.7698 103.078 29.2013 103.084C29.6327 103.078 29.6327 103.756 29.2013 103.749ZM17.7534 107.36C18.4929 107.349 18.493 108.51 17.7534 108.5C17.0138 108.51 17.0138 107.349 17.7534 107.36ZM25.0688 101.185C25.0796 101.924 23.9176 101.924 23.9288 101.185C23.9178 100.445 25.0796 100.445 25.0688 101.185ZM31.244 108.5C30.5042 108.51 30.5042 107.349 31.244 107.36C31.9835 107.349 31.9835 108.51 31.244 108.5Z" fill="#51A9DE"/>
<path d="M27.4043 109.644C27.2406 109.382 27.1856 109.228 26.9531 109.376L25.2013 108.287C25.2307 108.17 25.2137 108.047 25.154 107.943C25.0944 107.839 24.9966 107.762 24.8814 107.729L24.8189 103.17C25.2052 102.966 24.6713 102.552 24.6402 102.164C24.6199 102.552 24.0974 102.981 24.4895 103.174L24.5525 107.758C24.5173 107.775 24.4846 107.797 24.4549 107.822L24.0032 107.541L23.8292 107.821L24.298 108.113C24.2851 108.21 24.304 108.31 24.3518 108.396C24.3997 108.482 24.474 108.551 24.5637 108.592L24.5733 109.284L24.903 109.279L24.8938 108.613C24.9352 108.599 24.9745 108.58 25.0108 108.556L26.7792 109.656C26.7425 110.091 27.3788 109.865 27.7218 110.048C27.6044 109.923 27.4981 109.788 27.4043 109.644Z" fill="#CCCCCC"/>
<path d="M24.7166 109.011L24.6768 102.901C25.0646 102.7 24.5336 102.283 24.5055 101.895C24.4824 102.283 23.9568 102.707 24.3472 102.904L24.3868 109.014L24.7166 109.011Z" fill="#51A9DE"/>
<path d="M27.2153 109.393C27.0534 109.129 26.9997 108.976 26.7659 109.122L23.8294 107.266L23.6534 107.544L26.5899 109.401C26.5502 109.835 27.1881 109.614 27.5299 109.8C27.4133 109.673 27.308 109.537 27.2153 109.393Z" fill="#51A9DE"/>
<path d="M25.0377 107.906C25.0421 108.505 24.1018 108.498 24.1152 107.9C24.1106 107.301 25.0509 107.308 25.0377 107.906Z" fill="#666666"/>
<path d="M20.6334 98.9452L17.0948 100.988C16.7767 101.171 16.3993 101.22 16.045 101.125C15.6908 101.03 15.3885 100.799 15.2042 100.482C15.0218 100.164 14.9727 99.7863 15.0676 99.4321C15.1625 99.0779 15.3937 98.7756 15.7107 98.5913L19.2493 96.5481C19.5675 96.3657 19.9449 96.3167 20.2991 96.4116C20.6533 96.5065 20.9556 96.7378 21.1399 97.0548C21.3223 97.3729 21.3714 97.7503 21.2765 98.1045C21.1816 98.4587 20.9504 98.7609 20.6334 98.9452Z" fill="#51A9DE"/>
<path d="M21.2476 97.2416C21.0145 96.7305 20.5754 96.238 19.9807 96.2854C20.8423 96.7178 21.3016 98.1829 20.3017 98.735C19.9915 98.8583 16.1121 101.306 15.8452 101.149C16.6418 101.745 20.0993 99.0764 20.8201 98.8379C21.0877 98.6822 21.2829 98.427 21.363 98.1279C21.4431 97.8288 21.4016 97.5102 21.2476 97.2416Z" fill="#CCCCCC"/>
<path d="M28.3642 98.9452L31.9025 100.988C32.2207 101.171 32.5981 101.22 32.9523 101.125C33.3066 101.03 33.6088 100.799 33.7932 100.482C33.9756 100.164 34.0248 99.7863 33.9299 99.4321C33.8349 99.0779 33.6037 98.7756 33.2866 98.5914L29.748 96.5481C29.4299 96.3657 29.0524 96.3166 28.6982 96.4116C28.3439 96.5065 28.0416 96.7378 27.8573 97.0549C27.675 97.373 27.6259 97.7504 27.7209 98.1046C27.8158 98.4588 28.0471 98.761 28.3642 98.9452Z" fill="#51A9DE"/>
<path d="M33.4733 98.699C32.7212 98.4529 29.3276 95.7944 28.4959 96.3892C28.736 96.2243 32.6576 98.6888 32.9474 98.8025C33.9461 99.3539 33.4889 100.817 32.629 101.251C33.8231 101.303 34.643 99.3363 33.4733 98.699Z" fill="#CCCCCC"/>
<path d="M162.282 97.3164H165.809V118.095H162.282V97.3164Z" fill="#48A8E2"/>
<path d="M165.809 99.6904H169.335V118.094H165.809V99.6904Z" fill="#6DA7CA"/>
<path d="M169.335 101.234H172.862V118.095H169.335V101.234Z" fill="#4690BD"/>
<path d="M172.862 102.849L176.035 101.309L183.394 116.48L180.221 118.019L172.862 102.849Z" fill="#6DA7CA"/>
<path d="M203.735 104.956C202.281 99.3063 194.278 97.8276 190.924 102.62C188.396 105.872 189.278 110.985 192.751 113.201H201.136C203.546 111.495 204.529 107.801 203.735 104.956Z" fill="#4690BD"/>
<path d="M202.366 112.048V117.487C202.349 118.437 201.234 118.331 200.553 118.439C199.365 118.472 191.237 119.239 191.316 117.404L191.317 112.048C195.014 112.467 198.765 112.52 202.366 112.048Z" fill="#48A8E2"/>
<path d="M202.366 112.048V117.487C202.35 118.437 201.233 118.331 200.553 118.439C200.547 114.489 195.254 113.693 191.317 113.851V112.755C191.317 112.755 191.792 112.519 192.502 112.169C195.844 112.475 199.138 112.468 202.366 112.048Z" fill="#CCCCCC"/>
<path d="M202.995 112.756H190.749C190.29 112.771 190.49 111.998 190.449 111.74C190.449 111.661 190.481 111.585 190.537 111.529C190.593 111.472 190.669 111.441 190.749 111.441H202.995C203.454 111.427 203.254 112.199 203.295 112.457C203.295 112.496 203.288 112.535 203.273 112.571C203.257 112.608 203.235 112.641 203.207 112.669C203.18 112.696 203.147 112.718 203.11 112.733C203.074 112.748 203.035 112.756 202.995 112.756ZM199.724 98.4962C199.521 98.1541 198.957 98.0572 198.724 98.3792C199.653 97.6087 198.428 96.6745 197.93 97.7168C198.409 95.8232 196.291 95.2394 196.154 97.3321C195.424 96.4863 194.647 97.5212 195.013 98.3777C193.864 97.425 193.33 99.5606 194.387 100.098C195.949 100.251 200.492 101.187 199.723 98.4962H199.724Z" fill="#48A8E2"/>
<path d="M191.694 105.537C191.587 105.192 191.053 105.427 191.2 105.744C191.321 106.044 191.769 105.809 191.694 105.537ZM192.29 103.778C191.989 103.778 191.988 104.246 192.29 104.246C192.591 104.246 192.591 103.778 192.29 103.778ZM194.315 101.589C194.014 101.589 194.014 102.057 194.315 102.057C194.616 102.057 194.616 101.589 194.315 101.589ZM193.768 107.5C193.467 107.5 193.466 107.967 193.768 107.967C194.068 107.967 194.069 107.5 193.768 107.5ZM196.565 104.935C196.454 104.573 195.704 104.801 196.01 105.162C196.192 105.316 196.644 105.242 196.565 104.935ZM191.014 108.163C190.835 107.862 190.272 108.229 190.537 108.501C190.73 108.694 191.17 108.421 191.014 108.163ZM193.227 110.189C193.12 109.844 192.585 110.079 192.733 110.396C192.853 110.696 193.301 110.461 193.227 110.189ZM197.867 109.176C197.729 108.862 197.294 109.125 197.44 109.411C197.578 109.725 198.013 109.461 197.867 109.176ZM194.315 105.037C194.014 105.037 194.014 105.504 194.315 105.504C194.616 105.504 194.616 105.037 194.315 105.037ZM192.454 101.972C192.153 101.972 192.153 102.44 192.454 102.44C192.755 102.44 192.756 101.972 192.454 101.972ZM199.157 101.155C199.044 100.786 198.43 101.073 198.711 101.383C198.88 101.55 199.229 101.409 199.157 101.155ZM195.635 103.348C195.522 102.978 194.908 103.265 195.189 103.575C195.359 103.741 195.707 103.602 195.635 103.348ZM195.957 107.39C195.656 107.39 195.655 107.858 195.957 107.858C196.258 107.858 196.258 107.39 195.957 107.39ZM196.511 110.135C196.41 109.827 196.008 109.992 195.95 110.244C195.872 110.512 196.273 110.658 196.385 110.406C196.384 110.41 196.382 110.414 196.38 110.418C196.384 110.411 196.387 110.405 196.391 110.399C196.439 110.377 196.478 110.338 196.5 110.289C196.522 110.241 196.526 110.186 196.511 110.135ZM201.43 106.077C201.129 106.077 201.129 106.544 201.43 106.544C201.731 106.544 201.731 106.077 201.43 106.077ZM201.37 109.395C201.232 109.081 200.797 109.344 200.943 109.63C201.081 109.944 201.516 109.681 201.37 109.395ZM199.138 106.851C199.026 106.484 198.343 106.741 198.638 107.078C198.813 107.238 199.213 107.132 199.138 106.851ZM199.783 109.833C199.659 109.519 199.174 109.792 199.301 110.068C199.424 110.381 199.909 110.108 199.783 109.833ZM202.908 107.39C202.607 107.39 202.606 107.858 202.908 107.858C203.209 107.858 203.209 107.39 202.908 107.39ZM200.609 103.231C200.308 103.231 200.307 103.698 200.609 103.698C200.91 103.698 200.911 103.231 200.609 103.231ZM198.31 103.723C198.009 103.723 198.009 104.191 198.31 104.191C198.611 104.191 198.612 103.723 198.31 103.723ZM200.773 107.719C200.472 107.719 200.472 108.186 200.773 108.186C201.074 108.186 201.075 107.719 200.773 107.719ZM196.949 102.363C196.836 101.993 196.222 102.28 196.503 102.59C196.673 102.756 197.02 102.616 196.949 102.363ZM199.679 101.644C199.378 101.644 199.377 102.111 199.679 102.111C199.98 102.111 199.98 101.644 199.679 101.644ZM196.169 101.121C195.868 101.121 195.868 101.589 196.169 101.589C196.47 101.589 196.47 101.121 196.169 101.121ZM202.744 104.654C202.443 104.654 202.442 105.122 202.744 105.122C203.045 105.122 203.045 104.654 202.744 104.654ZM192.29 108.704C191.989 108.704 191.988 109.172 192.29 109.172C192.591 109.172 192.591 108.704 192.29 108.704ZM191.683 110.38C191.559 110.067 191.074 110.339 191.2 110.615C191.324 110.928 191.809 110.656 191.683 110.38ZM190.484 105.913C190.183 105.913 190.182 106.38 190.484 106.38C190.785 106.38 190.785 105.913 190.484 105.913Z" fill="#B5D3E5"/>
<path d="M129.223 1.29199H105.279C104.099 1.29209 102.968 1.76076 102.134 2.59491C101.3 3.42905 100.831 4.56035 100.831 5.73998V17.5527C100.831 18.7323 101.3 19.8636 102.134 20.6978C102.968 21.5319 104.099 22.0006 105.279 22.0007V25.5058L109.601 22.0007H129.223C129.807 22.0006 130.385 21.8856 130.925 21.662C131.465 21.4385 131.955 21.1108 132.368 20.6978C132.781 20.2848 133.108 19.7944 133.332 19.2548C133.555 18.7151 133.671 18.1368 133.67 17.5527V5.73998C133.671 4.56037 133.202 3.42907 132.368 2.59492C131.534 1.76077 130.402 1.29209 129.223 1.29199Z" fill="#D1D3D4"/>
<path d="M127.072 0H103.128C101.948 7.59011e-05 100.816 0.468756 99.9824 1.30294C99.1482 2.13713 98.6796 3.2685 98.6796 4.44818V16.2607C98.6797 17.4403 99.1483 18.5717 99.9824 19.4058C100.817 20.24 101.948 20.7086 103.128 20.7087V24.214L107.449 20.7087H127.072C127.656 20.7087 128.234 20.5936 128.774 20.3701C129.313 20.1465 129.804 19.8189 130.217 19.4058C130.63 18.9928 130.957 18.5025 131.181 17.9628C131.404 17.4232 131.519 16.8448 131.519 16.2607V4.44818C131.519 3.86406 131.404 3.28565 131.181 2.74598C130.957 2.20631 130.63 1.71595 130.217 1.3029C129.804 0.889844 129.313 0.562186 128.774 0.338634C128.234 0.115082 127.656 1.25264e-05 127.072 0Z" fill="#6DA7CA"/>
<path d="M102.148 9.65303C102.148 9.41964 102.217 9.19148 102.347 8.99741C102.476 8.80334 102.661 8.65206 102.876 8.56272C103.092 8.47338 103.329 8.44999 103.558 8.4955C103.787 8.54101 103.997 8.65338 104.162 8.81839C104.327 8.98341 104.44 9.19366 104.485 9.42257C104.531 9.65147 104.507 9.88873 104.418 10.1044C104.329 10.32 104.177 10.5043 103.983 10.634C103.789 10.7636 103.561 10.8328 103.328 10.8328C103.015 10.8328 102.715 10.7085 102.494 10.4873C102.272 10.266 102.148 9.96596 102.148 9.65303ZM105.924 9.65303C105.924 9.41964 105.993 9.19148 106.122 8.99741C106.252 8.80334 106.436 8.65206 106.652 8.56272C106.868 8.47338 107.105 8.44999 107.334 8.4955C107.563 8.54101 107.773 8.65338 107.938 8.81839C108.103 8.98341 108.215 9.19366 108.261 9.42257C108.307 9.65147 108.283 9.88873 108.194 10.1044C108.105 10.32 107.953 10.5043 107.759 10.634C107.565 10.7636 107.337 10.8328 107.104 10.8328C106.791 10.8328 106.491 10.7085 106.269 10.4873C106.048 10.266 105.924 9.96595 105.924 9.65303H105.924ZM109.699 9.65303C109.699 9.41965 109.768 9.19149 109.898 8.99742C110.028 8.80335 110.212 8.65208 110.428 8.56273C110.643 8.47339 110.88 8.44999 111.109 8.49549C111.338 8.54099 111.548 8.65335 111.714 8.81836C111.879 8.98337 111.991 9.19361 112.037 9.42251C112.082 9.6514 112.059 9.88866 111.969 10.1043C111.88 10.3199 111.729 10.5042 111.535 10.6339C111.341 10.7636 111.113 10.8328 110.879 10.8328C110.566 10.8328 110.266 10.7085 110.045 10.4873C109.824 10.266 109.699 9.96596 109.699 9.65303ZM113.475 9.65303C113.475 9.41962 113.544 9.19143 113.674 8.99733C113.804 8.80323 113.988 8.65193 114.203 8.56257C114.419 8.4732 114.656 8.4498 114.885 8.4953C115.114 8.5408 115.325 8.65317 115.49 8.8182C115.655 8.98322 115.767 9.19349 115.813 9.42241C115.858 9.65134 115.835 9.88863 115.746 10.1043C115.656 10.3199 115.505 10.5042 115.311 10.6339C115.117 10.7636 114.889 10.8328 114.655 10.8328C114.342 10.8328 114.042 10.7085 113.821 10.4873C113.6 10.266 113.475 9.96596 113.475 9.65303ZM117.251 9.65303C117.251 9.41964 117.32 9.19148 117.45 8.9974C117.579 8.80332 117.764 8.65205 117.979 8.56272C118.195 8.47338 118.432 8.44999 118.661 8.4955C118.89 8.54102 119.1 8.6534 119.265 8.81843C119.43 8.98345 119.543 9.19372 119.588 9.42262C119.634 9.65153 119.61 9.8888 119.521 10.1044C119.432 10.32 119.28 10.5043 119.086 10.634C118.892 10.7637 118.664 10.8329 118.431 10.8328C118.118 10.8328 117.818 10.7085 117.597 10.4872C117.375 10.266 117.251 9.96593 117.251 9.65303ZM121.027 9.65303C121.027 9.41965 121.096 9.19151 121.226 8.99746C121.355 8.80341 121.54 8.65216 121.755 8.56285C121.971 8.47354 122.208 8.45018 122.437 8.49572C122.666 8.54126 122.876 8.65365 123.041 8.81869C123.206 8.98373 123.319 9.19399 123.364 9.42289C123.41 9.65179 123.386 9.88904 123.297 10.1046C123.208 10.3202 123.056 10.5045 122.862 10.6341C122.668 10.7637 122.44 10.8329 122.207 10.8328C121.894 10.8328 121.594 10.7084 121.372 10.4872C121.151 10.2659 121.027 9.9659 121.027 9.65303ZM124.802 9.65303C124.802 9.41969 124.872 9.19159 125.001 8.99757C125.131 8.80355 125.315 8.65233 125.531 8.56304C125.746 8.47374 125.984 8.45038 126.212 8.4959C126.441 8.54142 126.652 8.65379 126.817 8.81879C126.982 8.98378 127.094 9.194 127.139 9.42286C127.185 9.65172 127.162 9.88894 127.072 10.1045C126.983 10.3201 126.832 10.5044 126.638 10.634C126.444 10.7636 126.216 10.8328 125.982 10.8328C125.669 10.8328 125.369 10.7084 125.148 10.4872C124.927 10.266 124.803 9.96591 124.802 9.65303Z" fill="white"/>
<path d="M140.577 27.8877H160.491C161.472 27.8877 162.413 28.2774 163.107 28.9711C163.801 29.6648 164.19 30.6057 164.191 31.5868V41.4117C164.19 42.3928 163.801 43.3337 163.107 44.0274C162.413 44.7211 161.472 45.1109 160.491 45.111V48.0264L156.897 45.111H140.577C140.091 45.1109 139.61 45.0152 139.161 44.8293C138.712 44.6434 138.304 44.3709 137.961 44.0274C137.618 43.6839 137.345 43.2761 137.159 42.8273C136.973 42.3785 136.878 41.8974 136.878 41.4117V31.5868C136.878 31.101 136.973 30.62 137.159 30.1712C137.345 29.7225 137.618 29.3147 137.961 28.9712C138.304 28.6277 138.712 28.3552 139.161 28.1693C139.61 27.9834 140.091 27.8877 140.577 27.8877Z" fill="#D1D3D4"/>
<path d="M139.449 26.6826H159.363C159.849 26.6826 160.33 26.7783 160.779 26.9642C161.228 27.1502 161.635 27.4227 161.979 27.7662C162.322 28.1097 162.595 28.5175 162.781 28.9663C162.967 29.4151 163.062 29.8961 163.062 30.3819V40.2064C163.062 40.6922 162.967 41.1733 162.781 41.6221C162.595 42.071 162.322 42.4788 161.979 42.8224C161.636 43.1659 161.228 43.4384 160.779 43.6244C160.33 43.8103 159.849 43.906 159.363 43.906V46.821L155.769 43.9059H139.449C138.963 43.9059 138.482 43.8102 138.033 43.6243C137.584 43.4384 137.176 43.1659 136.833 42.8223C136.489 42.4788 136.217 42.0709 136.031 41.6221C135.845 41.1732 135.749 40.6921 135.749 40.2063V30.382C135.749 29.4009 136.139 28.4599 136.833 27.7662C137.527 27.0725 138.468 26.6827 139.449 26.6827V26.6826Z" fill="#48A8E2"/>
<path d="M150.816 37.5701H148.429C148.266 35.1088 150.185 35.2738 150.715 33.7822C150.64 32.5602 148.757 32.8881 148.781 34.3789L146.343 34.0774C146.517 29.452 154.894 30.5457 152.989 34.7562C152.604 35.5855 150.647 36.3715 150.816 37.5701ZM148.347 38.2045H150.904V40.4598H148.347V38.2045Z" fill="white"/>
</svg>
