<svg width="16" height="18" viewBox="0 0 16 18" fill="none" xmlns="http://www.w3.org/2000/svg">
<path fill-rule="evenodd" clip-rule="evenodd" d="M14.2027 5.82486C14.5607 5.85433 14.8277 6.16726 14.7991 6.52526C14.7939 6.5842 14.3241 12.4015 14.0536 14.8417C13.8854 16.356 12.8851 17.2775 11.3751 17.3052C10.2196 17.3251 9.10487 17.3364 8.01526 17.3364C6.8407 17.3364 5.69561 17.3234 4.56266 17.3C3.11332 17.2714 2.11039 16.3317 1.94656 14.8477C1.67351 12.3859 1.20628 6.58334 1.20195 6.52526C1.17248 6.16726 1.43946 5.85346 1.79746 5.82486C2.15027 5.81532 2.46926 6.06324 2.49787 6.42037C2.50063 6.458 2.69164 8.82759 2.89978 11.1721L2.94159 11.64C3.04642 12.8053 3.15269 13.9251 3.23901 14.7047C3.33176 15.5481 3.78685 15.9833 4.58953 15.9997C6.75661 16.0457 8.96791 16.0483 11.3517 16.0049C12.2047 15.9885 12.6658 15.562 12.7612 14.6986C13.0299 12.2767 13.498 6.47932 13.5032 6.42037C13.5318 6.06324 13.8482 5.81359 14.2027 5.82486ZM9.83456 0C10.6303 0 11.3299 0.536569 11.5353 1.30545L11.7555 2.39853C11.8266 2.75685 12.1411 3.01853 12.5052 3.02428L15.3499 3.02438C15.7087 3.02438 16 3.31564 16 3.6745C16 4.03337 15.7087 4.32463 15.3499 4.32463L12.5306 4.3245C12.5262 4.32459 12.5218 4.32463 12.5174 4.32463L12.4963 4.32376L3.50341 4.32452C3.49642 4.32459 3.48942 4.32463 3.48241 4.32463L3.46906 4.32376L0.650125 4.32463C0.291256 4.32463 0 4.03337 0 3.6745C0 3.31564 0.291256 3.02438 0.650125 3.02438L3.4942 3.02351L3.58177 3.01797C3.90795 2.97565 4.17903 2.72792 4.24523 2.39853L4.45587 1.34446C4.66997 0.53657 5.36951 0 6.16526 0H9.83456ZM9.83456 1.30025H6.16526C5.95722 1.30025 5.77432 1.43981 5.72144 1.64005L5.51947 2.65424C5.4938 2.7827 5.45642 2.9065 5.40859 3.02461H10.5915C10.5436 2.9065 10.5061 2.7827 10.4804 2.65424L10.2697 1.60017C10.2255 1.43981 10.0426 1.30025 9.83456 1.30025Z" fill="black"/>
</svg>
