<svg width="24" height="24" viewBox="0 0 24 24" fill="none" xmlns="http://www.w3.org/2000/svg">
<path d="M20.5 10.19H17.61C15.24 10.19 13.31 8.26 13.31 5.89V3C13.31 2.45 12.86 2 12.31 2H8.07C4.99 2 2.5 4 2.5 7.57V16.43C2.5 20 4.99 22 8.07 22H15.93C19.01 22 21.5 20 21.5 16.43V11.19C21.5 10.64 21.05 10.19 20.5 10.19Z" fill="url(#paint0_linear_425_2123)"/>
<path d="M15.8001 2.21048C15.3901 1.80048 14.6801 2.08048 14.6801 2.65048V6.14048C14.6801 7.60048 15.9201 8.81048 17.4301 8.81048C18.3801 8.82048 19.7001 8.82048 20.8301 8.82048C21.4001 8.82048 21.7001 8.15048 21.3001 7.75048C19.8601 6.30048 17.2801 3.69048 15.8001 2.21048Z" fill="url(#paint1_linear_425_2123)"/>
<path d="M13.5 13.75H7.5C7.09 13.75 6.75 13.41 6.75 13C6.75 12.59 7.09 12.25 7.5 12.25H13.5C13.91 12.25 14.25 12.59 14.25 13C14.25 13.41 13.91 13.75 13.5 13.75Z" fill="white"/>
<path d="M11.5 17.75H7.5C7.09 17.75 6.75 17.41 6.75 17C6.75 16.59 7.09 16.25 7.5 16.25H11.5C11.91 16.25 12.25 16.59 12.25 17C12.25 17.41 11.91 17.75 11.5 17.75Z" fill="white"/>
<defs>
<linearGradient id="paint0_linear_425_2123" x1="2.5" y1="1.90741" x2="15.0485" y2="25.3594" gradientUnits="userSpaceOnUse">
<stop stop-color="#93FB9D"/>
<stop offset="1" stop-color="#09C7FB"/>
</linearGradient>
<linearGradient id="paint1_linear_425_2123" x1="14.6801" y1="1.98412" x2="18.8267" y2="10.1396" gradientUnits="userSpaceOnUse">
<stop stop-color="#93FB9D"/>
<stop offset="1" stop-color="#09C7FB"/>
</linearGradient>
</defs>
</svg>
