<svg width="17" height="17" viewBox="0 0 17 17" fill="none" xmlns="http://www.w3.org/2000/svg">
<path fill-rule="evenodd" clip-rule="evenodd" d="M8.14025 1.44278C8.4335 1.44278 8.6715 1.68078 8.6715 1.97403C8.6715 2.26728 8.4335 2.50528 8.14025 2.50528H5.49179C3.66146 2.50528 2.47925 3.75903 2.47925 5.69915V11.5882C2.47925 13.5284 3.66146 14.7821 5.49179 14.7821H11.7421C13.5725 14.7821 14.7554 13.5284 14.7554 11.5882V8.73507C14.7554 8.44182 14.9934 8.20382 15.2866 8.20382C15.5799 8.20382 15.8179 8.44182 15.8179 8.73507V11.5882C15.8179 14.134 14.1795 15.8446 11.7421 15.8446H5.49179C3.05441 15.8446 1.41675 14.134 1.41675 11.5882V5.69915C1.41675 3.1534 3.05441 1.44278 5.49179 1.44278H8.14025ZM14.3095 2.06512L15.1716 2.92716C15.5916 3.34649 15.8225 3.90395 15.8218 4.49753C15.8218 5.09112 15.5909 5.64787 15.1716 6.06649L9.85271 11.3854C9.46242 11.7757 8.94251 11.991 8.39001 11.991H5.73659C5.59351 11.991 5.45609 11.9329 5.35621 11.8302C5.25634 11.7282 5.2018 11.5901 5.20534 11.4463L5.27192 8.76949C5.28538 8.23682 5.50001 7.73603 5.87684 7.35849L11.1709 2.06512C12.0365 1.20095 13.444 1.20095 14.3095 2.06512ZM10.7349 4.00312L6.62838 8.11003C6.44492 8.29349 6.3408 8.53716 6.33442 8.7957L6.2813 10.9285H8.39001C8.65917 10.9285 8.91134 10.8244 9.10188 10.6338L13.2332 6.50141L10.7349 4.00312ZM11.9218 2.81666L11.4857 3.25158L13.984 5.75058L14.4208 5.31495C14.6389 5.09678 14.7593 4.80637 14.7593 4.49753C14.7593 4.18799 14.6389 3.89687 14.4208 3.6787L13.5587 2.81666C13.1075 2.36687 12.3737 2.36687 11.9218 2.81666Z" fill="black"/>
</svg>
