<svg width="438" height="174" viewBox="0 0 438 174" fill="none" xmlns="http://www.w3.org/2000/svg">
<g clip-path="url(#clip0_306_670)">
<g clip-path="url(#clip1_306_670)">
<rect y="42" width="438" height="132" rx="32" fill="#F05454"/>
<circle cx="33.9429" cy="123.829" r="6.82918" fill="#AF2D2D"/>
<circle cx="79" cy="114" r="13" fill="#AF2D2D"/>
<path fill-rule="evenodd" clip-rule="evenodd" d="M32.5511 136.439C32.4191 135.778 31.9357 135.243 31.2918 135.044V135.044C30.5686 134.821 29.7827 135.065 29.3124 135.658L26.6097 139.065C24.7585 141.398 21.7904 142.502 18.8235 142.237C11.5519 141.589 4.04597 142.17 -3.42021 144.141C-37.9518 153.255 -58.5567 188.637 -49.4425 223.169C-40.3282 257.7 -4.9463 278.305 29.5853 269.191C64.1169 260.077 84.7218 224.695 75.6076 190.163C70.3813 170.362 56.5177 155.14 39.13 147.475C36.2342 146.198 34.0008 143.697 33.3809 140.593L32.5511 136.439Z" fill="#AF2D2D"/>
<circle cx="21.5475" cy="91.5476" r="3.49096" transform="rotate(-22.0902 21.5475 91.5476)" fill="#AF2D2D"/>
</g>
<path fill-rule="evenodd" clip-rule="evenodd" d="M67.8057 67.6794C68.1346 67.4706 68.4935 67.3124 68.8667 67.2006C83.012 62.962 93.3202 49.8448 93.3202 34.32C93.3202 15.3656 77.9546 0 59.0002 0C40.0458 0 24.6802 15.3656 24.6802 34.32C24.6802 47.8227 32.478 59.5042 43.816 65.1068C43.8288 65.1132 43.8236 65.1326 43.8093 65.1315V65.1315C43.8002 65.1308 43.7932 65.1396 43.796 65.1483L46.904 74.9903C47.6949 77.4949 50.644 78.5705 52.8616 77.1631L67.8057 67.6794Z" fill="#AF2D2D"/>
<path d="M68.8137 27.6379C69.6421 26.8095 69.6421 25.4664 68.8137 24.638L68.3622 24.1865C67.5338 23.3581 66.1907 23.3581 65.3623 24.1865L59.0002 30.5486L52.6381 24.1865C51.8097 23.3581 50.4666 23.3581 49.6382 24.1865L49.1867 24.638C48.3583 25.4664 48.3583 26.8095 49.1867 27.6379L55.5488 34L49.1867 40.362C48.3583 41.1904 48.3583 42.5336 49.1867 43.362L49.6382 43.8134C50.4666 44.6419 51.8097 44.6419 52.6381 43.8134L59.0002 37.4514L65.3623 43.8134C66.1907 44.6419 67.5338 44.6419 68.3622 43.8134L68.8137 43.362C69.6421 42.5336 69.6421 41.1904 68.8137 40.362L62.4516 34L68.8137 27.6379Z" fill="white"/>
</g>
<defs>
<clipPath id="clip0_306_670">
<rect width="438" height="174" fill="white"/>
</clipPath>
<clipPath id="clip1_306_670">
<rect y="42" width="438" height="132" rx="32" fill="white"/>
</clipPath>
</defs>
</svg>
