<svg width="15" height="14" viewBox="0 0 15 14" fill="none" xmlns="http://www.w3.org/2000/svg">
<path d="M6.56473 14C6.2998 14 6.07757 13.916 5.89804 13.748C5.71851 13.58 5.62906 13.3723 5.62968 13.125V7.875L0.206422 1.4C-0.0273395 1.10833 -0.0625594 0.802083 0.100762 0.48125C0.264083 0.160417 0.548648 0 0.954458 0H14.0451C14.4503 0 14.7348 0.160417 14.8988 0.48125C15.0627 0.802083 15.0275 1.10833 14.7931 1.4L9.36986 7.875V13.125C9.36986 13.3729 9.2801 13.5809 9.10057 13.7489C8.92104 13.9169 8.69912 14.0006 8.43482 14H6.56473Z" fill="#376299"/>
</svg>
