<svg width="23" height="24" viewBox="0 0 23 24" fill="none" xmlns="http://www.w3.org/2000/svg">
<path d="M15.9177 0.832031C19.6815 0.832031 22.21 3.47293 22.21 7.40256V16.4715C22.21 20.4012 19.6815 23.0421 15.9166 23.0421H6.2923C2.5285 23.0421 0 20.4012 0 16.4715V7.40256C0 3.47293 2.5285 0.832031 6.2923 0.832031H15.9177ZM17.1424 12.5479C15.952 11.8053 15.0329 12.8481 14.785 13.1816C14.546 13.5037 14.3406 13.8589 14.1239 14.2142C13.5946 15.0909 12.9883 16.1017 11.9386 16.6896C10.4132 17.5342 9.25515 16.7561 8.42209 16.19C8.10942 15.9791 7.80568 15.7797 7.50305 15.6467C6.7571 15.3247 6.08597 15.6914 5.08988 16.9566C4.56726 17.6179 4.04912 18.2734 3.52427 18.9267C3.21048 19.3175 3.2853 19.9203 3.70852 20.1816C4.38412 20.5976 5.20824 20.8211 6.13957 20.8211H15.4986C16.0268 20.8211 16.5561 20.7489 17.0608 20.5838C18.1976 20.2125 19.0999 19.3622 19.5712 18.2391C19.9687 17.2947 20.1619 16.1487 19.79 15.1952C19.6661 14.8789 19.4807 14.5844 19.2205 14.3254C18.5382 13.6481 17.9006 13.0155 17.1424 12.5479ZM7.21699 5.27404C5.686 5.27404 4.44201 6.51972 4.44201 8.05029C4.44201 9.58086 5.686 10.8265 7.21699 10.8265C8.74686 10.8265 9.99198 9.58086 9.99198 8.05029C9.99198 6.51972 8.74686 5.27404 7.21699 5.27404Z" fill="#005C94"/>
</svg>
