<svg width="19" height="18" viewBox="0 0 19 18" fill="none" xmlns="http://www.w3.org/2000/svg">
<path d="M17.5349 1.59133C17.0707 1.08683 16.5194 0.686629 15.9128 0.413583C15.3061 0.140537 14.6558 0 13.9991 0C13.3424 0 12.6921 0.140537 12.0854 0.413583C11.4787 0.686629 10.9275 1.08683 10.4633 1.59133L9.49976 2.63785L8.53626 1.59133C7.5985 0.572757 6.32662 0.000527962 5.00043 0.000527973C3.67423 0.000527984 2.40235 0.572757 1.46459 1.59133C0.526829 2.6099 9.88093e-09 3.99139 0 5.43187C-9.88093e-09 6.87235 0.526829 8.25383 1.46459 9.2724L2.42808 10.3189L9.49976 18L16.5714 10.3189L17.5349 9.2724C17.9994 8.76814 18.3678 8.16942 18.6192 7.51045C18.8706 6.85148 19 6.14517 19 5.43187C19 4.71857 18.8706 4.01225 18.6192 3.35328C18.3678 2.69431 17.9994 2.09559 17.5349 1.59133Z" fill="#005C94"/>
</svg>
