<svg width="26" height="26" viewBox="0 0 26 26" fill="none" xmlns="http://www.w3.org/2000/svg">
<g clip-path="url(#clip0_425_2232)">
<path d="M22.153 22.1536H18.3006V16.1205C18.3006 14.6818 18.2749 12.8298 16.297 12.8298C14.2905 12.8298 13.9835 14.3974 13.9835 16.0158V22.1532H10.1312V9.74671H13.8294V11.4422H13.8812C14.2513 10.8094 14.7861 10.2888 15.4287 9.93584C16.0713 9.58291 16.7975 9.41088 17.5302 9.43806C21.4347 9.43806 22.1546 12.0064 22.1546 15.3476L22.153 22.1536ZM5.78435 8.05092C4.54965 8.05113 3.54855 7.05033 3.54835 5.81563C3.54815 4.58094 4.54884 3.57984 5.78354 3.57963C7.01823 3.57933 8.01933 4.58013 8.01954 5.81482C8.01964 6.40775 7.78422 6.97643 7.36504 7.39578C6.94586 7.81513 6.37728 8.05079 5.78435 8.05092ZM7.71058 22.1537H3.85415V9.74671H7.71048V22.1536L7.71058 22.1537ZM24.0735 0.0018923H1.91837C0.871264 -0.00988895 0.0125527 0.828916 -0.000244141 1.87603V24.1236C0.0121465 25.1712 0.870756 26.0108 1.91827 25.9999H24.0735C25.1233 26.0129 25.9852 25.1732 25.9998 24.1236V1.8743C25.9848 0.825158 25.1228 -0.0135452 24.0735 0.000165739" fill="#0A66C2"/>
</g>
<defs>
<clipPath id="clip0_425_2232">
<rect width="26" height="26" fill="white"/>
</clipPath>
</defs>
</svg>
