<svg width="26" height="26" viewBox="0 0 26 26" fill="none" xmlns="http://www.w3.org/2000/svg">
<g clip-path="url(#clip0_425_2234)">
<path d="M0.554805 12.844C0.554195 15.0285 1.12945 17.1615 2.22327 19.0416L0.450195 25.4652L7.07532 23.7415C8.90774 24.7313 10.9608 25.25 13.0472 25.2501H13.0527C19.9401 25.2501 25.5467 19.689 25.5496 12.8538C25.551 9.54159 24.2522 6.42703 21.8925 4.08381C19.5332 1.74078 16.3954 0.449754 13.0522 0.448242C6.1639 0.448242 0.55775 6.00902 0.554906 12.844" fill="url(#paint0_linear_425_2234)"/>
<path d="M0.108672 12.8404C0.107961 15.1035 0.703828 17.3128 1.83666 19.2602L0 25.914L6.86268 24.1286C8.75357 25.1516 10.8825 25.6909 13.0489 25.6917H13.0544C20.189 25.6917 25.997 19.9306 26 12.8507C26.0012 9.41946 24.6557 6.19294 22.2117 3.76577C19.7674 1.3389 16.5174 0.00141085 13.0544 0C5.91866 0 0.111516 5.76031 0.108672 12.8404ZM4.19555 18.9248L3.9393 18.5212C2.86213 16.8217 2.29359 14.8578 2.2944 12.8412C2.29673 6.95641 7.12339 2.16868 13.0585 2.16868C15.9327 2.16989 18.6339 3.28164 20.6655 5.29876C22.6971 7.31608 23.815 9.99771 23.8143 12.8498C23.8116 18.7346 18.9849 23.5229 13.0544 23.5229H13.0502C11.1192 23.5219 9.22533 23.0074 7.57372 22.035L7.18067 21.8037L3.10822 22.8632L4.19555 18.9247V18.9248Z" fill="url(#paint1_linear_425_2234)"/>
<path d="M9.81886 7.47219C9.57653 6.93778 9.32151 6.927 9.09107 6.91762C8.90236 6.90956 8.68664 6.91017 8.47113 6.91017C8.25541 6.91017 7.90492 6.99069 7.60866 7.31166C7.3121 7.63293 6.47644 8.4093 6.47644 9.98834C6.47644 11.5675 7.63557 13.0935 7.79716 13.3079C7.95895 13.5218 10.0349 16.8659 13.3227 18.1524C16.0551 19.2216 16.6112 19.0089 17.2042 18.9553C17.7973 18.9019 19.118 18.1792 19.3875 17.4297C19.6571 16.6803 19.6571 16.038 19.5763 15.9037C19.4954 15.77 19.2797 15.6897 18.9562 15.5293C18.6327 15.3687 17.0424 14.5923 16.7459 14.4851C16.4494 14.3781 16.2338 14.3247 16.018 14.6461C15.8023 14.9669 15.1829 15.6897 14.9941 15.9037C14.8055 16.1183 14.6167 16.145 14.2933 15.9845C13.9696 15.8234 12.9279 15.4849 11.692 14.3916C10.7304 13.5409 10.0812 12.4903 9.89249 12.1689C9.70379 11.8481 9.87228 11.6741 10.0345 11.5142C10.1798 11.3704 10.3581 11.1394 10.5199 10.9521C10.6812 10.7646 10.7351 10.6309 10.8429 10.4168C10.9509 10.2026 10.8968 10.0152 10.8161 9.85462C10.7351 9.69408 10.1065 8.10677 9.81886 7.47219Z" fill="white"/>
</g>
<defs>
<linearGradient id="paint0_linear_425_2234" x1="1255.42" y1="2502.14" x2="1255.42" y2="0.448242" gradientUnits="userSpaceOnUse">
<stop stop-color="#1FAF38"/>
<stop offset="1" stop-color="#60D669"/>
</linearGradient>
<linearGradient id="paint1_linear_425_2234" x1="1300" y1="2591.4" x2="1300" y2="0" gradientUnits="userSpaceOnUse">
<stop stop-color="#F9F9F9"/>
<stop offset="1" stop-color="white"/>
</linearGradient>
<clipPath id="clip0_425_2234">
<rect width="26" height="26" fill="white"/>
</clipPath>
</defs>
</svg>
