<svg width="49" height="49" viewBox="0 0 49 49" fill="none" xmlns="http://www.w3.org/2000/svg">
<circle cx="24.5" cy="24.5" r="24.5" fill="#005C94"/>
<path fill-rule="evenodd" clip-rule="evenodd" d="M17.712 13.7819C19.0218 13.7995 19.9552 14.7809 21.136 16.0227C21.4279 16.3287 21.7434 16.6629 22.0963 17.0147C23.8071 18.7267 23.3205 20.1232 22.9277 21.2442C22.5008 22.4672 22.1315 23.5225 24.343 25.734C26.5545 27.9455 27.6086 27.5762 28.8305 27.1458C29.9526 26.7542 31.3456 26.264 33.06 27.976C33.4082 28.3243 33.7365 28.6362 34.0414 28.9258C35.2879 30.1125 36.2728 31.0493 36.2894 32.3626C36.3022 33.4813 35.6221 34.6234 33.9429 36.3025L33.1995 35.7983L33.8292 36.4116C33.4575 36.7927 32.469 37.8081 30.533 37.8198H30.4979C27.5758 37.8198 23.7661 35.4934 19.1742 30.9028C14.5636 26.2933 12.2337 22.4719 12.2512 19.544C12.2618 17.6092 13.2761 16.6184 13.6572 16.2467L13.6898 16.2111L13.7686 16.1317C15.4513 14.4491 16.6074 13.7573 17.712 13.7819ZM17.6897 15.5408H17.6804C17.1538 15.5408 16.3541 16.0684 15.2388 17.1518L15.0149 17.3717L15.0174 17.3712C15.0174 17.3712 14.9983 17.3931 14.9657 17.4264L14.8873 17.5048C14.6035 17.7804 14.016 18.3538 14.0101 19.5533C14.0008 21.2313 15.1042 24.3469 20.4172 29.6587C25.7043 34.9447 28.8152 36.061 30.4979 36.061H30.5225C31.722 36.0539 32.2943 35.4665 32.5698 35.1839C32.6531 35.0983 32.7211 35.0338 32.7692 34.9951C33.9382 33.819 34.5362 32.9454 34.5304 32.3837C34.5233 31.8115 33.8116 31.1361 32.8278 30.1992C32.5147 29.9026 32.1747 29.5778 31.8158 29.2189C30.8848 28.2914 30.4263 28.4497 29.4121 28.8062C28.0108 29.2975 26.0913 29.9706 23.1 26.977C20.1076 23.9857 20.7783 22.0662 21.2673 20.6638C21.6214 19.6507 21.7832 19.1898 20.8534 18.2588C20.4899 17.8953 20.1627 17.5506 19.8614 17.234C18.9303 16.256 18.2584 15.549 17.6897 15.5408ZM27.7835 17.9533C30.2236 18.4271 32.1079 20.3102 32.5828 22.7516C32.6755 23.23 32.3647 23.6908 31.8887 23.7834C31.8312 23.794 31.7749 23.7998 31.7186 23.7998C31.3059 23.7998 30.9389 23.509 30.8568 23.0893C30.5191 21.3538 29.1812 20.0159 27.4481 19.6794C26.9709 19.5868 26.6601 19.1259 26.7528 18.6487C26.8454 18.1714 27.3144 17.8595 27.7835 17.9533ZM27.7132 13.7886C32.495 14.3197 36.2086 18.0286 36.7445 22.8093C36.7984 23.2924 36.4513 23.7274 35.9694 23.7813C35.9365 23.7848 35.9025 23.7872 35.8697 23.7872C35.4276 23.7872 35.0477 23.4553 34.9973 23.0062C34.5529 19.0476 31.4784 15.9754 27.5186 15.5357C27.0366 15.4818 26.6884 15.0479 26.7423 14.5648C26.7951 14.0829 27.2254 13.7276 27.7132 13.7886Z" fill="white"/>
</svg>
