<svg width="104" height="74" viewBox="0 0 104 74" fill="none" xmlns="http://www.w3.org/2000/svg">
<path fill-rule="evenodd" clip-rule="evenodd" d="M52.0509 68.7312C64.0788 68.7312 75.1431 68.9106 83.9281 69.2097C105.425 56.9226 97.9828 32.9732 90.261 19.4302C79.5223 0.577692 54.1375 -6.20045 43.6447 8.84437C29.3973 29.2585 15.6483 22.1348 8.22557 37.6448C0.802837 53.1481 12.0732 68.0135 20.1737 69.2097C28.9587 68.9106 40.0297 68.7312 52.0509 68.7312Z" fill="#EAEFF8"/>
<path fill-rule="evenodd" clip-rule="evenodd" d="M52.051 68.7314C80.6056 68.7314 103.751 69.7482 103.751 70.9975C103.751 72.2468 80.6056 73.2635 52.051 73.2635C23.4964 73.2635 0.351074 72.2468 0.351074 70.9975C0.351074 69.7415 23.4964 68.7314 52.051 68.7314Z" fill="#D2DFEE"/>
<path fill-rule="evenodd" clip-rule="evenodd" d="M68.7239 6.21985C81.6356 9.09724 89.8557 20.9723 90.6598 26.7071C90.9921 29.0595 90.3807 23.5573 83.7886 18.5401C77.9009 14.0612 73.3157 13.2306 66.3117 12.6857C61.361 12.3002 56.1777 11.6955 56.5498 8.74504C56.8488 6.41256 60.3908 4.36583 68.7239 6.21985Z" fill="white"/>
<path fill-rule="evenodd" clip-rule="evenodd" d="M18.7451 63.5081C18.1536 62.7704 17.323 62.1591 17.0837 61.2487C16.798 60.1722 17.4293 59.0358 17.2698 57.9327C17.0705 56.5439 15.7348 55.6401 15.0104 54.444C14.2994 53.2678 14.6317 52.8757 14.5652 51.5001C14.4655 49.4335 12.771 46.8219 10.5116 47.5196C8.219 48.2307 8.59113 50.3638 8.99649 51.9719C9.28224 53.1149 9.09617 53.281 8.81707 54.424C8.47816 55.8062 7.38834 57.1419 7.84686 58.4909C8.12596 59.3282 8.94333 59.8864 9.24236 60.7171C9.57463 61.654 9.16927 62.6774 9.01643 63.6609C8.68416 65.7342 9.16262 67.462 10.6644 69.1765C10.8239 69.3293 10.9967 69.4755 11.1695 69.6084C13.2827 69.4888 15.655 69.3825 18.26 69.2828L18.2799 69.2628C19.6621 67.7544 20.0741 65.1694 18.7451 63.5081Z" fill="#D2DFEE"/>
<path fill-rule="evenodd" clip-rule="evenodd" d="M11.5548 49.3875C11.5216 49.2945 11.4153 49.248 11.3223 49.2812C11.2292 49.3144 11.1827 49.4208 11.2159 49.5138C11.3953 49.9856 11.5482 50.4707 11.6744 50.9824C11.6213 50.9359 11.5681 50.8894 11.515 50.8428C11.2691 50.6435 10.99 50.4707 10.6777 50.3245C10.5846 50.2846 10.4783 50.3179 10.4384 50.4109C10.3986 50.5039 10.4318 50.6103 10.5248 50.6501C10.8106 50.783 11.0697 50.9425 11.289 51.1219C11.5017 51.2947 11.6877 51.4808 11.8406 51.6934C12.0732 52.8032 12.226 53.9927 12.3589 55.242C12.1463 54.9164 11.927 54.624 11.6877 54.3648C11.2757 53.9129 10.8172 53.5674 10.3122 53.3149C10.2258 53.2684 10.1128 53.3082 10.0729 53.3946C10.0264 53.481 10.0663 53.594 10.1527 53.6338C10.6112 53.8598 11.0365 54.1854 11.4219 54.6041C11.8074 55.0227 12.1463 55.5277 12.4586 56.1325L12.4918 56.4714C12.5716 57.2223 12.6513 57.9865 12.7443 58.7706C12.7443 58.7773 12.7443 58.7839 12.7443 58.7906C12.844 59.6079 12.957 60.4452 13.1032 61.2958C12.7111 60.6911 12.2925 60.1528 11.8406 59.6943C11.1761 59.0098 10.4517 58.4849 9.66094 58.0994C9.56791 58.0529 9.46158 58.0928 9.42171 58.1858C9.3752 58.2789 9.41507 58.3852 9.5081 58.4251C10.259 58.7839 10.9501 59.2956 11.5814 59.9402C12.2127 60.5914 12.7842 61.3822 13.2959 62.3192C13.5218 63.4422 13.8009 64.5918 14.1797 65.7548V65.7614C14.3658 66.3329 14.5718 66.9044 14.8044 67.4759C14.2528 67.0041 13.6747 66.5987 13.0567 66.2531C12.1994 65.7747 11.2757 65.4225 10.2922 65.1966C10.1926 65.1766 10.0995 65.2364 10.0729 65.3295C10.053 65.4291 10.1128 65.5222 10.2058 65.5488C11.1628 65.768 12.0532 66.1136 12.8772 66.5721C13.6946 67.0306 14.4522 67.6021 15.1499 68.2932C15.3094 68.6521 15.4822 69.0109 15.6682 69.3631L16.0669 69.3432C15.4224 68.1072 14.924 66.8778 14.5253 65.6617C14.4588 64.7779 14.5651 63.8941 14.8376 63.0103C15.1167 62.1132 15.5818 61.2161 16.2198 60.319C16.2796 60.2392 16.2597 60.1262 16.1799 60.0664C16.1002 60.0066 15.9872 60.0266 15.9274 60.1063C15.2695 61.0366 14.7911 61.967 14.4987 62.8973C14.3325 63.4289 14.2262 63.9539 14.1731 64.4855C13.6281 62.5185 13.3291 60.5981 13.1098 58.7706C13.3225 57.9931 13.5617 57.3352 13.8209 56.797C14.08 56.2587 14.3658 55.8467 14.6714 55.561C14.7445 55.4945 14.7445 55.3749 14.6781 55.3018C14.6116 55.2287 14.492 55.2287 14.4189 55.2952C14.08 55.6141 13.7677 56.066 13.4886 56.6375C13.3158 56.9963 13.1497 57.4017 12.9968 57.8602C12.9437 57.3751 12.8972 56.8967 12.844 56.4315L12.8041 56.066C12.8041 56.0594 12.8041 56.0527 12.8041 56.0461C12.5516 53.5807 12.2925 51.3147 11.5548 49.3875Z" fill="white"/>
<path fill-rule="evenodd" clip-rule="evenodd" d="M12.678 64.4861C12.0467 64.1472 11.2892 63.9677 10.8506 63.4029C10.3322 62.7384 10.4386 61.7615 9.99998 61.0372C9.44842 60.1268 8.25228 59.8942 7.3884 59.2762C6.54445 58.6648 6.65742 58.2927 6.20555 57.3557C5.52773 55.9469 3.56739 54.6245 2.20511 55.7874C0.81626 56.9637 1.71337 58.3392 2.46428 59.336C3.00254 60.047 2.9228 60.2198 3.069 61.097C3.24177 62.1602 2.88293 63.4162 3.60061 64.2203C4.04584 64.7186 4.78347 64.8648 5.23534 65.3566C5.74703 65.9148 5.76696 66.7388 5.94638 67.4764C6.19226 68.4466 6.61091 69.2308 7.28207 69.8621C9.08958 69.7225 11.2161 69.5962 13.615 69.4833C13.8011 69.2175 13.9472 68.9317 14.0536 68.6327C14.5719 67.1707 14.0934 65.2503 12.678 64.4861Z" fill="#C5DEF8"/>
<path fill-rule="evenodd" clip-rule="evenodd" d="M3.48756 56.7761C3.4344 56.7229 3.34801 56.7229 3.29485 56.7695C3.24168 56.8226 3.24169 56.909 3.2882 56.9622C3.55401 57.2346 3.79988 57.5336 4.04576 57.8526C3.9926 57.8327 3.94608 57.8194 3.89292 57.8061C3.66033 57.7397 3.41446 57.7064 3.1553 57.6931C3.0822 57.6931 3.01575 57.7463 3.01575 57.826C3.01575 57.8991 3.06891 57.9656 3.14865 57.9656C3.38788 57.9722 3.61382 58.0121 3.81982 58.0653C4.01918 58.1184 4.20524 58.1982 4.37137 58.2979C4.86312 59.0023 5.32164 59.7864 5.78681 60.617C5.54094 60.4509 5.30171 60.3114 5.05583 60.205C4.63718 60.0123 4.21189 59.906 3.78659 59.8794C3.7135 59.8728 3.64704 59.9326 3.6404 60.0057C3.63375 60.0788 3.69356 60.1452 3.76666 60.1519C4.15208 60.1718 4.54415 60.2715 4.93622 60.4509C5.32829 60.6303 5.72036 60.8828 6.10578 61.2085L6.23204 61.4344C6.5045 61.9328 6.79024 62.4445 7.08928 62.9628C7.08928 62.9695 7.09592 62.9761 7.09592 62.9761C7.40825 63.5144 7.73386 64.0659 8.08606 64.6175C7.63418 64.3118 7.18231 64.0659 6.73043 63.8732C6.06591 63.5941 5.40803 63.4413 4.74351 63.408C4.67041 63.4014 4.60396 63.4612 4.59731 63.5409C4.59067 63.614 4.65047 63.6805 4.73022 63.6871C5.36151 63.7137 5.99281 63.8666 6.62411 64.1324C7.25541 64.3982 7.8867 64.777 8.52465 65.282C9.01639 65.9997 9.55466 66.7174 10.1594 67.4085C10.4584 67.7474 10.7707 68.0863 11.103 68.4185C10.578 68.2524 10.0531 68.1394 9.52143 68.0863C8.78381 68.0065 8.0329 68.0331 7.28199 68.166C7.20889 68.1793 7.15573 68.2524 7.16902 68.3255C7.18231 68.3986 7.25541 68.4518 7.3285 68.4385C8.05948 68.3122 8.78381 68.2856 9.49485 68.3587C10.1992 68.4318 10.897 68.6113 11.5881 68.8837C11.8273 69.103 12.0732 69.3223 12.3324 69.5349L12.7444 69.515C11.8473 68.7973 11.0698 68.0331 10.3787 67.2423C10.0663 66.6443 9.88027 65.9997 9.81382 65.3019C9.74737 64.5909 9.80053 63.8333 9.97331 63.016C9.9866 62.9429 9.94008 62.8698 9.86699 62.8498C9.79389 62.8366 9.72079 62.8831 9.70085 62.9562C9.51479 63.8001 9.46163 64.5909 9.53472 65.3285C9.57459 65.7472 9.66098 66.1459 9.7806 66.5313C8.81704 65.3219 8.03955 64.0726 7.3418 62.8631C7.26205 62.2584 7.22883 61.7334 7.25541 61.2816C7.28199 60.8297 7.35508 60.4576 7.48134 60.1652C7.51457 60.0987 7.48135 60.0123 7.40825 59.9857C7.3418 59.9525 7.25541 59.9857 7.22883 60.0588C7.08928 60.3845 7.00289 60.7832 6.97631 61.2683C6.96302 61.5673 6.96966 61.8996 6.99624 62.2651C6.81682 61.9461 6.6374 61.6271 6.46462 61.3148L6.33172 61.0689C6.33172 61.0623 6.32507 61.0623 6.32507 61.0556C5.42132 59.401 4.57073 57.8991 3.48756 56.7761Z" fill="white"/>
<path fill-rule="evenodd" clip-rule="evenodd" d="M83.0776 62.8101C83.7222 62.006 84.6259 61.3415 84.8917 60.3447C85.204 59.1685 84.5129 57.9325 84.6857 56.7297C84.8984 55.2146 86.3603 54.2311 87.1511 52.922C87.9286 51.6394 87.5631 51.2075 87.6362 49.7123C87.7425 47.4529 89.5965 44.6088 92.0619 45.373C94.5672 46.1505 94.1552 48.4763 93.7166 50.2307C93.4043 51.48 93.6103 51.6594 93.916 52.9087C94.2814 54.4172 95.4709 55.8791 94.9792 57.3477C94.6735 58.2581 93.7764 58.8695 93.4574 59.7799C93.0919 60.8032 93.5372 61.9196 93.7033 62.9895C94.0621 65.2555 93.5438 67.1361 91.9024 69.0034C91.7031 69.1962 91.4971 69.3689 91.2778 69.5284C89.0051 69.4154 86.4666 69.3091 83.7022 69.2161C83.6624 69.1762 83.6291 69.1363 83.5893 69.0965C82.0808 67.4418 81.6289 64.6176 83.0776 62.8101Z" fill="#D2DFEE"/>
<path fill-rule="evenodd" clip-rule="evenodd" d="M90.9256 47.3997C90.9655 47.3 91.0785 47.2469 91.1781 47.2868C91.2778 47.3266 91.331 47.4396 91.2911 47.5393C91.0984 48.051 90.9323 48.5892 90.7927 49.1408C90.8525 49.0876 90.9057 49.0411 90.9655 48.9879C91.2313 48.7753 91.537 48.5826 91.8825 48.4231C91.9822 48.3766 92.1018 48.4164 92.1483 48.5161C92.1949 48.6158 92.155 48.7354 92.0553 48.7819C91.743 48.9281 91.4639 49.1009 91.218 49.3003C90.9854 49.4863 90.7861 49.6923 90.6133 49.9249C90.3608 51.1343 90.1946 52.4302 90.0484 53.7991C90.2744 53.4402 90.5203 53.1213 90.7794 52.8422C91.2313 52.3504 91.7297 51.9716 92.2812 51.6992C92.3809 51.6527 92.5005 51.6925 92.5471 51.7856C92.5936 51.8853 92.5537 52.0049 92.4607 52.0514C91.9556 52.3039 91.4971 52.6561 91.0785 53.108C90.6598 53.5599 90.2877 54.1181 89.9488 54.7759L89.9089 55.1481C89.8225 55.9654 89.7361 56.8027 89.6364 57.6533C89.6364 57.66 89.6364 57.6733 89.6364 57.6799C89.5301 58.5704 89.4039 59.4874 89.251 60.4111C89.6763 59.7532 90.1415 59.1684 90.6332 58.6634C91.3576 57.9191 92.1483 57.341 93.0122 56.929C93.1119 56.8825 93.2315 56.9223 93.278 57.022C93.3246 57.1217 93.2847 57.2413 93.185 57.2878C92.3676 57.6799 91.6101 58.2315 90.919 58.9425C90.2345 59.6535 89.6099 60.5174 89.0517 61.5341C88.8058 62.7635 88.5001 64.0128 88.0881 65.2821V65.2887C87.8887 65.9067 87.6562 66.5314 87.4036 67.1627C88.0017 66.651 88.6397 66.2057 89.3108 65.827C90.2478 65.302 91.2579 64.9166 92.3278 64.6707C92.4341 64.6441 92.5404 64.7106 92.567 64.8169C92.5936 64.9232 92.5271 65.0295 92.4208 65.0561C91.3775 65.2953 90.4073 65.6675 89.5035 66.1725C88.6131 66.6709 87.7824 67.2956 87.0249 68.0531C86.8388 68.4718 86.6394 68.8838 86.4201 69.3024L85.9816 69.2825C86.7059 67.9069 87.2641 66.538 87.7027 65.1824C87.7758 64.2188 87.6628 63.2553 87.3571 62.2851C87.0514 61.3082 86.5464 60.3247 85.8553 59.3479C85.7955 59.2615 85.8154 59.1352 85.9018 59.0754C85.9882 59.009 86.1145 59.0355 86.1743 59.1219C86.892 60.1386 87.4103 61.1554 87.7359 62.1721C87.9153 62.7502 88.0349 63.3284 88.0881 63.9065C88.6795 61.7601 89.0118 59.6668 89.251 57.6666C89.0184 56.816 88.7593 56.105 88.4735 55.5136C88.1878 54.9288 87.8821 54.4769 87.5432 54.1646C87.4634 54.0915 87.4634 53.9652 87.5365 53.8855C87.6096 53.8057 87.7359 53.8057 87.8156 53.8788C88.1878 54.231 88.5267 54.7161 88.8324 55.3408C89.0251 55.7329 89.1979 56.1781 89.3706 56.6765C89.4304 56.1449 89.4836 55.6265 89.5368 55.1148L89.5766 54.7161C89.5766 54.7095 89.5766 54.7028 89.5766 54.6962C89.8358 51.9716 90.1215 49.4996 90.9256 47.3997Z" fill="white"/>
<path fill-rule="evenodd" clip-rule="evenodd" d="M89.7029 63.8735C90.3873 63.5013 91.218 63.3086 91.6964 62.6906C92.2613 61.9663 92.1483 60.8964 92.6268 60.1123C93.2248 59.1221 94.5339 58.8696 95.4776 58.1918C96.4013 57.5273 96.275 57.1219 96.7667 56.0985C97.511 54.5568 99.6441 53.1215 101.133 54.3841C102.648 55.6666 101.671 57.1684 100.847 58.2582C100.255 59.0357 100.349 59.2218 100.189 60.1787C99.9963 61.3416 100.395 62.7105 99.6109 63.5877C99.1258 64.1326 98.3217 64.2921 97.83 64.8304C97.2718 65.4351 97.2518 66.3388 97.0525 67.1429C96.7867 68.2194 96.3082 69.0833 95.564 69.7744C93.5903 69.6415 91.2977 69.5153 88.7393 69.4023C88.5134 69.0966 88.3339 68.7577 88.2077 68.3989C87.6362 66.804 88.1612 64.7041 89.7029 63.8735Z" fill="#C5DEF8"/>
<path fill-rule="evenodd" clip-rule="evenodd" d="M99.7305 55.4613C99.7903 55.4015 99.8833 55.4015 99.9431 55.4546C100.003 55.5144 100.003 55.6075 99.9498 55.6673C99.664 55.9663 99.3916 56.2919 99.1258 56.6375C99.1789 56.6176 99.2387 56.6043 99.2919 56.5843C99.5444 56.5112 99.8102 56.4714 100.096 56.4581C100.176 56.4581 100.249 56.5179 100.249 56.6043C100.249 56.684 100.189 56.7571 100.103 56.7571C99.8435 56.7704 99.5976 56.8036 99.365 56.8701C99.1524 56.9299 98.9464 57.0163 98.7603 57.1226C98.2287 57.8868 97.7236 58.744 97.2186 59.6544C97.4844 59.475 97.7502 59.3222 98.016 59.2026C98.4745 58.9966 98.9397 58.8769 99.3982 58.8504C99.478 58.8437 99.5511 58.9102 99.5577 58.9899C99.5644 59.0697 99.4979 59.1427 99.4182 59.1494C98.9929 59.176 98.5676 59.2823 98.1423 59.475C97.717 59.6677 97.2917 59.9402 96.8597 60.299L96.7202 60.5449C96.4212 61.0898 96.1088 61.648 95.7899 62.2128C95.7899 62.2195 95.7832 62.2261 95.7832 62.2261C95.4443 62.8176 95.0855 63.4156 94.7 64.0137C95.1918 63.6814 95.6902 63.409 96.1819 63.203C96.9063 62.8973 97.6306 62.7312 98.3483 62.6979C98.428 62.6913 98.5011 62.7578 98.5078 62.8375C98.5144 62.9172 98.448 62.9903 98.3682 62.997C97.6771 63.0302 96.9927 63.1897 96.3015 63.4821C95.6104 63.7745 94.926 64.1865 94.2282 64.7314C93.6966 65.5155 93.1052 66.293 92.4473 67.0572C92.1217 67.4294 91.7828 67.7948 91.4173 68.1603C91.9888 67.9809 92.5603 67.8613 93.1384 67.7948C93.9491 67.7085 94.7598 67.7417 95.5839 67.8812C95.6636 67.8945 95.7168 67.9743 95.7035 68.054C95.6902 68.1337 95.6104 68.1869 95.5307 68.1736C94.7333 68.0341 93.9491 68.0008 93.165 68.0872C92.3941 68.167 91.6366 68.3597 90.879 68.6587C90.5933 68.9179 90.3009 69.1771 89.9952 69.4296L89.5433 69.4096C90.5534 68.6122 91.4306 67.755 92.2081 66.8645C92.547 66.2133 92.753 65.5089 92.8261 64.7447C92.8992 63.9738 92.8394 63.1432 92.6467 62.2527C92.6267 62.173 92.6799 62.0932 92.7596 62.0733C92.8394 62.0534 92.9191 62.1065 92.9391 62.1863C93.1384 63.1033 93.1982 63.9672 93.1251 64.7713C93.0786 65.2298 92.9922 65.6684 92.8593 66.0804C93.9093 64.7646 94.7598 63.4023 95.5174 62.0799C95.6038 61.4221 95.637 60.8439 95.6104 60.3522C95.5839 59.8604 95.5041 59.4551 95.3646 59.1361C95.3313 59.063 95.3646 58.97 95.4443 58.9367C95.5174 58.9035 95.6104 58.9367 95.6437 59.0165C95.7965 59.3687 95.8895 59.8073 95.9161 60.3389C95.9361 60.6645 95.9228 61.03 95.8962 61.4287C96.0955 61.0765 96.2816 60.731 96.4743 60.3921L96.6205 60.1262C96.6205 60.1196 96.6272 60.1196 96.6272 60.1129C97.6173 58.3254 98.5476 56.6907 99.7305 55.4613ZM48.2964 14.5001C48.1103 17.0385 47.7382 17.3907 45.3127 17.5834C47.7315 17.7762 48.1103 18.1284 48.2964 20.6668C48.4824 18.1284 48.8546 17.7762 51.2801 17.5834C48.8612 17.3907 48.4824 17.0385 48.2964 14.5001ZM58.1446 21.1985C58.0449 22.5541 57.8456 22.7402 56.5564 22.8465C57.8522 22.9528 58.0516 23.1389 58.1446 24.4945C58.2443 23.1389 58.4436 22.9528 59.7395 22.8465C58.4436 22.7402 58.2443 22.5541 58.1446 21.1985ZM53.8318 10.7588C53.7322 12.1344 53.5262 12.3204 52.2171 12.4267C53.5262 12.5331 53.7322 12.7191 53.8318 14.0947C53.9315 12.7191 54.1375 12.5331 55.4466 12.4267C54.1375 12.3271 53.9315 12.1344 53.8318 10.7588ZM44.7279 56.1391C44.8807 58.1991 45.1797 58.4782 47.1401 58.6377C45.1797 58.7972 44.8741 59.0829 44.7279 61.1363C44.575 59.0763 44.276 58.7972 42.3157 58.6377C44.276 58.4782 44.5817 58.1991 44.7279 56.1391ZM36.7536 61.5683C36.8333 62.6647 36.9928 62.8176 38.0428 62.9039C36.9928 62.9903 36.8333 63.1432 36.7536 64.2396C36.6738 63.1432 36.5144 62.9903 35.4644 62.9039C36.5144 62.8176 36.6738 62.6647 36.7536 61.5683ZM40.249 53.1089C40.3287 54.2186 40.4949 54.3781 41.5581 54.4579C40.4949 54.5442 40.3354 54.6971 40.249 55.8068C40.1692 54.6971 40.0031 54.5376 38.9399 54.4579C40.0031 54.3781 40.1692 54.2253 40.249 53.1089ZM76.0668 51.0688C75.9538 52.6437 75.7212 52.863 74.2194 52.9826C75.7212 53.1022 75.9538 53.3215 76.0668 54.8964C76.1798 53.3215 76.4124 53.1022 77.9142 52.9826C76.419 52.863 76.1864 52.6437 76.0668 51.0688ZM82.1738 55.2221C82.114 56.066 81.9877 56.179 81.1836 56.2454C81.9877 56.3119 82.1073 56.4248 82.1738 57.2688C82.2336 56.4248 82.3598 56.3119 83.1639 56.2454C82.3598 56.179 82.2336 56.066 82.1738 55.2221ZM79.5024 48.7496C79.4426 49.6002 79.3163 49.7198 78.5056 49.7863C79.3163 49.8527 79.4426 49.9723 79.5024 50.8229C79.5622 49.9723 79.6885 49.8527 80.4992 49.7863C79.6885 49.7198 79.5622 49.6002 79.5024 48.7496Z" fill="white"/>
<path fill-rule="evenodd" clip-rule="evenodd" d="M22.6258 11.1518L22.0145 11.5106C21.8085 11.6302 21.7354 11.896 21.855 12.1021L21.9879 12.3346C22.1474 12.6071 22.0809 12.7333 22.0277 12.7799C21.8882 12.8995 21.7619 13.0324 21.6357 13.1653C21.5958 13.2052 21.4828 13.3381 21.1705 13.1586L20.9579 13.0324C20.7519 12.9128 20.4861 12.9859 20.3664 13.1919L20.0076 13.8032C19.888 14.0092 19.9611 14.275 20.1671 14.3947L20.3797 14.5209C20.6721 14.6937 20.6655 14.7801 20.6256 14.8997C20.5724 15.0725 20.5193 15.2386 20.4861 15.418C20.4528 15.5775 20.4661 15.6838 20.0674 15.6838H19.8215C19.5823 15.6838 19.3896 15.8765 19.3896 16.1158V16.8268C19.3896 17.066 19.5823 17.2588 19.8215 17.2588H20.0674C20.4661 17.2588 20.4528 17.3717 20.4861 17.5246C20.5259 17.704 20.5791 17.8701 20.6256 18.0429C20.6655 18.1691 20.6721 18.2555 20.3797 18.4217L20.1671 18.5479C19.9611 18.6675 19.888 18.9334 20.0076 19.146L20.3664 19.7574C20.4861 19.9634 20.7519 20.0365 20.9579 19.9168L21.1705 19.7906C21.4828 19.6112 21.6025 19.7441 21.6357 19.7839C21.7619 19.9168 21.8882 20.0498 22.0277 20.1694C22.0743 20.2159 22.1474 20.3355 21.9879 20.6146L21.855 20.8472C21.7354 21.0532 21.8085 21.319 22.0145 21.4386L22.6258 21.7974C22.8318 21.9171 23.0976 21.844 23.2172 21.638L23.3501 21.4054C23.5096 21.1263 23.6691 21.1396 23.7422 21.1595C23.9349 21.2193 24.121 21.2592 24.3204 21.3123C24.3935 21.3323 24.5197 21.3854 24.5197 21.7177V21.9636C24.5197 22.2028 24.7124 22.3955 24.9517 22.3955H25.6693C25.9086 22.3955 26.1013 22.2028 26.1013 21.9636V21.7177C26.1013 21.3854 26.2275 21.3323 26.3006 21.3123C26.5 21.2592 26.6861 21.2193 26.8788 21.1595C26.9452 21.1396 27.1047 21.1263 27.2708 21.4054L27.4037 21.638C27.5234 21.844 27.7892 21.9171 27.9952 21.7974L28.6065 21.4386C28.8125 21.319 28.8856 21.0532 28.766 20.8472L28.6331 20.6146C28.4736 20.3421 28.5401 20.2159 28.5932 20.1694C28.7328 20.0498 28.8591 19.9168 28.9853 19.7839C29.0252 19.7441 29.1382 19.6112 29.4505 19.7906L29.6631 19.9168C29.8691 20.0365 30.1349 19.9634 30.2545 19.7574L30.6134 19.146C30.733 18.94 30.6599 18.6742 30.4539 18.5479L30.2413 18.4217C29.9489 18.2489 29.9555 18.1625 29.9954 18.0429C30.0485 17.8701 30.1017 17.704 30.1349 17.5246C30.1682 17.3651 30.1549 17.2588 30.5536 17.2588H30.7995C31.0387 17.2588 31.2314 17.066 31.2314 16.8268V16.1158C31.2314 15.8765 31.0387 15.6838 30.7995 15.6838H30.5536C30.1549 15.6838 30.1682 15.5709 30.1349 15.418C30.0951 15.2386 30.0419 15.0725 29.9954 14.8997C29.9555 14.7734 29.9489 14.687 30.2413 14.5209L30.4539 14.3947C30.6599 14.275 30.733 14.0092 30.6134 13.8032L30.2545 13.1919C30.1349 12.9859 29.8691 12.9128 29.6631 13.0324L29.4505 13.1586C29.1382 13.3381 29.0185 13.2052 28.9853 13.1653C28.8591 13.0324 28.7328 12.8995 28.5932 12.7799C28.5467 12.7333 28.4736 12.6137 28.6331 12.3346L28.766 12.1021C28.8856 11.896 28.8125 11.6302 28.6065 11.5106L27.9952 11.1518C27.7892 11.0322 27.5234 11.1053 27.4037 11.3113L27.2708 11.5438C27.1114 11.8229 26.9519 11.8097 26.8788 11.7897C26.6861 11.7299 26.5 11.69 26.3006 11.6369C26.2275 11.6169 26.1013 11.5638 26.1013 11.2315V10.9857C26.1013 10.7464 25.9086 10.5537 25.6693 10.5537H24.9583C24.7191 10.5537 24.5264 10.7464 24.5264 10.9857V11.2315C24.5264 11.5638 24.4001 11.6169 24.327 11.6369C24.1276 11.69 23.9416 11.7299 23.7489 11.7897C23.6824 11.8097 23.5229 11.8229 23.3568 11.5438L23.2239 11.3113C23.0976 11.1053 22.8318 11.0322 22.6258 11.1518ZM25.3105 15.5443C25.8288 15.5443 26.2475 15.9629 26.2475 16.4813C26.2475 16.9996 25.8288 17.4182 25.3105 17.4182C24.7922 17.4182 24.3735 16.9996 24.3735 16.4813C24.3735 15.9629 24.7922 15.5443 25.3105 15.5443ZM22.3733 16.4813C22.3733 16.3683 22.4597 16.2819 22.5727 16.2819C22.6856 16.2819 22.772 16.3683 22.772 16.4813C22.772 17.179 23.0578 17.817 23.5163 18.2755C23.9748 18.734 24.6061 19.0197 25.3105 19.0197C25.4235 19.0197 25.5098 19.1061 25.5098 19.2191C25.5098 19.3321 25.4235 19.4185 25.3105 19.4185C24.4998 19.4185 23.7622 19.0928 23.2305 18.5612C22.6989 18.0296 22.3733 17.292 22.3733 16.4813ZM28.2078 16.0028C28.2278 16.1091 28.148 16.2155 28.0417 16.2287C27.9354 16.2487 27.829 16.1689 27.8157 16.0626C27.7294 15.531 27.4768 15.0525 27.118 14.687C26.7525 14.3216 26.2807 14.0624 25.7491 13.9694C25.6428 13.9494 25.5697 13.8497 25.5829 13.7368C25.6029 13.6305 25.7026 13.5574 25.8155 13.5706C26.4269 13.677 26.9784 13.976 27.3971 14.4013C27.8224 14.8399 28.1081 15.3914 28.2078 16.0028ZM25.3105 12.9992C27.231 12.9992 28.7926 14.5541 28.7926 16.4813C28.7926 18.4084 27.2376 19.9634 25.3105 19.9634C23.3834 19.9634 21.8284 18.4084 21.8284 16.4813C21.8284 14.5541 23.39 12.9992 25.3105 12.9992Z" fill="#A4D0FC"/>
<path fill-rule="evenodd" clip-rule="evenodd" d="M23.2838 23.2246H52.8019C55.1078 23.2246 56.9884 25.1119 56.9884 27.4111V67.9869C56.9884 70.2928 55.1012 72.1734 52.8019 72.1734H23.2838C20.9779 72.1734 19.0973 70.2862 19.0973 67.9869V27.4178C19.0973 25.1119 20.9779 23.2246 23.2838 23.2246Z" fill="#BBDBFA"/>
<path fill-rule="evenodd" clip-rule="evenodd" d="M23.2837 24.4082H52.8019C54.4565 24.4082 55.8055 25.7638 55.8055 27.4118V67.9877C55.8055 69.6423 54.4499 70.9913 52.8019 70.9913H23.2837C21.6291 70.9913 20.2801 69.6357 20.2801 67.9877V27.4185C20.2801 25.7638 21.6291 24.4082 23.2837 24.4082Z" fill="#D2E5F7"/>
<path d="M22.738 25.1397L22.4065 66.998L53.0277 67.2406L53.3593 25.3822L22.738 25.1397Z" fill="white"/>
<path fill-rule="evenodd" clip-rule="evenodd" d="M30.7131 21.3769H35.903V20.2804C35.903 19.1042 36.8666 18.1406 38.0428 18.1406C39.219 18.1406 40.1826 19.1042 40.1826 20.2804V21.3769H45.3725C46.0835 21.3769 46.6683 21.9616 46.6683 22.6727V25.1381C46.6683 25.8491 46.0835 26.4339 45.3725 26.4339H30.7131C30.0021 26.4339 29.4173 25.8491 29.4173 25.1381V22.6727C29.4173 21.9616 30.0021 21.3769 30.7131 21.3769ZM38.0428 19.4232C37.5178 19.4232 37.0925 19.8485 37.0925 20.3734C37.0925 20.8984 37.5178 21.3237 38.0428 21.3237C38.5678 21.3237 38.9931 20.8984 38.9931 20.3734C38.9931 19.8418 38.5678 19.4232 38.0428 19.4232Z" fill="#BBDBFA"/>
<path fill-rule="evenodd" clip-rule="evenodd" d="M29.8292 32.3486H51.2468C51.3266 32.3486 51.393 32.4151 51.393 32.4948C51.393 32.5746 51.3266 32.641 51.2468 32.641H29.8292C29.7495 32.641 29.683 32.5746 29.683 32.4948C29.683 32.4151 29.7495 32.3486 29.8292 32.3486Z" fill="#8BBAE9"/>
<path fill-rule="evenodd" clip-rule="evenodd" d="M25.8953 32.3148C25.8953 31.8098 26.3073 31.3978 26.8124 31.3978C27.3174 31.3978 27.7294 31.8098 27.7294 32.3148C27.7294 32.8198 27.3174 33.2319 26.8124 33.2319C26.3073 33.2319 25.8953 32.8198 25.8953 32.3148ZM26.8124 33.3913C27.4038 33.3913 27.8889 32.9062 27.8889 32.3148C27.8889 31.7234 27.4038 31.2383 26.8124 31.2383C26.2209 31.2383 25.7358 31.7234 25.7358 32.3148C25.7358 32.9062 26.2143 33.3913 26.8124 33.3913Z" fill="#99C5F2"/>
<path fill-rule="evenodd" clip-rule="evenodd" d="M26.8124 31.8174C26.54 31.8174 26.314 32.0367 26.314 32.3158C26.314 32.5949 26.5333 32.8142 26.8124 32.8142C27.0915 32.8142 27.3108 32.5949 27.3108 32.3158C27.3108 32.0367 27.0849 31.8174 26.8124 31.8174ZM29.8294 36.8545H45.645C45.7248 36.8545 45.7912 36.9209 45.7912 37.0007C45.7912 37.0804 45.7248 37.1469 45.645 37.1469H29.8294C29.7496 37.1469 29.6832 37.0804 29.6832 37.0007C29.6832 36.9209 29.7496 36.8545 29.8294 36.8545Z" fill="#8BBAE9"/>
<path fill-rule="evenodd" clip-rule="evenodd" d="M25.8953 36.8216C25.8953 36.3166 26.3073 35.9046 26.8124 35.9046C27.3174 35.9046 27.7294 36.3166 27.7294 36.8216C27.7294 37.3267 27.3174 37.7387 26.8124 37.7387C26.3073 37.7387 25.8953 37.3267 25.8953 36.8216ZM26.8124 37.8982C27.4038 37.8982 27.8889 37.4131 27.8889 36.8216C27.8889 36.2302 27.4038 35.7451 26.8124 35.7451C26.2209 35.7451 25.7358 36.2302 25.7358 36.8216C25.7358 37.4197 26.2143 37.8982 26.8124 37.8982Z" fill="#99C5F2"/>
<path fill-rule="evenodd" clip-rule="evenodd" d="M26.8124 36.3223C26.54 36.3223 26.314 36.5416 26.314 36.8207C26.314 37.0931 26.5333 37.3191 26.8124 37.3191C27.0915 37.3191 27.3108 37.0998 27.3108 36.8207C27.3108 36.5482 27.0849 36.3223 26.8124 36.3223ZM29.8294 41.366H51.247C51.3267 41.366 51.3931 41.4325 51.3931 41.5122C51.3931 41.5919 51.3267 41.6584 51.247 41.6584H29.8294C29.7496 41.6584 29.6832 41.5919 29.6832 41.5122C29.6832 41.4325 29.7496 41.366 29.8294 41.366Z" fill="#8BBAE9"/>
<path fill-rule="evenodd" clip-rule="evenodd" d="M25.8953 41.3334C25.8953 40.8283 26.3073 40.4163 26.8124 40.4163C27.3174 40.4163 27.7294 40.8283 27.7294 41.3334C27.7294 41.8384 27.3174 42.2504 26.8124 42.2504C26.3073 42.2504 25.8953 41.8384 25.8953 41.3334ZM26.8124 42.4099C27.4038 42.4099 27.8889 41.9248 27.8889 41.3334C27.8889 40.7419 27.4038 40.2568 26.8124 40.2568C26.2209 40.2568 25.7358 40.7419 25.7358 41.3334C25.7358 41.9248 26.2143 42.4099 26.8124 42.4099Z" fill="#99C5F2"/>
<path fill-rule="evenodd" clip-rule="evenodd" d="M26.8124 40.834C26.54 40.834 26.314 41.0533 26.314 41.3324C26.314 41.6048 26.5333 41.8308 26.8124 41.8308C27.0915 41.8308 27.3108 41.6115 27.3108 41.3324C27.3108 41.0533 27.0849 40.834 26.8124 40.834ZM29.8294 45.8711H47.2399C47.3196 45.8711 47.3861 45.9375 47.3861 46.0173C47.3861 46.097 47.3196 46.1635 47.2399 46.1635H29.8294C29.7496 46.1635 29.6832 46.097 29.6832 46.0173C29.6832 45.9442 29.7496 45.8711 29.8294 45.8711Z" fill="#8BBAE9"/>
<path fill-rule="evenodd" clip-rule="evenodd" d="M25.8953 45.8383C25.8953 45.3332 26.3073 44.9212 26.8124 44.9212C27.3174 44.9212 27.7294 45.3332 27.7294 45.8383C27.7294 46.3433 27.3174 46.7553 26.8124 46.7553C26.3073 46.7553 25.8953 46.3499 25.8953 45.8383ZM26.8124 46.9148C27.4038 46.9148 27.8889 46.4297 27.8889 45.8383C27.8889 45.2468 27.4038 44.7617 26.8124 44.7617C26.2209 44.7617 25.7358 45.2468 25.7358 45.8383C25.7358 46.4363 26.2143 46.9148 26.8124 46.9148Z" fill="#99C5F2"/>
<path fill-rule="evenodd" clip-rule="evenodd" d="M26.8124 45.3467C26.54 45.3467 26.314 45.566 26.314 45.8451C26.314 46.1175 26.5333 46.3435 26.8124 46.3435C27.0915 46.3435 27.3108 46.1242 27.3108 45.8451C27.3108 45.566 27.0849 45.3467 26.8124 45.3467ZM29.8294 50.3838H42.9404C43.0202 50.3838 43.0866 50.4502 43.0866 50.53C43.0866 50.6097 43.0202 50.6762 42.9404 50.6762H29.8294C29.7496 50.6762 29.6832 50.6097 29.6832 50.53C29.6832 50.4502 29.7496 50.3838 29.8294 50.3838Z" fill="#8BBAE9"/>
<path fill-rule="evenodd" clip-rule="evenodd" d="M25.8953 50.3509C25.8953 49.8459 26.3073 49.4339 26.8124 49.4339C27.3174 49.4339 27.7294 49.8459 27.7294 50.3509C27.7294 50.856 27.3174 51.268 26.8124 51.268C26.3073 51.268 25.8953 50.856 25.8953 50.3509ZM26.8124 51.4275C27.4038 51.4275 27.8889 50.9424 27.8889 50.3509C27.8889 49.7595 27.4038 49.2744 26.8124 49.2744C26.2209 49.2744 25.7358 49.7595 25.7358 50.3509C25.7358 50.9424 26.2143 51.4275 26.8124 51.4275Z" fill="#99C5F2"/>
<path fill-rule="evenodd" clip-rule="evenodd" d="M26.8124 49.8516C26.54 49.8516 26.314 50.0709 26.314 50.35C26.314 50.6224 26.5333 50.8483 26.8124 50.8483C27.0915 50.8483 27.3108 50.6291 27.3108 50.35C27.3108 50.0775 27.0849 49.8516 26.8124 49.8516ZM29.8294 54.8953H51.247C51.3267 54.8953 51.3931 54.9617 51.3931 55.0415C51.3931 55.1212 51.3267 55.1877 51.247 55.1877H29.8294C29.7496 55.1877 29.6832 55.1212 29.6832 55.0415C29.6832 54.9617 29.7496 54.8953 29.8294 54.8953Z" fill="#8BBAE9"/>
<path fill-rule="evenodd" clip-rule="evenodd" d="M25.8953 54.8558C25.8953 54.3508 26.3073 53.9388 26.8124 53.9388C27.3174 53.9388 27.7294 54.3508 27.7294 54.8558C27.7294 55.3609 27.3174 55.7729 26.8124 55.7729C26.3073 55.7795 25.8953 55.3675 25.8953 54.8558ZM26.8124 55.9324C27.4038 55.9324 27.8889 55.4472 27.8889 54.8558C27.8889 54.2644 27.4038 53.7793 26.8124 53.7793C26.2209 53.7793 25.7358 54.2644 25.7358 54.8558C25.7358 55.4539 26.2143 55.9324 26.8124 55.9324Z" fill="#99C5F2"/>
<path fill-rule="evenodd" clip-rule="evenodd" d="M26.8124 54.3643C26.54 54.3643 26.314 54.5836 26.314 54.8627C26.314 55.1418 26.5333 55.361 26.8124 55.361C27.0915 55.361 27.3108 55.1418 27.3108 54.8627C27.3108 54.5836 27.0849 54.3643 26.8124 54.3643ZM29.8294 59.4014H49.2467C49.3265 59.4014 49.3929 59.4678 49.3929 59.5475C49.3929 59.6273 49.3265 59.6937 49.2467 59.6937H29.8294C29.7496 59.6937 29.6832 59.6273 29.6832 59.5475C29.6832 59.4678 29.7496 59.4014 29.8294 59.4014Z" fill="#8BBAE9"/>
<path fill-rule="evenodd" clip-rule="evenodd" d="M25.8953 59.3675C25.8953 58.8625 26.3073 58.4505 26.8124 58.4505C27.3174 58.4505 27.7294 58.8625 27.7294 59.3675C27.7294 59.8726 27.3174 60.2846 26.8124 60.2846C26.3073 60.2846 25.8953 59.8726 25.8953 59.3675ZM26.8124 60.4441C27.4038 60.4441 27.8889 59.959 27.8889 59.3675C27.8889 58.7761 27.4038 58.291 26.8124 58.291C26.2209 58.291 25.7358 58.7761 25.7358 59.3675C25.7358 59.9656 26.2143 60.4441 26.8124 60.4441Z" fill="#99C5F2"/>
<path fill-rule="evenodd" clip-rule="evenodd" d="M26.8124 58.8701C26.54 58.8701 26.314 59.0894 26.314 59.3685C26.314 59.641 26.5333 59.8669 26.8124 59.8669C27.0915 59.8669 27.3108 59.6476 27.3108 59.3685C27.3108 59.0961 27.0849 58.8701 26.8124 58.8701ZM29.8294 63.9139H51.247C51.3267 63.9139 51.3931 63.9803 51.3931 64.06C51.3931 64.1398 51.3267 64.2062 51.247 64.2062H29.8294C29.7496 64.2062 29.6832 64.1398 29.6832 64.06C29.6832 63.9803 29.7496 63.9139 29.8294 63.9139Z" fill="#8BBAE9"/>
<path fill-rule="evenodd" clip-rule="evenodd" d="M25.8953 63.8793C25.8953 63.3742 26.3073 62.9622 26.8124 62.9622C27.3174 62.9622 27.7294 63.3742 27.7294 63.8793C27.7294 64.3843 27.3174 64.7963 26.8124 64.7963C26.3073 64.7963 25.8953 64.3843 25.8953 63.8793ZM26.8124 64.9558C27.4038 64.9558 27.8889 64.4707 27.8889 63.8793C27.8889 63.2878 27.4038 62.8027 26.8124 62.8027C26.2209 62.8027 25.7358 63.2878 25.7358 63.8793C25.7358 64.4707 26.2143 64.9558 26.8124 64.9558Z" fill="#99C5F2"/>
<path fill-rule="evenodd" clip-rule="evenodd" d="M26.8123 63.3809C26.5398 63.3809 26.3139 63.6002 26.3139 63.8793C26.3139 64.1584 26.5332 64.3776 26.8123 64.3776C27.0914 64.3776 27.3107 64.1584 27.3107 63.8793C27.3107 63.6002 27.0848 63.3809 26.8123 63.3809Z" fill="#8BBAE9"/>
<path fill-rule="evenodd" clip-rule="evenodd" d="M27.3373 27.5371H48.7549C48.8346 27.5371 48.9011 27.9491 48.9011 28.4475C48.9011 28.9525 48.8346 29.3579 48.7549 29.3579H27.3373C27.2575 29.3579 27.1911 28.9459 27.1911 28.4475C27.1844 27.9425 27.2509 27.5371 27.3373 27.5371Z" fill="#BBDBFA"/>
<path fill-rule="evenodd" clip-rule="evenodd" d="M61.8261 70.3264V32.0565C61.8261 31.5182 64.1852 33.0267 67.0891 33.0267C69.9931 33.0267 72.3522 32.5881 72.3522 32.0565V41.5127V70.3198C72.3522 70.858 69.9998 71.29 67.0891 71.29C64.1852 71.2966 61.8261 70.8647 61.8261 70.3264Z" fill="#99C5F2"/>
<path fill-rule="evenodd" clip-rule="evenodd" d="M61.8261 70.3256V41.7178V32.0557C61.8261 32.3082 62.3511 32.5408 63.215 32.7135V41.7112V69.6611V70.9768C62.3577 70.8107 61.8261 70.5781 61.8261 70.3256Z" fill="#61A0E0"/>
<path fill-rule="evenodd" clip-rule="evenodd" d="M56.5697 41.0195C53.6657 41.0195 51.3066 41.4581 51.3066 41.9897C51.3066 42.528 53.6591 42.9599 56.5697 42.9599C59.4736 42.9599 61.8327 42.5214 61.8327 41.9897C61.826 41.4515 59.4736 41.0195 56.5697 41.0195Z" fill="#EFF9FC"/>
<path fill-rule="evenodd" clip-rule="evenodd" d="M51.3066 70.3255V41.9902C51.3066 42.5285 53.6591 42.9604 56.5697 42.9604C59.4736 42.9604 61.8327 42.5219 61.8327 41.9902V70.3255C61.8327 70.8638 59.4803 71.2957 56.5697 71.2957C53.6591 71.2957 51.3066 70.8638 51.3066 70.3255Z" fill="#99C5F2"/>
<path fill-rule="evenodd" clip-rule="evenodd" d="M51.3066 70.3255V41.9902C51.3066 42.2428 51.8316 42.4753 52.6955 42.6481V69.6676V70.9834C51.8316 70.8106 51.3066 70.578 51.3066 70.3255Z" fill="#61A0E0"/>
<path fill-rule="evenodd" clip-rule="evenodd" d="M67.0891 31.0859C64.1852 31.0859 61.8261 31.5245 61.8261 32.0561C61.8261 32.5944 64.1852 33.0263 67.0891 33.0263C69.9931 33.0263 72.3522 32.5878 72.3522 32.0561C72.3522 31.5245 69.9931 31.0859 67.0891 31.0859Z" fill="#EFF9FC"/>
<path fill-rule="evenodd" clip-rule="evenodd" d="M40.7807 70.3259V51.4003C40.7807 50.862 43.1398 52.3705 46.0437 52.3705C48.9477 52.3705 51.3068 51.9319 51.3068 51.4003V60.8564V70.3259C51.3068 70.8642 48.9477 71.2961 46.0437 71.2961C43.1398 71.2961 40.7807 70.8642 40.7807 70.3259Z" fill="#99C5F2"/>
<path fill-rule="evenodd" clip-rule="evenodd" d="M40.7807 70.327V61.0569V51.4014C40.7807 51.6539 41.3057 51.8865 42.1696 52.0592V61.0569V69.6691V70.9849C41.3057 70.8121 40.7807 70.5795 40.7807 70.327Z" fill="#61A0E0"/>
<path fill-rule="evenodd" clip-rule="evenodd" d="M46.0437 50.4238C43.1398 50.4238 40.7807 50.8624 40.7807 51.394C40.7807 51.9323 43.1398 52.3642 46.0437 52.3642C48.9477 52.3642 51.3068 51.9256 51.3068 51.394C51.3068 50.8558 48.9477 50.4238 46.0437 50.4238Z" fill="#EFF9FC"/>
<path fill-rule="evenodd" clip-rule="evenodd" d="M30.6002 70.6717V59.8133C30.6002 59.2751 32.9526 60.7835 35.8632 60.7835C38.7672 60.7835 41.1262 60.345 41.1262 59.8133V69.2695V70.6717C41.1262 71.2099 38.7672 71.6419 35.8632 71.6419C32.9592 71.6419 30.6002 71.2099 30.6002 70.6717Z" fill="#99C5F2"/>
<path fill-rule="evenodd" clip-rule="evenodd" d="M30.6002 70.6708V69.468V59.8125C30.6002 60.065 31.1251 60.2976 31.989 60.4704V69.468V70.0129V71.3287C31.1251 71.1559 30.6002 70.9233 30.6002 70.6708Z" fill="#61A0E0"/>
<path fill-rule="evenodd" clip-rule="evenodd" d="M35.8632 58.8359C32.9592 58.8359 30.6002 59.2745 30.6002 59.8061C30.6002 60.3444 32.9526 60.7763 35.8632 60.7763C38.7672 60.7763 41.1262 60.3378 41.1262 59.8061C41.1262 59.2745 38.7672 58.8359 35.8632 58.8359Z" fill="#EFF9FC"/>
<path fill-rule="evenodd" clip-rule="evenodd" d="M72.3256 70.6716V24.1151C72.3256 23.5768 74.6847 25.0853 77.5887 25.0853C80.4926 25.0853 82.8517 24.6467 82.8517 24.1151V69.2695V70.6716C82.8517 71.2099 80.4926 71.6418 77.5887 71.6418C74.678 71.6418 72.3256 71.2099 72.3256 70.6716Z" fill="#99C5F2"/>
<path fill-rule="evenodd" clip-rule="evenodd" d="M72.3256 70.6718V69.469V24.1152C72.3256 24.3678 72.8506 24.6003 73.7145 24.7731V69.4623V70.0072V71.323C72.8506 71.1569 72.3256 70.9243 72.3256 70.6718Z" fill="#61A0E0"/>
<path d="M77.5821 25.0849C80.4887 25.0849 82.8451 24.6506 82.8451 24.1147C82.8451 23.5789 80.4887 23.1445 77.5821 23.1445C74.6754 23.1445 72.319 23.5789 72.319 24.1147C72.319 24.6506 74.6754 25.0849 77.5821 25.0849Z" fill="#EFF9FC"/>
<path fill-rule="evenodd" clip-rule="evenodd" d="M39.9568 23.3772C39.578 22.6662 39.0996 22.4403 38.5347 22.6861C37.0728 25.6898 36.3351 27.1983 36.3351 27.1983C34.9263 28.3279 34.4213 29.451 34.8134 30.5674C35.2453 30.5009 35.9165 29.8763 36.8335 28.6934C36.9133 29.0589 36.8734 29.2849 36.7139 29.3845C36.6342 29.7168 36.7272 29.7899 37.0063 29.6171C37.5911 29.3513 37.7971 28.4741 37.6243 26.979C39.1062 24.4737 39.8837 23.2776 39.9568 23.3772ZM57.2145 17.8218C57.1679 16.433 57.1414 15.7419 57.1414 15.7419C59.9324 13.9277 61.3279 13.0173 61.3279 13.0173C61.3677 12.9442 61.2348 12.8911 61.2747 12.818C61.3079 12.7648 61.5272 12.6983 61.5605 12.6518C61.6003 12.5987 61.6402 12.5455 61.6801 12.4923C62.3978 11.5952 63.4078 11.1101 64.7037 11.0238C65.0758 10.9972 65.3217 11.1367 64.8897 11.3427C64.4511 11.5554 63.9062 11.7481 63.4411 12.1003C64.6239 12.2332 64.4977 12.7781 64.0989 12.7714C64.3913 12.8977 64.4844 13.1236 64.3847 13.4426C64.1455 13.4958 63.8597 13.5024 63.5208 13.4559C63.3082 14.0075 62.8164 14.2866 62.0456 14.2866C58.8293 16.6456 57.2145 17.8218 57.2145 17.8218ZM53.5197 37.9436L53.0878 39.678C53.008 39.8906 52.7622 40.4156 52.7289 40.615C52.5894 41.3725 56.2177 40.6083 55.5266 40.1299C55.4601 40.09 55.0747 39.5983 55.1013 39.3325C55.1412 38.9271 55.2807 38.3024 55.2807 38.3024L53.5197 37.9436Z" fill="#FFB27D"/>
<path fill-rule="evenodd" clip-rule="evenodd" d="M55.5199 40.1173C55.5199 40.1173 54.6892 40.2037 54.2706 40.1837C53.8519 40.1704 53.4134 39.579 53.101 39.6588C52.7621 39.7451 52.4232 41.4065 52.4232 41.4065C52.4232 41.4065 56.51 42.5029 57.6264 42.3966C58.1248 42.3501 57.035 40.9612 55.5199 40.1173Z" fill="#284191"/>
<path fill-rule="evenodd" clip-rule="evenodd" d="M39.0661 47.5996L38.6342 49.334C38.5545 49.5467 38.3086 50.0716 38.2754 50.271C38.1358 51.0285 41.7641 50.2644 41.073 49.7859C41.0065 49.746 40.6211 49.2543 40.6477 48.9951C40.6876 48.5897 40.8271 47.9651 40.8271 47.9651L39.0661 47.5996Z" fill="#FFB27D"/>
<path fill-rule="evenodd" clip-rule="evenodd" d="M41.0599 49.7726C41.0599 49.7726 40.2293 49.8589 39.8106 49.839C39.392 49.8257 38.9534 49.2343 38.6411 49.314C38.3022 49.4004 37.9633 51.0617 37.9633 51.0617C37.9633 51.0617 42.0501 52.1582 43.1665 52.0519C43.6715 51.9987 42.575 50.6165 41.0599 49.7726Z" fill="#284191"/>
<path fill-rule="evenodd" clip-rule="evenodd" d="M44.6084 25.6514C46.0571 25.7777 47.0406 25.9039 47.5656 26.0302C53.6925 17.0658 47.9377 34.3567 43.5851 42.1383C42.6082 43.9325 41.6712 46.1786 40.7741 48.8765C39.352 48.8167 38.6344 48.7901 38.6344 48.7901C38.528 43.9989 39.4052 40.1713 41.2725 37.3138C41.8041 36.5031 42.2161 35.0744 42.5019 33.0409C42.4288 29.0006 43.1332 26.5419 44.6084 25.6514Z" fill="#3B5BB3"/>
<path fill-rule="evenodd" clip-rule="evenodd" d="M54.244 29.572C46.283 33.6056 40.4086 32.755 43.5119 26.8275C45.4989 25.9304 50.948 25.5317 55.2208 24.8007C57.1347 24.4751 58.9222 24.3289 58.7362 27.08C56.53 35.9846 55.3205 38.8686 55.2541 39.2009C53.8652 39.0281 53.0877 39.0281 53.0877 39.0281C54.1244 32.3032 53.739 30.1302 54.244 29.572Z" fill="#4567C6"/>
<path fill-rule="evenodd" clip-rule="evenodd" d="M51.5327 14.3476C50.5824 15.6567 49.6454 15.4574 48.7217 13.7628C42.7742 14.7397 38.7007 18.5806 36.4214 26.6479C37.4381 27.04 37.9431 27.2327 37.9431 27.2327C39.332 24.6743 41.4651 22.2754 44.3292 20.0293C43.1995 24.9468 43.0135 27.5251 43.0135 27.5251C48.323 26.9403 50.609 25.4385 50.609 25.4385C52.5627 20.3217 52.8617 19.2452 52.8617 19.2452C55.666 18.9926 59.6199 17.6636 62.6634 14.1748C61.6334 14.4473 61.2015 13.9622 61.3743 12.7129C57.932 14.9922 54.6493 15.5371 51.5327 14.3476Z" fill="#FC9774"/>
<path fill-rule="evenodd" clip-rule="evenodd" d="M52.5362 19.1253C52.5362 19.1253 52.1707 20.4544 50.2303 25.5446V25.6443C50.4828 25.5114 50.6091 25.4316 50.6091 25.4316C50.629 25.3718 50.6489 25.3187 50.6755 25.2655C52.5694 20.2949 52.8618 19.2383 52.8618 19.2383C55.6661 18.9858 59.62 17.6567 62.6635 14.168C62.4841 14.2145 62.318 14.2411 62.1718 14.2411C59.1482 17.5969 55.2873 18.8794 52.5362 19.1253ZM37.9432 27.2325C39.2656 24.8003 41.6779 22.1755 44.3293 20.0291C44.4024 19.7167 43.6781 20.3148 43.6449 20.3414C41.0399 22.4612 38.9334 24.7206 37.6309 27.1062L37.9432 27.2325Z" fill="#F57A44"/>
<path fill-rule="evenodd" clip-rule="evenodd" d="M49.9977 11.457L48.9145 13.7762C48.9145 13.7762 49.4129 17.0656 50.2967 17.0523C51.0343 17.039 51.3732 14.361 51.3732 14.361C51.3732 14.361 51.4065 12.8791 51.7188 12.2212C52.0378 11.57 49.9977 11.457 49.9977 11.457Z" fill="#FFB27D"/>
<path fill-rule="evenodd" clip-rule="evenodd" d="M51.7188 12.2212C52.0311 11.57 49.9976 11.457 49.9976 11.457L49.9113 11.6497C49.9245 11.8026 49.9578 11.9421 50.0176 12.0485C50.31 12.6266 50.8947 13.0984 51.4596 13.2845C51.5128 12.899 51.5925 12.4937 51.7188 12.2212Z" fill="#F08261"/>
<path fill-rule="evenodd" clip-rule="evenodd" d="M50.6954 7.93436C50.6489 7.90113 49.4527 10.5725 49.9378 11.5494C50.4296 12.5262 51.752 13.1907 52.4298 12.7322C52.7621 12.5063 53.5063 11.8152 53.4332 10.7719C53.3601 9.71528 53.6392 8.73179 53.1475 8.11378C52.2769 6.99074 50.6954 7.93436 50.6954 7.93436Z" fill="#FFB27D"/>
<path fill-rule="evenodd" clip-rule="evenodd" d="M50.8881 10.2741C50.7951 10.613 50.5558 10.8522 50.3565 10.7924C50.1571 10.7392 50.0707 10.4203 50.1704 10.0747C50.2635 9.73582 50.5027 9.50324 50.702 9.5564C50.8948 9.60956 50.9811 9.92853 50.8881 10.2741Z" fill="#FFB27D"/>
<path fill-rule="evenodd" clip-rule="evenodd" d="M52.6094 12.0011C50.5826 12.1274 49.3864 11.8416 49.0276 11.1505C48.5358 10.8714 48.3298 10.3066 48.4096 9.44269C48.2301 8.04719 49.2801 6.20646 49.7585 7.40925C50.8683 5.97388 53.141 7.66177 54.8422 7.18996C55.5465 8.01397 54.8023 9.32308 54.0314 9.61547C53.5729 11.2502 53.234 12.0875 52.6094 12.0011Z" fill="#284191"/>
<path fill-rule="evenodd" clip-rule="evenodd" d="M49.2866 7.47584C49.5325 7.38281 49.6455 7.23661 49.6255 7.03061C49.373 6.77145 49.0873 6.67841 48.7617 6.75815C48.9278 6.81796 49.1072 7.05719 49.2866 7.47584Z" fill="#284191"/>
<path fill-rule="evenodd" clip-rule="evenodd" d="M49.7916 7.15716C49.6056 7.27013 49.466 7.27013 49.373 7.15052C49.3863 6.83155 49.5059 6.58567 49.7318 6.40625C49.672 6.5458 49.692 6.79832 49.7916 7.15716ZM50.5625 8.12072C50.2568 7.88149 49.9843 7.84827 49.7385 8.02769C49.5989 8.54602 49.5591 9.66906 49.9046 10.0213C49.991 9.98803 50.2967 8.89157 50.5625 8.12072Z" fill="#284191"/>
<path fill-rule="evenodd" clip-rule="evenodd" d="M50.8416 7.66211C50.1771 7.77508 49.9047 7.97444 50.0376 8.26018C50.8815 8.65225 51.752 8.80509 52.6491 8.7187C52.1507 8.61902 51.546 8.26683 50.8416 7.66211Z" fill="#284191"/>
<path fill-rule="evenodd" clip-rule="evenodd" d="M54.0047 9.54285C53.5396 8.67896 52.3168 8.23373 50.4163 8.35335C49.4062 7.76192 49.3132 7.19043 50.0109 6.50597C51.0011 5.54241 52.1374 6.87146 54.1775 6.29332C53.8652 7.11733 56.211 8.59258 54.0047 9.54285Z" fill="#284191"/>
<path fill-rule="evenodd" clip-rule="evenodd" d="M49.7053 8.89174C50.1905 8.93161 49.8715 9.84866 49.6987 10.3072C49.3664 11.1976 48.9478 8.83193 49.7053 8.89174Z" fill="#FFB27D"/>
<path fill-rule="evenodd" clip-rule="evenodd" d="M49.1471 13.7292C49.1205 13.4302 49.5192 12.2606 49.6056 11.8619C49.599 11.6958 49.599 11.4898 49.6056 11.2505C48.8281 10.3003 48.8414 9.77529 49.6388 9.66896C49.7584 9.78858 49.8648 10.0876 49.9512 10.5661C50.1239 10.6059 50.2768 10.5594 50.4097 10.4199C50.4163 9.66232 50.4496 9.06425 50.516 8.61237C51.2071 8.04088 52.3567 8.27347 53.7855 8.89812C53.7389 9.31677 53.6725 9.74871 53.5861 10.2006C53.719 10.4265 53.42 13.4302 51.5593 13.0049C51.4862 13.2109 51.4264 13.47 51.433 13.5033C51.4397 13.5564 51.0343 13.9618 51.1274 14.0282C51.1141 13.7558 49.5657 19.0454 49.1471 13.7292Z" fill="#FFB27D"/>
<path fill-rule="evenodd" clip-rule="evenodd" d="M53.7921 8.88522C52.3634 8.25392 51.2138 8.02799 50.5226 8.59948C50.4562 9.05135 50.4163 9.65607 50.4163 10.407C50.2834 10.5465 50.1239 10.593 49.9578 10.5532C49.8714 10.0814 49.7651 9.78233 49.6455 9.65607C48.848 9.76239 48.8348 10.294 49.6122 11.2376C49.599 11.4835 49.599 11.6895 49.6122 11.849C48.7949 11.3971 48.2965 10.3937 48.2898 10.0282C47.8646 7.71566 49.2534 7.20398 49.9512 7.07107C50.8084 5.15724 53.1807 7.76882 54.9151 7.2372C55.2474 8.21405 54.244 9.00483 53.7921 8.88522Z" fill="#284191"/>
<path fill-rule="evenodd" clip-rule="evenodd" d="M50.6489 12.5068C50.8482 12.6929 51.1539 12.859 51.5659 12.9986C51.5194 13.1381 51.4729 13.2976 51.4529 13.4039C51.0609 13.1979 50.7951 12.8989 50.6489 12.5068Z" fill="#F08261"/>
<path fill-rule="evenodd" clip-rule="evenodd" d="M53.7257 8.33301C53.8985 8.57224 53.9184 8.77824 53.7722 8.96431C53.3735 9.05734 53.0412 8.96431 52.7887 8.69185C52.9748 8.73837 53.2871 8.61875 53.7257 8.33301Z" fill="#284191"/>
<path fill-rule="evenodd" clip-rule="evenodd" d="M48.7086 13.7557C48.868 14.8189 49.1206 15.5765 49.3531 16.148C49.6057 16.7527 49.9113 17.0982 50.2635 17.1846H50.2768C50.5958 17.2179 50.855 16.8856 51.0543 16.4204C51.3467 15.736 51.5793 14.7392 51.6258 14.3803L51.3733 14.2873C51.3334 14.6329 51.0876 15.6562 50.8018 16.3141C50.649 16.6663 50.4828 16.9188 50.3167 16.9122C50.0575 16.8457 49.8183 16.56 49.6057 16.0483C49.3797 15.4967 49.0873 14.7591 48.9345 13.7158L48.7086 13.7557Z" fill="#F57A44"/>
<path fill-rule="evenodd" clip-rule="evenodd" d="M50.2568 16.6725C50.0774 16.6193 49.8914 16.719 49.8382 16.8984C49.785 17.0778 49.8847 17.2639 50.0641 17.3171C50.2435 17.3702 50.4296 17.2706 50.4828 17.0911C50.5426 16.9117 50.4363 16.719 50.2568 16.6725ZM50.1239 17.337C50.0043 17.3038 49.8781 17.3702 49.8448 17.4898C49.8116 17.6095 49.8781 17.7357 49.9977 17.7689C50.1173 17.8022 50.2436 17.7357 50.2768 17.6161C50.3166 17.4965 50.2436 17.3702 50.1239 17.337ZM50.0375 17.8022C49.9645 17.7822 49.8914 17.8221 49.8714 17.8952C49.8515 17.9683 49.8914 18.0414 49.9644 18.0613C50.0375 18.0813 50.1106 18.0414 50.1306 17.9683C50.1505 17.8952 50.1106 17.8221 50.0375 17.8022Z" fill="#F57A44"/>
<path fill-rule="evenodd" clip-rule="evenodd" d="M86.3936 12.4327C86.3936 7.14976 82.1074 2.86358 76.8245 2.86358V1.30859C82.958 1.30859 87.9486 6.29917 87.9486 12.4327C87.9486 18.5663 82.958 23.5568 76.8245 23.5568V22.0019C82.1074 22.0019 86.3936 17.7157 86.3936 12.4327Z" fill="#99C5F2"/>
<path fill-rule="evenodd" clip-rule="evenodd" d="M86.3936 12.4334C86.3936 17.7164 82.1074 22.0025 76.8245 22.0025V20.4476C81.2435 20.4476 84.832 16.8525 84.832 12.4334C84.832 8.01432 81.2369 4.41924 76.8245 4.41924V2.86426C82.1074 2.86426 86.3936 7.15043 86.3936 12.4334Z" fill="white"/>
<path fill-rule="evenodd" clip-rule="evenodd" d="M83.277 12.4323C83.277 8.87711 80.3797 5.97979 76.8245 5.97979V4.4248C81.2435 4.4248 84.832 8.01988 84.832 12.439C84.832 16.858 81.2369 20.4531 76.8245 20.4531V18.8915C80.3797 18.8848 83.277 15.9875 83.277 12.4323Z" fill="#99C5F2"/>
<path fill-rule="evenodd" clip-rule="evenodd" d="M83.277 12.433C83.277 15.9882 80.3797 18.8855 76.8245 18.8855V17.3305C79.5224 17.3305 81.722 15.131 81.722 12.433C81.722 9.73503 79.5224 7.53546 76.8245 7.53546V5.98047C80.3797 5.98047 83.277 8.87779 83.277 12.433Z" fill="white"/>
<path fill-rule="evenodd" clip-rule="evenodd" d="M80.1604 12.4329C80.1604 10.5922 78.6652 9.09698 76.8245 9.09698V7.54199C79.5224 7.54199 81.722 9.73492 81.722 12.4395C81.722 15.1375 79.5224 17.3371 76.8245 17.3371V15.7821C78.6652 15.7688 80.1604 14.2736 80.1604 12.4329Z" fill="#99C5F2"/>
<path fill-rule="evenodd" clip-rule="evenodd" d="M80.1604 12.4326C80.1604 14.2733 78.6652 15.7685 76.8245 15.7685V14.2135C77.808 14.2135 78.6054 13.4161 78.6054 12.4326C78.6054 11.4491 77.808 10.6517 76.8245 10.6517V9.09668C78.6652 9.09668 80.1604 10.5919 80.1604 12.4326Z" fill="white"/>
<path fill-rule="evenodd" clip-rule="evenodd" d="M78.6054 12.4323C78.6054 13.4158 77.808 14.2132 76.8245 14.2132V10.6514C77.808 10.6514 78.6054 11.4488 78.6054 12.4323Z" fill="#BBDBFA"/>
<path fill-rule="evenodd" clip-rule="evenodd" d="M76.8244 1.30859V2.86358C71.5415 2.86358 67.2553 7.14976 67.2553 12.4327C67.2553 17.7157 71.5415 22.0019 76.8244 22.0019V23.5568C70.6909 23.5568 65.7003 18.5663 65.7003 12.4327C65.7003 6.29917 70.6909 1.30859 76.8244 1.30859Z" fill="#61A0E0"/>
<path fill-rule="evenodd" clip-rule="evenodd" d="M68.8103 12.4334C68.8103 16.8525 72.4054 20.4476 76.8245 20.4476V22.0025C71.5415 22.0025 67.2553 17.7164 67.2553 12.4334C67.2553 7.15043 71.5415 2.86426 76.8245 2.86426V4.41924C72.4054 4.41924 68.8103 8.01432 68.8103 12.4334Z" fill="white"/>
<path fill-rule="evenodd" clip-rule="evenodd" d="M68.8103 12.4331C68.8103 8.01402 72.4054 4.41895 76.8245 4.41895V5.97393C73.2693 5.97393 70.3719 8.87125 70.3719 12.4265C70.3719 15.9817 73.2693 18.879 76.8245 18.879V20.4406C72.4054 20.4473 68.8103 16.8522 68.8103 12.4331Z" fill="#61A0E0"/>
<path fill-rule="evenodd" clip-rule="evenodd" d="M71.9269 12.433C71.9269 15.131 74.1199 17.3305 76.8245 17.3305V18.8855C73.2693 18.8855 70.3719 15.9882 70.3719 12.433C70.3719 8.87779 73.2693 5.98047 76.8245 5.98047V7.53546C74.1265 7.53546 71.9269 9.73503 71.9269 12.433Z" fill="white"/>
<path fill-rule="evenodd" clip-rule="evenodd" d="M71.9269 12.4327C71.9269 9.73473 74.1198 7.53516 76.8244 7.53516V9.09679C74.9837 9.09679 73.4885 10.592 73.4885 12.4327C73.4885 14.2734 74.9837 15.7686 76.8244 15.7686V17.3236C74.1265 17.3302 71.9269 15.1307 71.9269 12.4327Z" fill="#61A0E0"/>
<path fill-rule="evenodd" clip-rule="evenodd" d="M75.0435 12.4326C75.0435 13.4161 75.8409 14.2135 76.8244 14.2135V15.7685C74.9837 15.7685 73.4885 14.2733 73.4885 12.4326C73.4885 10.5919 74.9837 9.09668 76.8244 9.09668V10.6517C75.8409 10.6517 75.0435 11.4491 75.0435 12.4326Z" fill="white"/>
<path fill-rule="evenodd" clip-rule="evenodd" d="M75.0435 12.432C75.0435 11.4485 75.8409 10.651 76.8244 10.651V14.2129C75.8409 14.2129 75.0435 13.4154 75.0435 12.432ZM76.8311 12.5715C77.8079 11.1096 79.5556 9.44824 79.5556 9.44824L79.8214 9.72734L80.0873 10.0064C80.0873 10.0131 78.3396 11.6678 76.8311 12.5715Z" fill="#61A0E0"/>
<path fill-rule="evenodd" clip-rule="evenodd" d="M79.6752 9.8678C79.6752 9.8678 79.2566 9.50231 79.4426 9.32953L82.4729 6.45215L83.2304 7.24958L80.2002 10.127C80.0208 10.3064 79.6752 9.8678 79.6752 9.8678Z" fill="#61A0E0"/>
<path d="M85.0907 3.96559L81.3514 7.5166L82.1111 8.31649L85.8503 4.76548L85.0907 3.96559Z" fill="#A4D0FC"/>
<path fill-rule="evenodd" clip-rule="evenodd" d="M85.0048 4.81068C85.0048 4.81068 83.782 2.95001 84.8851 1.90671C85.7025 1.13587 87.7293 -0.884285 89.6033 0.438117C90.8326 2.37853 88.7062 4.299 87.8954 5.07649C86.799 6.12644 85.0048 4.81068 85.0048 4.81068Z" fill="#61A0E0"/>
<path fill-rule="evenodd" clip-rule="evenodd" d="M86.9518 0.338221C87.1046 0.265124 87.2641 0.19867 87.4236 0.145508L87.3106 2.61754L89.7893 2.63083C89.7295 2.79031 89.6564 2.94315 89.57 3.08935L86.8255 3.06941L86.9518 0.338221Z" fill="white"/>
<path fill-rule="evenodd" clip-rule="evenodd" d="M85.842 4.01276L85.9816 0.949305C86.1677 0.809755 86.3604 0.670205 86.573 0.543945L86.4401 3.44791L89.3441 3.46785C89.2112 3.66721 89.065 3.85992 88.9121 4.03269L85.842 4.01276Z" fill="white"/>
<path d="M26.8721 66.8301H20.3531V69.0828H26.8721V66.8301Z" fill="#C3DFFA"/>
<path fill-rule="evenodd" clip-rule="evenodd" d="M26.8123 65.5747C27.2044 65.3886 27.4636 65.0564 27.4636 64.5447V64.3852C27.5433 59.9728 31.4175 58.7367 31.7298 53.8591C31.7564 53.4936 31.7497 53.1348 31.7232 52.7893C31.1184 49.0879 27.6031 46.6025 23.6492 46.6025C19.1437 46.6025 15.2097 49.8255 15.4955 54.404C15.7945 59.1355 19.4826 60.3382 19.5557 64.6111C19.5557 65.0763 20.0541 65.6079 20.4728 65.568H26.8123V65.5747Z" fill="#61A0E0"/>
<path fill-rule="evenodd" clip-rule="evenodd" d="M26.686 65.0695L24.9981 66.5381L21.8882 65.7872L20.4462 65.0695H20.4262C20.28 65.0629 20.0607 64.7505 20.0541 64.6043C20.0275 63.0626 19.5756 61.8333 18.7782 60.5374C18.2067 59.6071 17.5355 58.7499 17.0106 57.793C16.4059 56.7031 16.0736 55.62 15.9938 54.3707C15.9008 52.8622 16.2929 51.4268 17.1767 50.1975C18.6519 48.1574 21.1638 47.1074 23.6425 47.1074C27.1313 47.1074 30.6134 49.2405 31.2181 52.8489C31.2447 53.1745 31.2447 53.5001 31.2247 53.8258C31.1383 55.1282 30.7861 56.2513 30.1416 57.381C29.5767 58.3777 28.8657 59.2682 28.2676 60.2384C27.4502 61.5475 26.9851 62.8101 26.9585 64.3784V64.5379C26.9585 64.7904 26.8721 64.9565 26.686 65.0695Z" fill="#C3DFFA"/>
<path fill-rule="evenodd" clip-rule="evenodd" d="M24.4997 65.6809L23.8817 66.2656L21.8948 65.7872L20.4527 65.0695H20.4328C20.2866 65.0629 20.0673 64.7505 20.0607 64.6043C20.0341 63.0626 19.5822 61.8333 18.7848 60.5374C18.2133 59.6071 17.5421 58.7499 17.0172 57.793C16.4124 56.7031 16.0802 55.62 16.0004 54.3707C15.9074 52.8622 16.2995 51.4268 17.1833 50.1975C18.6585 48.1574 21.1704 47.1074 23.6491 47.1074C24.3867 47.1074 25.1243 47.2005 25.8287 47.3865C27.4568 48.4564 28.6928 50.1509 29.0317 52.3505C29.0583 52.7027 29.0583 53.0616 29.0384 53.4204C28.952 54.8425 28.5998 56.0652 27.9552 57.3012C27.3904 58.3844 26.6793 59.3612 26.0813 60.4178C25.2639 61.8466 24.7987 63.2221 24.7721 64.9366V65.1094C24.7721 65.3685 24.6858 65.5546 24.4997 65.6809Z" fill="#DFEDFA"/>
<path fill-rule="evenodd" clip-rule="evenodd" d="M20.1206 69.6012C20.1671 70.0996 20.5924 70.485 21.0974 70.485H21.8484L22.1407 70.9635C22.3069 71.236 22.4066 71.2559 22.7322 71.2559H24.4998C24.8188 71.2559 24.9185 71.236 25.0912 70.9635L25.3836 70.485H26.1345C26.6329 70.485 27.0516 70.1063 27.1114 69.6212V69.2756C27.0848 69.1626 26.9851 69.0829 26.8655 69.0829H20.3798C20.2601 69.0829 20.1605 69.1693 20.1339 69.2823C20.1339 69.2955 20.1405 69.3155 20.1339 69.3155V69.6012H20.1206ZM26.7658 67.3418H20.4595C20.2668 67.3418 20.114 67.4947 20.114 67.6874V68.2257C20.114 68.4184 20.2668 68.5712 20.4595 68.5712H26.7658C26.9585 68.5712 27.1114 68.4184 27.1114 68.2257V67.6874C27.1114 67.5013 26.9585 67.3418 26.7658 67.3418ZM26.7525 65.5742H20.4794C20.2801 65.5742 20.1206 65.7337 20.1206 65.9331V66.4913C20.1206 66.6906 20.2801 66.8501 20.4794 66.8501H26.7525C26.9519 66.8501 27.1114 66.6906 27.1114 66.4913V65.9331C27.1114 65.7404 26.9519 65.5742 26.7525 65.5742Z" fill="#61A0E0"/>
<path fill-rule="evenodd" clip-rule="evenodd" d="M24.6128 65.5737L25.2773 57.4997H26.2408C26.6595 57.4997 27.0383 57.3269 27.3107 57.0545C27.5832 56.782 27.756 56.3966 27.756 55.9846C27.756 55.5659 27.5832 55.1872 27.3107 54.9147C27.0383 54.6423 26.6595 54.4695 26.2408 54.4695C25.8288 54.4695 25.47 54.6356 25.2042 54.9014C24.9317 55.1739 24.759 55.546 24.7257 55.958L24.6526 56.8219H21.6955L21.6224 55.958C21.5892 55.546 21.4098 55.1739 21.144 54.9014C20.8781 54.6356 20.5193 54.4695 20.1073 54.4695C19.6886 54.4695 19.3099 54.6423 19.0374 54.9147C18.765 55.1872 18.5922 55.5659 18.5922 55.9846C18.5922 56.4032 18.765 56.782 19.0374 57.0545C19.3099 57.3269 19.6886 57.4997 20.1073 57.4997H21.0775L21.742 65.5737H22.4198L21.7553 57.4997H24.5928L23.9283 65.5737H24.6128ZM25.3371 56.8219L25.4102 56.0178C25.4301 55.7653 25.5365 55.546 25.6959 55.3865C25.8355 55.2403 26.0282 55.1539 26.2475 55.1539C26.4801 55.1539 26.6861 55.247 26.8389 55.3998C26.9918 55.5527 27.0848 55.7587 27.0848 55.9912C27.0848 56.2238 26.9918 56.4298 26.8389 56.5827C26.6861 56.7355 26.4801 56.8285 26.2475 56.8285H25.3371V56.8219ZM21.011 56.8219H20.1006C19.8681 56.8219 19.6621 56.7289 19.5092 56.576C19.3564 56.4232 19.2633 56.2172 19.2633 55.9846C19.2633 55.752 19.3564 55.546 19.5092 55.3932C19.6621 55.2403 19.8681 55.1473 20.1006 55.1473C20.3199 55.1473 20.5127 55.2337 20.6522 55.3799C20.8117 55.5394 20.9114 55.7653 20.9379 56.0112L21.011 56.8219ZM20.6788 49.439C20.8981 49.346 20.9978 49.1001 20.9047 48.8808C20.8117 48.6615 20.5658 48.5619 20.3465 48.6549C20.1671 48.728 20.001 48.8077 19.8481 48.8941C19.6886 48.9805 19.5292 49.0736 19.3763 49.1799C19.177 49.3128 19.1238 49.5719 19.2567 49.7713C19.3896 49.9707 19.6488 50.0238 19.8481 49.8909C19.981 49.8045 20.1139 49.7248 20.2535 49.645C20.393 49.5719 20.5392 49.4988 20.6788 49.439ZM18.8048 50.8013C18.9577 50.6219 18.9377 50.3561 18.765 50.1966C18.5855 50.0438 18.3197 50.0637 18.1602 50.2365C17.7084 50.7548 17.3495 51.3529 17.1036 52.0041C16.8644 52.6354 16.7382 53.3132 16.7382 54.0176C16.7382 54.2502 16.9309 54.4429 17.1635 54.4429C17.396 54.4429 17.5887 54.2502 17.5887 54.0176C17.5887 53.4129 17.6951 52.8348 17.9011 52.3031C18.1137 51.7516 18.4194 51.2465 18.8048 50.8013Z" fill="white"/>
<path fill-rule="evenodd" clip-rule="evenodd" d="M32.6469 5.58157L32.1884 5.84738C32.0356 5.94041 31.9824 6.13977 32.0688 6.29261L32.1685 6.46539C32.2881 6.67139 32.2349 6.76442 32.2017 6.79765C32.102 6.89068 32.0024 6.99036 31.9093 7.09004C31.8827 7.11662 31.7897 7.2163 31.5571 7.08339L31.3976 6.99036C31.2448 6.89732 31.0388 6.95048 30.9524 7.10997L30.6866 7.56849C30.5936 7.72133 30.6467 7.92734 30.8062 8.01372L30.9657 8.10676C31.185 8.23302 31.1783 8.29947 31.1518 8.3925C31.1119 8.51876 31.072 8.64502 31.0454 8.77793C31.0189 8.89754 31.0322 8.97728 30.7331 8.97728H30.5471C30.3676 8.97728 30.2214 9.12348 30.2214 9.3029V9.83452C30.2214 10.0139 30.3676 10.1601 30.5471 10.1601H30.7331C31.0322 10.1601 31.0189 10.2465 31.0454 10.3595C31.072 10.4924 31.1119 10.6187 31.1518 10.7449C31.1783 10.8379 31.185 10.9044 30.9657 11.0307L30.8062 11.1237C30.6534 11.2167 30.6002 11.4161 30.6866 11.5689L30.9524 12.0274C31.0454 12.1803 31.2448 12.2335 31.3976 12.1471L31.5571 12.054C31.7897 11.9145 31.8827 12.0142 31.9093 12.0474C32.0024 12.1471 32.102 12.2467 32.2017 12.3398C32.2416 12.373 32.2881 12.466 32.1685 12.672L32.0688 12.8448C31.9758 12.9977 32.0289 13.2037 32.1884 13.29L32.6469 13.5558C32.7998 13.6489 33.0058 13.5957 33.0922 13.4362L33.1919 13.2635C33.3115 13.0575 33.4311 13.0641 33.4842 13.0774C33.6304 13.1239 33.77 13.1571 33.9162 13.197C33.9693 13.2103 34.069 13.2502 34.069 13.5027V13.6888C34.069 13.8682 34.2152 14.0144 34.3946 14.0144H34.9263C35.1057 14.0144 35.2519 13.8682 35.2519 13.6888V13.5027C35.2519 13.2502 35.3449 13.2103 35.4047 13.197C35.5576 13.1571 35.6905 13.1306 35.8367 13.0774C35.8898 13.0641 36.0094 13.0508 36.1291 13.2635L36.2287 13.4362C36.3218 13.5891 36.5211 13.6422 36.674 13.5558L37.1325 13.29C37.2853 13.197 37.3385 12.9977 37.2521 12.8448L37.1524 12.672C37.0328 12.466 37.086 12.373 37.1192 12.3398C37.2189 12.2467 37.3185 12.1471 37.4116 12.0474C37.4382 12.0208 37.5312 11.9211 37.7638 12.054L37.9233 12.1471C38.0761 12.2401 38.2821 12.1869 38.3685 12.0274L38.6343 11.5689C38.7273 11.4161 38.6742 11.2101 38.5147 11.1237L38.3552 11.0307C38.1359 10.9044 38.1426 10.8379 38.1691 10.7449C38.209 10.6187 38.2489 10.4924 38.2755 10.3595C38.302 10.2399 38.2888 10.1601 38.5878 10.1601H38.7739C38.9533 10.1601 39.0995 10.0139 39.0995 9.83452V9.3029C39.0995 9.12348 38.9533 8.97728 38.7739 8.97728H38.5878C38.2888 8.97728 38.302 8.8909 38.2755 8.77793C38.2489 8.64502 38.209 8.51876 38.1691 8.3925C38.1426 8.29947 38.1359 8.23302 38.3552 8.10676L38.5147 8.01372C38.6675 7.92069 38.7207 7.72133 38.6343 7.56849L38.3685 7.10997C38.2755 6.95713 38.0761 6.90397 37.9233 6.99036L37.7638 7.08339C37.5312 7.22294 37.4382 7.11662 37.4116 7.09004C37.3185 6.99036 37.2189 6.89068 37.1192 6.79765C37.0793 6.76442 37.0328 6.67139 37.1524 6.46539L37.2521 6.29261C37.3451 6.13977 37.292 5.93376 37.1325 5.84738L36.674 5.58157C36.5211 5.48853 36.3151 5.5417 36.2287 5.70118L36.1291 5.87396C36.0094 6.07996 35.8898 6.07331 35.8367 6.06002C35.6905 6.01351 35.5509 5.98028 35.4047 5.94041C35.3516 5.92712 35.2519 5.88725 35.2519 5.63473V5.44866C35.2519 5.26924 35.1057 5.12305 34.9263 5.12305H34.3946C34.2152 5.12305 34.069 5.26924 34.069 5.44866V5.63473C34.069 5.88725 33.976 5.92712 33.9162 5.94041C33.7633 5.98028 33.6304 6.00686 33.4842 6.06002C33.4311 6.07331 33.3115 6.08661 33.1919 5.87396L33.0922 5.70118C33.0058 5.5417 32.8064 5.48853 32.6469 5.58157ZM34.6671 8.87761C35.0525 8.87761 35.3715 9.18993 35.3715 9.582C35.3715 9.96742 35.0592 10.2864 34.6671 10.2864C34.2817 10.2864 33.9627 9.97407 33.9627 9.582C33.9627 9.18993 34.2817 8.87761 34.6671 8.87761ZM32.4609 9.57536C32.4609 9.48897 32.5273 9.42252 32.6137 9.42252C32.6935 9.42252 32.7666 9.48897 32.7666 9.57536C32.7666 10.1003 32.9792 10.5788 33.3248 10.9243C33.6703 11.2699 34.1488 11.4825 34.6737 11.4825C34.7601 11.4825 34.8266 11.549 34.8266 11.6354C34.8266 11.7218 34.7601 11.7882 34.6737 11.7882C34.0624 11.7882 33.5108 11.5423 33.1121 11.1436C32.7068 10.7383 32.4609 10.1867 32.4609 9.57536ZM36.8467 9.22316C36.86 9.3029 36.8069 9.38264 36.7205 9.39593C36.6407 9.40922 36.561 9.35606 36.5477 9.26967C36.4812 8.87096 36.2952 8.51211 36.0227 8.23966C35.7503 7.96721 35.3914 7.7745 34.9927 7.7014C34.913 7.68811 34.8532 7.60837 34.8665 7.52862C34.8797 7.44888 34.9595 7.38907 35.0392 7.40236C35.4978 7.48211 35.9164 7.70804 36.2287 8.02702C36.5477 8.34599 36.767 8.75799 36.8467 9.22316ZM34.6671 6.96378C36.1091 6.96378 37.2787 8.13334 37.2787 9.57536C37.2787 11.0174 36.1091 12.1869 34.6671 12.1869C33.2251 12.1869 32.0555 11.0174 32.0555 9.57536C32.0555 8.13334 33.2251 6.96378 34.6671 6.96378Z" fill="#EAEFF8"/>
<path fill-rule="evenodd" clip-rule="evenodd" d="M86.6528 32.1762L86.0414 32.535C85.8354 32.6547 85.7623 32.9205 85.8819 33.1265L86.0149 33.359C86.1743 33.6315 86.1079 33.7578 86.0547 33.8043C85.9152 33.9239 85.7889 34.0568 85.6627 34.1897C85.6228 34.2296 85.5098 34.3625 85.1975 34.1831L84.9848 34.0568C84.7788 33.9372 84.513 34.0103 84.3934 34.2163L84.0346 34.8276C83.915 35.0336 83.9881 35.2995 84.1941 35.4257L84.4067 35.552C84.6991 35.7248 84.6924 35.8111 84.6526 35.9308C84.5994 36.1035 84.5463 36.2697 84.513 36.4491C84.4798 36.6086 84.4931 36.7149 84.0944 36.7149H83.8485C83.6093 36.7149 83.4166 36.9076 83.4166 37.1468V37.8579C83.4166 38.0971 83.6093 38.2898 83.8485 38.2898H84.0944C84.4931 38.2898 84.4798 38.4028 84.513 38.5556C84.5529 38.735 84.6061 38.9012 84.6526 39.074C84.6924 39.2002 84.6991 39.2866 84.4067 39.4527L84.1941 39.579C83.9881 39.6986 83.915 39.9644 84.0346 40.1704L84.3934 40.7818C84.513 40.9878 84.7788 41.0609 84.9848 40.9413L85.1975 40.815C85.5098 40.6356 85.6294 40.7685 85.6627 40.8084C85.7889 40.9413 85.9152 41.0742 86.0547 41.1938C86.1012 41.2403 86.1743 41.3599 86.0149 41.639L85.8819 41.8716C85.7623 42.0776 85.8354 42.3434 86.0414 42.463L86.6528 42.8219C86.8588 42.9415 87.1246 42.8684 87.2442 42.6624L87.3771 42.4298C87.5366 42.1507 87.6961 42.164 87.7692 42.1839C87.9619 42.2437 88.148 42.2836 88.3473 42.3368C88.4204 42.3567 88.5467 42.4099 88.5467 42.7421V42.988C88.5467 43.2272 88.7394 43.4199 88.9786 43.4199H89.6897C89.9289 43.4199 90.1216 43.2272 90.1216 42.988V42.7421C90.1216 42.4099 90.2479 42.3567 90.321 42.3368C90.5203 42.2836 90.7064 42.2437 90.8991 42.1839C90.9656 42.164 91.125 42.1507 91.2912 42.4298L91.4241 42.6624C91.5437 42.8684 91.8095 42.9415 92.0155 42.8219L92.6269 42.463C92.8329 42.3434 92.906 42.0776 92.7863 41.8716L92.6534 41.639C92.494 41.3666 92.5604 41.2403 92.6136 41.1938C92.7531 41.0742 92.8794 40.9413 93.0056 40.8084C93.0455 40.7685 93.1585 40.6356 93.4708 40.815L93.6835 40.9413C93.8895 41.0609 94.1553 40.9878 94.2749 40.7818L94.6337 40.1704C94.7533 39.9644 94.6802 39.6986 94.4742 39.579L94.2616 39.4527C93.9692 39.28 93.9758 39.1936 94.0157 39.074C94.0689 38.9012 94.122 38.735 94.1553 38.5556C94.1885 38.3961 94.1752 38.2898 94.5739 38.2898H94.8198C95.059 38.2898 95.2517 38.0971 95.2517 37.8579V37.1468C95.2517 36.9076 95.059 36.7149 94.8198 36.7149H94.5739C94.1752 36.7149 94.1885 36.6019 94.1553 36.4491C94.1154 36.2697 94.0622 36.1035 94.0157 35.9308C93.9758 35.8045 93.9692 35.7181 94.2616 35.552L94.4742 35.4257C94.6802 35.3061 94.7533 35.0403 94.6337 34.8276L94.2749 34.2163C94.1553 34.0103 93.8895 33.9372 93.6835 34.0568L93.4708 34.1831C93.1585 34.3625 93.0389 34.2296 93.0056 34.1897C92.8794 34.0568 92.7531 33.9239 92.6136 33.8043C92.5671 33.7578 92.494 33.6381 92.6534 33.359L92.7863 33.1265C92.906 32.9205 92.8329 32.6547 92.6269 32.535L92.0155 32.1762C91.8095 32.0566 91.5437 32.1297 91.4241 32.3357L91.2912 32.5683C91.1317 32.8474 90.9722 32.8341 90.8991 32.8141C90.7064 32.7543 90.5203 32.7145 90.321 32.6613C90.2479 32.6414 90.1216 32.5882 90.1216 32.2559V32.0101C90.1216 31.7708 89.9289 31.5781 89.6897 31.5781H88.9786C88.7394 31.5781 88.5467 31.7708 88.5467 32.0101V32.2559C88.5467 32.5882 88.4204 32.6414 88.3473 32.6613C88.148 32.7145 87.9619 32.7543 87.7692 32.8141C87.7027 32.8341 87.5433 32.8474 87.3771 32.5683L87.2442 32.3357C87.1312 32.1297 86.8588 32.0566 86.6528 32.1762ZM89.3441 36.5621C89.8624 36.5621 90.2811 36.9807 90.2811 37.499C90.2811 38.0174 89.8624 38.436 89.3441 38.436C88.8258 38.436 88.4071 38.0174 88.4071 37.499C88.4071 36.9873 88.8258 36.5621 89.3441 36.5621ZM86.4069 37.499C86.4069 37.3861 86.4933 37.2997 86.6063 37.2997C86.7192 37.2997 86.8056 37.3927 86.8056 37.499C86.8056 38.1968 87.0914 38.8347 87.5499 39.2932C88.0084 39.7518 88.6397 40.0375 89.3441 40.0375C89.4571 40.0375 89.5435 40.1239 89.5435 40.2369C89.5435 40.3498 89.4571 40.4362 89.3441 40.4362C88.5334 40.4362 87.7958 40.1106 87.2642 39.579C86.7325 39.0474 86.4069 38.3164 86.4069 37.499ZM92.2414 37.0272C92.2614 37.1335 92.1816 37.2399 92.0753 37.2532C91.969 37.2731 91.8627 37.1934 91.8494 37.087C91.763 36.5554 91.5105 36.077 91.1516 35.7115C90.7861 35.346 90.3143 35.0868 89.7827 34.9938C89.6764 34.9738 89.6033 34.8742 89.6166 34.7612C89.6365 34.6549 89.7362 34.5818 89.8492 34.5951C90.4605 34.7014 91.0121 35.0004 91.4307 35.4257C91.8494 35.8577 92.1418 36.4092 92.2414 37.0272ZM89.3441 34.0236C91.2646 34.0236 92.8262 35.5786 92.8262 37.5057C92.8262 39.4261 91.2712 40.9878 89.3441 40.9878C87.417 40.9878 85.862 39.4328 85.862 37.5057C85.862 35.5786 87.417 34.0236 89.3441 34.0236Z" fill="#A4D0FC"/>
</svg>
