<svg width="83" height="76" viewBox="0 0 83 76" fill="none" xmlns="http://www.w3.org/2000/svg">
<path d="M51.9441 17.18C51.2968 17.18 50.5756 18.2277 50.5749 18.2289C50.6552 17.9209 50.8038 17.5176 51.0733 17.1983C50.5656 17.7995 50.4861 18.6987 50.4861 18.6987C50.4861 18.6987 50.3728 18.6614 50.2337 18.6614C50.0105 18.6614 49.7207 18.757 49.7246 19.2543C49.7307 20.0548 50.6275 20.7634 50.6431 20.7755C50.704 20.4581 50.7512 20.2499 50.7512 20.2499C50.7512 20.2499 51.0966 20.5116 51.8755 20.783C52.6544 21.0541 53.8375 21.1 54.064 21.3656C54.2905 21.6312 54.0682 21.7065 54.28 22.1568C54.468 22.5554 54.8394 22.7594 54.9601 22.7594C54.9757 22.7594 54.9871 22.7559 54.9933 22.7491C55.0357 22.7029 55.1387 21.7284 55.5518 21.356C55.5483 21.3586 55.5459 21.3607 55.5445 21.3618C55.5443 21.3621 55.5441 21.3625 55.5436 21.3628C55.5436 21.363 55.5434 21.363 55.5434 21.363C55.5434 21.363 55.5434 21.3628 55.5436 21.3628C55.5438 21.3625 55.5441 21.3623 55.5445 21.3618C55.6441 21.2695 55.7615 21.2118 55.9015 21.2118C55.9348 21.2118 55.9692 21.2151 56.005 21.2218C56.6558 21.3449 57.053 21.8037 57.0528 22.368C57.0528 22.4984 57.0318 22.6345 56.9877 22.7733C56.7532 23.5124 55.7957 23.7948 55.7957 23.7948L55.7827 23.915L55.8585 24.5841C56.3327 24.2225 57.6744 23.0785 57.7026 21.6891C57.6972 21.9354 57.6503 22.1737 57.5749 22.4017C57.5823 22.3614 57.6861 21.7579 57.3193 21.2567C56.9402 20.7383 55.8804 20.2334 55.5434 20.2334C55.2208 20.2334 55.1189 20.5257 55.0089 20.5257C55.004 20.5257 54.9989 20.525 54.9938 20.5239C54.8775 20.495 54.9501 20.2041 54.8631 20.0006C54.7759 19.7971 54.2817 19.7534 53.584 19.0412C52.8862 18.3291 52.6246 17.21 51.9704 17.1807C51.9613 17.18 51.9527 17.18 51.9441 17.18ZM51.0975 17.1697C51.0896 17.1786 51.0822 17.1874 51.0745 17.1965C51.0822 17.1874 51.0898 17.1786 51.0975 17.1697ZM51.1089 17.1572C51.1061 17.1604 51.1033 17.1634 51.1003 17.1667C51.1031 17.1634 51.1061 17.1604 51.1089 17.1572ZM51.1229 17.1418C51.1192 17.1458 51.1157 17.1495 51.1122 17.1534C51.1159 17.1495 51.1194 17.1455 51.1229 17.1418ZM51.135 17.1288C51.1312 17.1327 51.1278 17.1365 51.1243 17.1404C51.1278 17.1365 51.1312 17.1325 51.135 17.1288ZM51.1464 17.1167C51.1438 17.1195 51.1415 17.122 51.1387 17.1246C51.1412 17.122 51.1438 17.1195 51.1464 17.1167ZM51.1731 17.0897C51.171 17.0918 51.1689 17.0939 51.1668 17.096C51.1689 17.0937 51.1708 17.0918 51.1731 17.0897ZM51.1847 17.0781C51.1829 17.0799 51.181 17.0816 51.1794 17.0834C51.181 17.0816 51.1829 17.0797 51.1847 17.0781ZM51.2131 17.0511C51.2115 17.0527 51.2096 17.0544 51.208 17.056C51.2096 17.0541 51.2115 17.0527 51.2131 17.0511ZM51.2424 17.0244C51.2408 17.0258 51.2392 17.0274 51.2375 17.0288C51.2392 17.0274 51.2408 17.026 51.2424 17.0244ZM51.2545 17.0139C51.2529 17.0153 51.2513 17.0167 51.2496 17.0181C51.2515 17.0167 51.2529 17.0153 51.2545 17.0139ZM51.2645 17.0053C51.2638 17.0058 51.2633 17.0065 51.2626 17.0069C51.2633 17.0065 51.264 17.006 51.2645 17.0053ZM51.2852 16.9883C51.284 16.9892 51.2829 16.9904 51.2815 16.9913C51.2827 16.9902 51.2838 16.9892 51.2852 16.9883ZM51.3296 16.9532C51.328 16.9544 51.3266 16.9555 51.325 16.9567C51.3266 16.9555 51.3282 16.9544 51.3296 16.9532ZM51.3759 16.9197C51.374 16.9209 51.3724 16.9223 51.3706 16.9234C51.3724 16.922 51.374 16.9209 51.3759 16.9197ZM51.4099 16.8967C51.408 16.8978 51.4061 16.899 51.4043 16.9004C51.4061 16.8992 51.4078 16.8981 51.4099 16.8967ZM51.4241 16.8876C51.422 16.889 51.4199 16.8902 51.418 16.8916C51.4201 16.8902 51.422 16.8888 51.4241 16.8876ZM51.4392 16.8781C51.4368 16.8795 51.4343 16.8811 51.432 16.8825C51.4343 16.8811 51.4366 16.8797 51.4392 16.8781ZM51.4589 16.866C51.4566 16.8674 51.4545 16.8685 51.4522 16.8699C51.4545 16.8688 51.4566 16.8674 51.4589 16.866ZM51.4743 16.8571C51.4717 16.8585 51.4692 16.8602 51.4666 16.8616C51.4694 16.8599 51.4717 16.8585 51.4743 16.8571ZM51.5103 16.8369C51.5073 16.8385 51.5041 16.8404 51.501 16.842C51.5041 16.8402 51.5073 16.8385 51.5103 16.8369ZM51.5278 16.8278C51.5243 16.8297 51.5206 16.8316 51.5173 16.8334C51.5206 16.8316 51.5241 16.8297 51.5278 16.8278ZM51.5469 16.8178C51.5422 16.8202 51.5375 16.8225 51.5327 16.825C51.5375 16.8227 51.5422 16.8204 51.5469 16.8178ZM51.5638 16.8097C51.5603 16.8113 51.5569 16.8132 51.5534 16.8148C51.5569 16.813 51.5603 16.8113 51.5638 16.8097ZM51.6187 16.7846C51.6145 16.7864 51.6108 16.7881 51.6066 16.7899C51.6106 16.7881 51.6148 16.7862 51.6187 16.7846ZM51.6401 16.7755C51.6345 16.7778 51.6292 16.7802 51.6234 16.7825C51.6289 16.7802 51.6345 16.7778 51.6401 16.7755ZM51.6569 16.769C51.6522 16.7709 51.6476 16.7727 51.6431 16.7746C51.6476 16.7725 51.6522 16.7706 51.6569 16.769ZM51.7155 16.7474C51.7106 16.7492 51.7057 16.7509 51.7006 16.7527C51.7055 16.7509 51.7104 16.749 51.7155 16.7474ZM51.7559 16.7341C51.7436 16.7378 51.7313 16.742 51.719 16.746C51.731 16.742 51.7434 16.7381 51.7559 16.7341ZM51.7757 16.7283C51.7701 16.7299 51.7648 16.7316 51.7592 16.7332C51.7648 16.7316 51.7704 16.7299 51.7757 16.7283ZM51.8166 16.7169C51.8036 16.7204 51.7908 16.7239 51.7778 16.7276C51.7908 16.7239 51.8038 16.7204 51.8166 16.7169ZM51.8385 16.7116C51.8322 16.7132 51.8259 16.7146 51.8197 16.7162C51.8259 16.7146 51.8322 16.7129 51.8385 16.7116ZM51.8594 16.7067C51.8527 16.7083 51.8457 16.7097 51.8392 16.7113C51.8457 16.7097 51.8527 16.7081 51.8594 16.7067ZM51.8794 16.7022C51.8734 16.7036 51.8671 16.7048 51.8611 16.7062C51.8671 16.7048 51.8732 16.7034 51.8794 16.7022ZM51.9232 16.6936C51.9092 16.6962 51.8959 16.6988 51.8822 16.7016C51.8959 16.6988 51.9094 16.696 51.9232 16.6936ZM51.9443 16.6899C51.938 16.6909 51.9318 16.692 51.9255 16.6932C51.9315 16.692 51.9378 16.6911 51.9443 16.6899ZM51.9885 16.6834C51.9743 16.6853 51.9604 16.6874 51.9466 16.6897C51.9606 16.6874 51.9746 16.6853 51.9885 16.6834ZM52.0111 16.6804C52.0048 16.6811 51.9983 16.682 51.992 16.6827C51.9983 16.682 52.0046 16.6813 52.0111 16.6804ZM52.0804 16.6736C52.0736 16.6741 52.0667 16.6748 52.0601 16.6753C52.0667 16.6748 52.0734 16.6743 52.0804 16.6736ZM52.1034 16.672C52.0962 16.6725 52.089 16.6729 52.0815 16.6734C52.0887 16.6732 52.096 16.6725 52.1034 16.672ZM52.125 16.6709C52.119 16.6711 52.1132 16.6715 52.1074 16.6718C52.1132 16.6715 52.1192 16.6713 52.125 16.6709Z" fill="#103041"/>
<path d="M51.6276 24.249C51.5885 24.249 51.5466 24.2465 51.502 24.2407C50.911 24.1653 50.8568 23.5876 50.8717 23.4746C50.8717 23.4746 52.2041 23.8523 52.2311 23.8595H52.2306C52.219 23.8595 52.1878 23.9569 52.0999 24.0541C52.012 24.1518 51.8669 24.249 51.6276 24.249ZM52.8495 22.4252C52.8379 22.4252 52.8263 22.4236 52.8149 22.4203C52.7253 22.395 52.6804 22.275 52.7153 22.1531C52.7455 22.0463 52.8263 21.9729 52.9058 21.9726C52.9172 21.9726 52.9288 21.9742 52.9402 21.9775C53.0302 22.0029 53.0746 22.1229 53.04 22.2447C53.01 22.3519 52.9293 22.4252 52.8495 22.4252ZM51.5564 23.3269L51.5462 23.3262C51.5283 23.3229 51.1061 23.2448 51.0578 22.9694C51.0143 22.7201 51.5313 21.9615 51.6353 21.8119C51.6464 21.7954 51.6643 21.7868 51.6827 21.7868C51.6943 21.7868 51.706 21.7903 51.7162 21.7973C51.7427 21.8156 51.749 21.8514 51.7306 21.878C51.5004 22.2091 51.1452 22.7929 51.1724 22.9494C51.2006 23.1113 51.4666 23.1934 51.5666 23.2113C51.598 23.2169 51.6192 23.2473 51.6136 23.2787C51.6087 23.3071 51.5838 23.3269 51.5564 23.3269ZM55.6757 23.1506L55.6325 23.1315C55.6264 23.1246 55.4843 22.9592 55.482 22.5513C55.4794 22.144 55.7499 21.8105 55.7613 21.7963C55.7727 21.7826 55.7897 21.7754 55.8064 21.7754C55.8195 21.7754 55.8325 21.7796 55.8429 21.7887C55.8681 21.8091 55.8716 21.8454 55.8511 21.8705C55.849 21.8731 55.6869 22.0736 55.6234 22.3401C55.695 22.3003 55.7995 22.2615 55.9444 22.2503C55.9623 22.2487 55.9797 22.248 55.9972 22.248C56.2867 22.248 56.4923 22.4536 56.5011 22.4624C56.5237 22.4854 56.5235 22.522 56.5009 22.5445L56.46 22.5615L56.4186 22.5443C56.4167 22.5427 56.2334 22.3645 55.9888 22.3645C55.9771 22.3645 55.965 22.365 55.9532 22.3657C55.7357 22.3829 55.6313 22.4675 55.5994 22.4989C55.5985 22.5159 55.5981 22.5331 55.5981 22.5503C55.6001 22.9097 55.7183 23.0532 55.7197 23.0545C55.7402 23.079 55.7376 23.1155 55.7136 23.1364L55.6757 23.1506ZM53.6449 21.9468C53.6189 21.9468 53.5954 21.9291 53.5886 21.9026C53.5886 21.9021 53.5547 21.7884 53.3749 21.6538C53.1923 21.5165 52.9146 21.5245 52.9123 21.5238C52.8821 21.5219 52.8535 21.4998 52.8521 21.4677C52.8514 21.4356 52.8763 21.4089 52.9084 21.4077C52.91 21.4077 52.9156 21.4075 52.9246 21.4075C52.9925 21.4075 53.253 21.417 53.4447 21.5607C53.6577 21.72 53.6975 21.8591 53.7014 21.8742C53.7091 21.9052 53.6905 21.9373 53.6596 21.9452L53.6449 21.9468ZM50.7508 20.249C50.7508 20.249 50.7036 20.4572 50.6426 20.7746C50.6419 20.7781 50.6412 20.7814 50.6408 20.7846C50.6901 20.8344 50.7312 20.8942 50.7631 20.9616C50.7961 20.9542 50.8322 20.9484 50.8717 20.9446C50.9066 20.9414 50.9392 20.94 50.9689 20.94C51.1822 20.94 51.2641 21.0144 51.2736 21.0244C51.2966 21.047 51.2966 21.084 51.2736 21.1065C51.2622 21.1179 51.2473 21.1235 51.2324 21.1235C51.2178 21.1235 51.2029 21.1179 51.1915 21.1065C51.1915 21.1065 51.1322 21.0563 50.968 21.0563C50.9422 21.0563 50.9138 21.0574 50.8826 21.0605C50.8547 21.063 50.8292 21.067 50.8052 21.0716C50.8296 21.153 50.8424 21.2414 50.8426 21.334C50.8429 21.3868 50.8389 21.441 50.8305 21.4958C50.8615 21.4712 50.8966 21.457 50.9313 21.457C50.9429 21.457 50.9545 21.4586 50.9657 21.4619C51.0554 21.4877 51.1001 21.6072 51.065 21.7296C51.035 21.8363 50.954 21.9096 50.8745 21.9096C50.8629 21.9096 50.8515 21.908 50.8401 21.9047C50.7924 21.8912 50.7578 21.851 50.7405 21.798C50.7261 21.8296 50.7105 21.8603 50.6926 21.8898V21.8919C50.6203 22.017 50.5273 22.1205 50.424 22.1961C50.3584 22.8096 50.3433 23.4097 50.4696 23.7274C50.7087 24.3293 51.1145 24.5374 51.3666 24.8593C51.3669 24.8595 51.4006 24.8847 51.4638 24.9226C52.5841 24.0439 53.4263 23.4857 54.3317 23.4857C54.7845 23.4857 55.2529 23.6253 55.7804 23.9341L55.782 23.9141H55.7823L55.7953 23.7941C55.7953 23.7941 56.7525 23.5118 56.9872 22.7727C57.0312 22.6338 57.0523 22.4978 57.0523 22.3673C57.0523 22.4971 57.0312 22.6327 56.9872 22.7708C56.9072 23.0229 56.7432 23.2204 56.5618 23.3729C56.6344 23.3041 56.9016 23.015 56.8825 22.4615C56.8612 21.8214 56.4686 21.6117 56.0832 21.4084C55.932 21.3286 55.8162 21.3044 55.7313 21.3044C55.6285 21.3044 55.5711 21.34 55.5508 21.3554C55.1378 21.7275 55.0348 22.7022 54.9924 22.7485C54.9862 22.7555 54.9748 22.7587 54.9592 22.7587C54.8385 22.7587 54.4671 22.5545 54.2791 22.1561C54.0673 21.7059 54.2896 21.6305 54.0631 21.3649C53.8365 21.0993 52.6535 21.0535 51.8746 20.7823C51.0964 20.5107 50.7508 20.249 50.7508 20.249Z" fill="#DE735A"/>
<path d="M51.5617 25.2615C51.5715 25.3055 51.5803 25.3559 51.588 25.412C51.5813 25.3471 51.5724 25.2941 51.5617 25.2615ZM54.3319 23.4854C53.4265 23.4854 52.5844 24.0435 51.4641 24.9222C51.6466 25.0317 52.0757 25.2485 52.6632 25.2841C52.7123 25.2871 52.7606 25.2885 52.8081 25.2885C53.5237 25.2885 54.0244 24.9652 54.0244 24.9652C54.0244 24.9652 53.3425 25.7285 52.7906 25.9874C52.2995 26.2178 51.7508 26.2372 51.6371 26.2388C51.6401 26.4195 51.6401 26.6053 51.6383 26.7842C52.1515 26.6228 52.5858 26.499 52.8488 26.4467C53.7668 26.0755 54.7522 25.8574 55.5566 25.8574C55.7139 25.8574 55.8641 25.8657 56.0057 25.8829L55.8585 24.5829L55.7827 23.9138V23.9135L55.7808 23.9335C55.2531 23.6249 54.7845 23.4854 54.3319 23.4854Z" fill="#DE735A"/>
<path d="M51.3669 24.8594C51.3669 24.8594 51.5029 25.0833 51.5618 25.262C51.5346 25.1399 51.4871 25.0394 51.4285 24.9484L51.4297 24.9475C51.4101 24.9171 51.389 24.8877 51.3669 24.8594Z" fill="#7F7F7F"/>
<path d="M51.3669 24.8594C51.3892 24.8877 51.4104 24.9171 51.4299 24.9475L51.4308 24.9489C51.442 24.9401 51.4532 24.9315 51.4643 24.9226C51.4008 24.8847 51.3671 24.8596 51.3669 24.8594Z" fill="#CD392D"/>
<path d="M51.588 25.4121C51.6192 25.7045 51.6157 26.2389 51.6157 26.2389C51.6157 26.2389 51.6175 26.2389 51.621 26.2389C51.6248 26.2389 51.6301 26.2389 51.6371 26.2389C51.632 25.9254 51.6178 25.6282 51.588 25.4121Z" fill="#7F7F7F"/>
<path d="M51.464 24.9229C51.4529 24.9317 51.442 24.9403 51.4306 24.9491L51.4299 24.9477H51.4296L51.4285 24.9487C51.4871 25.0396 51.5348 25.1401 51.5617 25.2622C51.5724 25.2947 51.581 25.3478 51.588 25.4127C51.6175 25.6285 51.6317 25.9259 51.6371 26.2394C51.751 26.238 52.2997 26.2187 52.7906 25.988C53.3425 25.7292 54.0244 24.9659 54.0244 24.9659C54.0244 24.9659 53.5237 25.2892 52.8081 25.2892C52.7606 25.2892 52.7123 25.2878 52.6632 25.2847C52.0757 25.2492 51.6464 25.0324 51.464 24.9229Z" fill="#CD392D"/>
<path d="M55.8065 21.7754C55.7897 21.7754 55.7727 21.7826 55.7613 21.7963C55.7499 21.8105 55.4797 22.144 55.482 22.5513C55.4843 22.9592 55.6267 23.1245 55.6325 23.1315L55.6757 23.1506L55.7139 23.1364C55.7378 23.1157 55.7404 23.079 55.7199 23.0545C55.7185 23.0531 55.6004 22.9096 55.5983 22.5503C55.5983 22.5331 55.5985 22.5159 55.5997 22.4989C55.5932 22.5054 55.5897 22.5096 55.589 22.5106C55.5774 22.525 55.5602 22.5326 55.5432 22.5326C55.5308 22.5326 55.5183 22.5287 55.5078 22.5206C55.4825 22.5012 55.4776 22.4652 55.4969 22.4398C55.4999 22.4361 55.5378 22.3875 55.6236 22.3398C55.6871 22.0733 55.8492 21.8728 55.8513 21.8703C55.8718 21.8452 55.8683 21.8089 55.8432 21.7884C55.8323 21.7796 55.8192 21.7754 55.8065 21.7754Z" fill="#591C16"/>
<path d="M55.9972 22.2482C55.9799 22.2482 55.9623 22.2489 55.9444 22.2505C55.7995 22.2617 55.6948 22.3005 55.6234 22.3403C55.5376 22.388 55.4997 22.4366 55.4967 22.4403C55.4774 22.4656 55.4822 22.5017 55.5076 22.521C55.5181 22.5291 55.5306 22.5331 55.5429 22.5331C55.5602 22.5331 55.5771 22.5256 55.5888 22.511C55.5895 22.5101 55.5929 22.5059 55.5995 22.4994C55.6313 22.468 55.7357 22.3833 55.9532 22.3661C55.9651 22.3652 55.9772 22.3649 55.9888 22.3649C56.2335 22.3649 56.4167 22.5429 56.4186 22.5447L56.46 22.5619L56.5009 22.5449C56.5235 22.5224 56.5239 22.4856 56.5011 22.4628C56.4923 22.4538 56.2867 22.2482 55.9972 22.2482ZM51.6829 21.7872C51.6648 21.7872 51.6469 21.7958 51.6355 21.8123C51.5315 21.9619 51.0145 22.7205 51.058 22.9699C51.1064 23.2452 51.5283 23.3236 51.5464 23.3266L51.5566 23.3273C51.5841 23.3273 51.609 23.3076 51.6139 23.2794C51.6194 23.248 51.5985 23.2178 51.5669 23.212C51.4669 23.1941 51.2008 23.1117 51.1727 22.9501C51.1455 22.7936 51.5006 22.2096 51.7308 21.8786C51.7492 21.8521 51.7429 21.8163 51.7164 21.7979C51.7062 21.7907 51.6943 21.7872 51.6829 21.7872ZM52.2311 23.8599C52.2313 23.8599 52.2313 23.8599 52.2316 23.8599C52.2316 23.8601 52.2316 23.8601 52.2311 23.8599ZM50.8717 23.475C50.8568 23.5883 50.911 24.1657 51.502 24.2411C51.5464 24.2467 51.5883 24.2495 51.6276 24.2495C51.8669 24.2495 52.012 24.1523 52.1002 24.0546C52.1881 23.9571 52.2195 23.8599 52.2311 23.8599C52.2041 23.8527 50.8717 23.475 50.8717 23.475ZM52.906 21.9731C52.8265 21.9731 52.7458 22.0465 52.7156 22.1535C52.6807 22.2756 52.7253 22.3954 52.8151 22.4208C52.8265 22.424 52.8381 22.4256 52.8498 22.4256C52.9295 22.4256 53.0102 22.3524 53.0405 22.2452C53.0749 22.1231 53.0307 22.0033 52.9407 21.9779C52.9291 21.9747 52.9174 21.9731 52.906 21.9731ZM50.9315 21.4572C50.8968 21.4572 50.8617 21.4712 50.8308 21.496C50.8203 21.5649 50.8031 21.6344 50.7787 21.704C50.7673 21.7361 50.7547 21.7675 50.7408 21.7982C50.7578 21.8512 50.7926 21.8914 50.8403 21.9049C50.8517 21.9082 50.8633 21.9098 50.8747 21.9098C50.9543 21.9098 51.035 21.8365 51.0652 21.7298C51.1001 21.6074 51.0557 21.4879 50.9659 21.4621C50.9545 21.4588 50.9429 21.4572 50.9315 21.4572ZM50.9689 20.9404C50.9392 20.9404 50.9066 20.9418 50.8717 20.9451C50.8324 20.9488 50.7961 20.9546 50.7631 20.9621C50.7796 20.9969 50.7936 21.0337 50.8052 21.0721C50.8292 21.0674 50.8547 21.0635 50.8826 21.0609C50.9138 21.0581 50.9422 21.0567 50.968 21.0567C51.1324 21.0567 51.1915 21.107 51.1915 21.107C51.2029 21.1183 51.2178 21.1239 51.2324 21.1239C51.2473 21.1239 51.2622 21.1181 51.2736 21.107C51.2966 21.0844 51.2966 21.0474 51.2736 21.0249C51.2641 21.0149 51.1824 20.9404 50.9689 20.9404ZM52.9246 21.4079C52.9156 21.4079 52.91 21.4081 52.9084 21.4081C52.8763 21.4093 52.8511 21.436 52.8521 21.4681C52.8535 21.5002 52.8818 21.5223 52.9123 21.5242C52.9149 21.5249 53.1923 21.5172 53.3749 21.6542C53.5547 21.7889 53.5886 21.9028 53.5886 21.903C53.5954 21.9296 53.6189 21.9472 53.6449 21.9472L53.6593 21.9454C53.6903 21.9377 53.7089 21.9056 53.7012 21.8744C53.6972 21.8593 53.6575 21.7205 53.4444 21.5609C53.253 21.4174 52.9925 21.4079 52.9246 21.4079Z" fill="#591C16"/>
<path d="M51.1122 17.1534C51.111 17.1546 51.1099 17.156 51.1087 17.1571C51.1101 17.1557 51.1113 17.1546 51.1122 17.1534ZM51.1243 17.1401C51.1241 17.1406 51.1234 17.1411 51.1231 17.1415C51.1234 17.1413 51.1238 17.1406 51.1243 17.1401ZM51.1508 17.112C51.1494 17.1136 51.1478 17.115 51.1462 17.1166C51.148 17.115 51.1494 17.1136 51.1508 17.112ZM51.1669 17.0957C51.165 17.0976 51.1629 17.0994 51.1613 17.1015C51.1629 17.0997 51.1648 17.0978 51.1669 17.0957ZM51.208 17.0557C51.2059 17.0578 51.2034 17.0599 51.2013 17.0622C51.2034 17.0601 51.2057 17.0578 51.208 17.0557ZM51.2201 17.0446C51.2178 17.0466 51.2152 17.049 51.2131 17.0511C51.2155 17.0487 51.2178 17.0466 51.2201 17.0446ZM51.2375 17.0287C51.2334 17.0325 51.2292 17.0362 51.225 17.0401C51.2292 17.0364 51.2334 17.0325 51.2375 17.0287ZM51.2499 17.018C51.2476 17.0201 51.245 17.0222 51.2427 17.0245C51.245 17.0222 51.2473 17.0201 51.2499 17.018ZM51.2934 16.9815C51.2906 16.9838 51.288 16.9859 51.2852 16.9883C51.2878 16.9859 51.2906 16.9836 51.2934 16.9815ZM51.338 16.9469C51.3352 16.949 51.3327 16.9511 51.3299 16.9531C51.3324 16.9511 51.3352 16.949 51.338 16.9469ZM51.3585 16.9318C51.3534 16.9355 51.348 16.9394 51.3427 16.9434C51.348 16.9394 51.3531 16.9357 51.3585 16.9318ZM51.3706 16.9234C51.3678 16.9252 51.3652 16.9271 51.3624 16.929C51.3652 16.9271 51.368 16.9252 51.3706 16.9234ZM51.3841 16.9138C51.3813 16.9157 51.3787 16.9176 51.3759 16.9194C51.3787 16.9176 51.3815 16.9157 51.3841 16.9138ZM51.4041 16.9004C51.3992 16.9036 51.3943 16.9069 51.3897 16.9101C51.3945 16.9069 51.3994 16.9036 51.4041 16.9004ZM51.418 16.8913C51.4152 16.8931 51.4127 16.8948 51.4099 16.8966C51.4124 16.895 51.4152 16.8931 51.418 16.8913ZM51.432 16.8824C51.4294 16.8841 51.4269 16.8857 51.4241 16.8873C51.4266 16.8859 51.4294 16.8841 51.432 16.8824ZM51.4666 16.8615C51.4641 16.8629 51.4615 16.8645 51.459 16.8662C51.4615 16.8645 51.4643 16.8629 51.4666 16.8615ZM51.5011 16.842C51.499 16.8431 51.4969 16.8443 51.495 16.8452C51.4971 16.8441 51.4992 16.8431 51.5011 16.842ZM51.5329 16.825C51.5313 16.8259 51.5294 16.8269 51.5278 16.8278C51.5294 16.8269 51.5311 16.8259 51.5329 16.825ZM51.5692 16.8071C51.5673 16.808 51.5655 16.809 51.5639 16.8097C51.5657 16.8087 51.5673 16.8078 51.5692 16.8071ZM51.6066 16.7897C51.6048 16.7906 51.6029 16.7913 51.6011 16.7922C51.6029 16.7915 51.6048 16.7906 51.6066 16.7897ZM51.6234 16.7824C51.622 16.7831 51.6204 16.7838 51.6187 16.7845C51.6201 16.7838 51.622 16.7831 51.6234 16.7824ZM51.6432 16.7743C51.6422 16.7748 51.6413 16.775 51.6401 16.7755C51.6411 16.7752 51.6422 16.7748 51.6432 16.7743ZM51.6622 16.7666C51.6604 16.7673 51.6585 16.768 51.6569 16.7687C51.6587 16.768 51.6604 16.7673 51.6622 16.7666ZM51.6792 16.7601C51.6785 16.7603 51.6776 16.7608 51.6766 16.761C51.6776 16.7608 51.6785 16.7606 51.6792 16.7601ZM51.7004 16.7524C51.6992 16.7529 51.698 16.7531 51.6969 16.7536C51.698 16.7534 51.6992 16.7529 51.7004 16.7524ZM51.719 16.7462C51.7178 16.7466 51.7167 16.7469 51.7155 16.7473C51.7167 16.7469 51.7178 16.7464 51.719 16.7462ZM51.7592 16.7331C51.758 16.7336 51.7569 16.7338 51.7557 16.7341C51.7569 16.7338 51.758 16.7334 51.7592 16.7331ZM51.778 16.7276C51.7774 16.7278 51.7767 16.728 51.7757 16.7283C51.7764 16.728 51.7774 16.7278 51.778 16.7276ZM51.839 16.7113C51.8387 16.7113 51.8388 16.7113 51.8385 16.7115C51.8385 16.7113 51.8387 16.7113 51.839 16.7113ZM51.8822 16.7015C51.8813 16.7017 51.8804 16.702 51.8792 16.7022C51.8804 16.702 51.8815 16.7017 51.8822 16.7015ZM51.9469 16.6894C51.946 16.6896 51.9453 16.6896 51.9443 16.6899C51.945 16.6899 51.946 16.6896 51.9469 16.6894ZM51.992 16.6829C51.9909 16.6831 51.9899 16.6831 51.9888 16.6834C51.9897 16.6831 51.9909 16.6829 51.992 16.6829ZM52.0132 16.6801C52.0125 16.6801 52.0118 16.6803 52.0111 16.6803C52.0118 16.6803 52.0125 16.6803 52.0132 16.6801ZM52.0362 16.6776C52.0357 16.6776 52.0355 16.6776 52.0348 16.6778C52.0353 16.6778 52.0357 16.6776 52.0362 16.6776ZM52.0599 16.6752C52.0588 16.6752 52.0574 16.6755 52.0562 16.6755C52.0574 16.6755 52.0588 16.6755 52.0599 16.6752ZM52.0816 16.6736C52.0811 16.6736 52.0809 16.6736 52.0804 16.6736C52.0806 16.6736 52.0811 16.6736 52.0816 16.6736ZM52.1074 16.672C52.106 16.672 52.1048 16.6722 52.1034 16.6722C52.1048 16.672 52.106 16.672 52.1074 16.672ZM52.1304 16.6706C52.1285 16.6706 52.1267 16.6708 52.125 16.6708C52.1267 16.6708 52.1288 16.6708 52.1304 16.6706ZM52.2137 16.6689C53.6512 16.6689 53.9724 18.2974 54.9864 18.8663C56.0141 19.4431 57.4719 19.9426 57.6791 21.3246C57.6977 21.4476 57.7049 21.569 57.7026 21.6888C57.7052 21.569 57.698 21.4476 57.6796 21.3246C57.4719 19.9429 56.0146 19.4431 54.9864 18.8663C53.9726 18.2974 53.651 16.6687 52.2137 16.6689Z" fill="white"/>
<path d="M52.2136 16.6689C52.1934 16.6689 52.1727 16.6692 52.152 16.6699C52.1448 16.6701 52.1376 16.6703 52.1304 16.6708C52.1288 16.6708 52.1267 16.671 52.125 16.671C52.1192 16.6713 52.1132 16.6717 52.1074 16.672C52.106 16.672 52.1048 16.6722 52.1034 16.6722C52.0962 16.6727 52.089 16.6731 52.0815 16.6736C52.0811 16.6736 52.0804 16.6736 52.0804 16.6736C52.0736 16.6741 52.0667 16.6748 52.0601 16.6752C52.059 16.6752 52.0576 16.6755 52.0564 16.6755C52.0499 16.6762 52.0429 16.6766 52.0364 16.6773C52.036 16.6773 52.0355 16.6773 52.035 16.6776C52.0278 16.6782 52.0206 16.6792 52.0134 16.6799C52.0127 16.6799 52.012 16.6801 52.0113 16.6801C52.005 16.6808 51.9985 16.6817 51.9922 16.6824C51.9911 16.6827 51.9901 16.6827 51.989 16.6829C51.9748 16.6848 51.9608 16.6869 51.9471 16.6892C51.9462 16.6894 51.9453 16.6894 51.9446 16.6896C51.9383 16.6906 51.932 16.6917 51.9257 16.6929C51.925 16.6931 51.9241 16.6931 51.9234 16.6934C51.9097 16.6959 51.8959 16.6985 51.8825 16.7013C51.8815 16.7015 51.8806 16.7017 51.8794 16.702C51.8734 16.7034 51.8671 16.7045 51.8611 16.7059C51.8606 16.7062 51.8601 16.7062 51.8594 16.7064C51.8527 16.708 51.8457 16.7094 51.8392 16.711L51.8387 16.7113C51.8325 16.7129 51.8262 16.7143 51.8199 16.7159C51.819 16.7162 51.8178 16.7164 51.8169 16.7166C51.8038 16.7201 51.7911 16.7236 51.778 16.7273C51.7773 16.7276 51.7766 16.7278 51.7757 16.728C51.7704 16.7296 51.7648 16.7313 51.7592 16.7329C51.758 16.7331 51.7569 16.7336 51.7557 16.7338C51.7434 16.7376 51.7311 16.7417 51.7187 16.7457C51.7178 16.7462 51.7164 16.7464 51.7152 16.7469C51.7104 16.7485 51.7052 16.7503 51.7004 16.7522C51.6992 16.7527 51.698 16.7531 51.6969 16.7534C51.6911 16.7555 51.6852 16.7576 51.6792 16.7599C51.6785 16.7601 51.6776 16.7606 51.6766 16.7608C51.6717 16.7627 51.6669 16.7645 51.6622 16.7664C51.6604 16.7671 51.6585 16.7678 51.6569 16.7685C51.6522 16.7703 51.6476 16.7722 51.6431 16.7741C51.6422 16.7745 51.6411 16.7748 51.6401 16.7752C51.6345 16.7776 51.629 16.7799 51.6234 16.7822C51.622 16.7829 51.6201 16.7836 51.6187 16.7843C51.6148 16.7859 51.6106 16.7878 51.6066 16.7897C51.6048 16.7906 51.6029 16.7913 51.601 16.7922C51.5966 16.7941 51.5924 16.7962 51.588 16.798C51.5869 16.7985 51.5857 16.799 51.5848 16.7997C51.5797 16.802 51.5743 16.8045 51.5692 16.8069C51.5673 16.8078 51.5655 16.8087 51.5638 16.8094C51.5603 16.811 51.5569 16.8129 51.5534 16.8145C51.5513 16.8157 51.5492 16.8166 51.5471 16.8178C51.5424 16.8201 51.5376 16.8224 51.5329 16.825C51.5313 16.8259 51.5294 16.8269 51.5278 16.8278C51.5243 16.8297 51.5208 16.8315 51.5173 16.8334C51.515 16.8345 51.5129 16.8357 51.5106 16.8369C51.5076 16.8385 51.5043 16.8404 51.5013 16.842C51.4992 16.8431 51.4971 16.8443 51.4952 16.8452C51.4906 16.8478 51.4862 16.8504 51.4815 16.8529C51.4792 16.8543 51.4769 16.8557 51.4745 16.8569C51.472 16.8583 51.4696 16.8599 51.4669 16.8613C51.4643 16.8627 51.4617 16.8643 51.4592 16.8659C51.4568 16.8673 51.4548 16.8687 51.4524 16.8699C51.448 16.8724 51.4436 16.8752 51.4392 16.878C51.4368 16.8794 51.4343 16.8811 51.432 16.8824C51.4294 16.8841 51.4268 16.8857 51.4241 16.8873C51.422 16.8887 51.4199 16.8899 51.418 16.8913C51.4152 16.8931 51.4127 16.8948 51.4099 16.8966C51.408 16.8978 51.4062 16.8992 51.4043 16.9004C51.3994 16.9036 51.3948 16.9069 51.3899 16.9101C51.388 16.9113 51.3861 16.9127 51.3843 16.9138C51.3815 16.9157 51.3789 16.9176 51.3761 16.9194C51.3743 16.9206 51.3724 16.922 51.3708 16.9231C51.368 16.925 51.3655 16.9269 51.3627 16.9287C51.3613 16.9297 51.3599 16.9306 51.3585 16.9318C51.3531 16.9357 51.348 16.9394 51.3427 16.9434C51.341 16.9445 51.3394 16.9457 51.3378 16.9469C51.335 16.949 51.3324 16.9511 51.3296 16.9531C51.328 16.9543 51.3266 16.9555 51.325 16.9566C51.3157 16.9636 51.3066 16.9708 51.2978 16.9778C51.2961 16.979 51.2947 16.9804 51.2931 16.9815C51.2903 16.9836 51.2878 16.9859 51.285 16.9883C51.2838 16.9892 51.2824 16.9904 51.2813 16.9913C51.2757 16.9959 51.2699 17.0006 51.2643 17.0055C51.2638 17.0059 51.2631 17.0066 51.2624 17.0071C51.2596 17.0094 51.2571 17.0118 51.2543 17.0141C51.2527 17.0155 51.251 17.0169 51.2494 17.0183C51.2471 17.0204 51.2445 17.0225 51.2422 17.0248C51.2406 17.0262 51.2387 17.0278 51.2373 17.0292C51.2331 17.0329 51.2289 17.0366 51.2247 17.0406C51.2231 17.042 51.2215 17.0436 51.2199 17.045C51.2175 17.0471 51.215 17.0494 51.2129 17.0515C51.2113 17.0532 51.2094 17.0548 51.2078 17.0564C51.2057 17.0585 51.2031 17.0606 51.201 17.0629C51.1975 17.0662 51.1943 17.0694 51.191 17.0727C51.1889 17.0748 51.1868 17.0766 51.1847 17.0787C51.1829 17.0806 51.181 17.0825 51.1794 17.0841C51.1773 17.0862 51.1752 17.0883 51.1731 17.0904C51.171 17.0925 51.1689 17.0946 51.1668 17.0966C51.165 17.0985 51.1629 17.1004 51.1612 17.1025C51.1578 17.1059 51.1545 17.1094 51.151 17.1129C51.1496 17.1146 51.148 17.1162 51.1464 17.1176C51.1438 17.1201 51.1415 17.1229 51.1387 17.1255C51.1375 17.1269 51.1361 17.1283 51.135 17.1294C51.1313 17.1334 51.1278 17.1371 51.1243 17.1411C51.1238 17.1415 51.1233 17.142 51.1231 17.1425C51.1194 17.1464 51.1159 17.1501 51.1124 17.1541C51.1112 17.1553 51.1101 17.1567 51.1089 17.1578C51.1061 17.1611 51.1033 17.1641 51.1003 17.1673C51.0994 17.1683 51.0985 17.1694 51.0975 17.1704C51.0896 17.1792 51.0822 17.188 51.0745 17.1971C51.074 17.1976 51.0736 17.1983 51.0731 17.1987C50.8036 17.5181 50.6549 17.9213 50.5747 18.2293C50.5754 18.2281 51.2966 17.1804 51.9439 17.1804C51.9525 17.1804 51.9613 17.1806 51.9699 17.1808C52.6239 17.2101 52.8858 18.3293 53.5835 19.0414C54.2812 19.7536 54.7757 19.7973 54.8626 20.0008C54.9496 20.2043 54.8771 20.495 54.9934 20.5241C54.9985 20.5255 55.0036 20.5259 55.0085 20.5259C55.1185 20.5259 55.2203 20.2336 55.5429 20.2336C55.8799 20.2336 56.9398 20.7385 57.3188 21.2569C57.6856 21.7579 57.5819 22.3616 57.5744 22.4019C57.65 22.1742 57.6968 21.9356 57.7021 21.6893C57.7045 21.5695 57.6972 21.4481 57.6786 21.325C57.4714 19.9433 56.0136 19.4435 54.9859 18.8668C53.9724 18.2974 53.6509 16.6689 52.2136 16.6689Z" fill="#1B526F"/>
<path d="M55.5434 21.3626C55.5434 21.3629 55.5434 21.3629 55.5434 21.3626C55.5431 21.3629 55.5434 21.3629 55.5434 21.3626ZM55.5443 21.3619C55.5441 21.3624 55.5436 21.3624 55.5434 21.3626C55.5438 21.3622 55.5441 21.3622 55.5443 21.3619ZM55.9013 21.2119C55.7613 21.2119 55.6441 21.2696 55.5443 21.3619C55.5457 21.3608 55.548 21.3587 55.5515 21.3561C55.6497 21.2677 55.765 21.2135 55.9013 21.2135C55.9346 21.2135 55.969 21.2168 56.0046 21.2235C56.6546 21.3463 57.0518 21.8045 57.0523 22.3683C57.0525 21.804 56.6551 21.3452 56.0046 21.2221C55.969 21.2152 55.9343 21.2119 55.9013 21.2119Z" fill="#16435B"/>
<path d="M55.9014 21.2129C55.7651 21.2129 55.6495 21.2673 55.5516 21.3555C55.5718 21.3401 55.629 21.3045 55.7321 21.3045C55.8169 21.3045 55.9325 21.3287 56.0839 21.4085C56.4693 21.612 56.8617 21.8218 56.8833 22.4616C56.9024 23.0151 56.6351 23.3042 56.5626 23.373C56.7437 23.2205 56.9077 23.023 56.9879 22.7709C57.0317 22.6327 57.0528 22.4972 57.0531 22.3674C57.0526 21.8036 56.6554 21.3455 56.0053 21.2227C55.969 21.2161 55.9346 21.2129 55.9014 21.2129Z" fill="#EBA17E"/>
<path d="M15.9872 75.6073L15.4197 75.4142L23.0639 13.626L23.6312 13.8192L15.9872 75.6073Z" fill="#103041"/>
<path d="M33.4785 75.9996L34.0453 75.8068L26.4011 14.0186L25.8341 14.2116L33.4785 75.9996Z" fill="#103041"/>
<path d="M71.6672 71.6421C71.6672 71.6421 71.4865 71.8779 71.4865 72.0349C71.4865 72.1919 71.5774 72.5649 71.5774 72.5649C71.5774 72.5649 74.1257 73.5852 74.9574 73.5659C75.789 73.5459 78.4639 71.78 79.0965 71.0332C79.73 70.289 82.495 64.98 82.3688 64.6551C82.2418 64.3314 81.9529 64.1814 81.6996 64.276C81.4468 64.3716 76.4761 69.7387 74.6855 70.7204C72.8963 71.7016 71.6672 71.6421 71.6672 71.6421Z" fill="#2894DB"/>
<path d="M74.4958 65.5777C74.4958 65.5777 74.1802 66.1661 74.252 66.421C74.3244 66.6759 74.7763 66.775 74.7763 66.9322C74.7763 67.0885 74.0532 68.3834 74.0532 68.3834C74.0532 68.3834 72.7159 68.3644 72.1559 68.8939C71.5949 69.4235 71.5405 71.4843 71.667 71.6413C71.794 71.7978 74.6316 72.8977 74.9935 72.8779C75.3544 72.8586 78.0846 71.1313 78.7595 70.1894C79.4342 69.2472 81.8204 64.7986 81.6995 64.2753C81.5785 63.752 78.3255 61.5281 78.0848 61.58C77.8436 61.6321 77.6501 61.7795 77.6501 61.7795C77.6501 61.7795 74.8002 63.3599 74.4958 65.5777Z" fill="#9ADAFC"/>
<path d="M76.607 69.5545C76.5749 69.5545 76.5449 69.5338 76.5347 69.501C76.5338 69.4975 76.4123 69.1284 75.9142 68.7958C75.4153 68.464 74.0994 68.4602 74.0545 68.4602H74.0536C74.0117 68.4602 73.9775 68.4263 73.9775 68.3849C73.9773 68.343 74.011 68.3086 74.0531 68.3086C74.1234 68.31 75.456 68.3086 75.9988 68.6695C76.5454 69.0338 76.6747 69.4394 76.6803 69.4566C76.6924 69.4963 76.67 69.5387 76.6298 69.551L76.607 69.5545Z" fill="#591C16"/>
<path d="M50.8689 73.7621C50.8689 73.7621 50.6605 74.0661 50.651 74.4001C50.6424 74.734 50.8059 74.9789 50.8059 74.9789C50.8059 74.9789 53.743 75.9602 54.8815 75.9997C56.0206 76.0392 62.8899 74.3119 62.9978 74.0175C63.1064 73.7235 62.9978 73.3888 62.5824 73.1737C62.167 72.9572 50.8689 73.7621 50.8689 73.7621Z" fill="#2894DB"/>
<path d="M55.3215 68.5278C55.3215 68.5278 54.6766 68.7506 54.6947 68.9664C54.7131 69.1817 54.9061 69.3718 54.8282 69.5553C54.7496 69.7383 51.6101 69.7383 51.0308 70.4837C50.4528 71.2293 50.651 73.6046 50.8689 73.7613C51.0857 73.9185 53.9956 74.9981 54.6645 74.9781C55.3336 74.9588 62.2575 73.5848 62.5822 73.1729C62.9076 72.7603 61.5038 68.8615 61.3291 68.6519C61.1542 68.4433 60.7081 68.2263 60.7081 68.2263L57.4484 67.4414C57.4484 67.4414 55.4452 68.2698 55.3215 68.5278Z" fill="#9ADAFC"/>
<path d="M54.7766 71.778C54.7452 71.778 54.7159 71.7587 54.7049 71.7275C54.7049 71.7275 54.6238 71.5533 54.0928 71.2172C53.5353 70.8633 51.9596 70.6932 51.9438 70.6919C51.9022 70.6872 51.8717 70.65 51.8764 70.6084C51.8808 70.5665 51.915 70.5351 51.9596 70.5407C52.0259 70.5477 53.5872 70.7163 54.1742 71.0891C54.7582 71.4586 54.8405 71.6556 54.848 71.6773C54.8622 71.7168 54.8412 71.7601 54.8014 71.7738L54.7766 71.778Z" fill="#591C16"/>
<path d="M57.9063 68.6143L57.9179 68.6436L57.9063 68.6143Z" fill="#67C7FA"/>
<path d="M54.831 69.5484C54.8292 69.5486 54.828 69.5486 54.828 69.5486C54.8289 69.5489 54.8299 69.5491 54.8306 69.5493C54.8308 69.5489 54.831 69.5484 54.831 69.5484ZM60.7056 68.2197L60.7084 68.2267C60.7084 68.2267 61.1544 68.4435 61.3293 68.6523C61.4856 68.84 62.6297 71.9914 62.6313 72.9403C62.6359 72.0011 61.4863 68.8332 61.3293 68.646C61.1544 68.4362 60.7084 68.2204 60.7084 68.2204L60.7056 68.2197Z" fill="#7F7F7F"/>
<path d="M60.7084 68.2266C60.7084 68.2266 60.5619 68.2712 60.3309 68.3305C60.3977 68.3663 60.8163 68.6084 60.3742 68.8161C59.9956 68.9952 59.1246 69.1059 58.6294 69.1059C58.4985 69.1059 58.3938 69.0982 58.3315 69.082C58.0813 69.0154 57.9529 68.7336 57.918 68.644C57.9575 68.7526 58.0722 69.1457 57.6991 69.239C57.2738 69.3448 54.9257 69.5404 54.8313 69.5483L54.8311 69.5492C55.0178 69.5957 55.2992 69.6141 55.6383 69.6141C56.2807 69.6141 57.1307 69.548 57.9394 69.4822C58.7485 69.4159 59.5165 69.3499 59.9937 69.3499C60.1846 69.3499 60.3291 69.3606 60.4107 69.3859C61.0066 69.5725 61.6757 71.28 61.414 72.3301C61.2677 72.9122 59.6993 73.7097 58.3317 74.3046C60.324 73.8867 62.4076 73.3869 62.5825 73.1655C62.6155 73.1236 62.6308 73.0462 62.6313 72.9401C62.6299 71.9912 61.4859 68.8399 61.3294 68.6522C61.1545 68.4435 60.7084 68.2266 60.7084 68.2266Z" fill="#67C7FA"/>
<path d="M59.3706 64.8408L60.7084 68.2275C60.7084 68.2275 59.5878 68.5685 58.6599 68.6206C57.7319 68.6734 57.6959 67.9531 57.201 67.9005C56.7077 67.8485 55.3215 68.529 55.3215 68.529L54.7769 67.5273L59.3706 64.8408Z" fill="#DE735A"/>
<path d="M54.9987 67.9355L55.161 68.2344L55.1612 68.2342L54.9987 67.9355Z" fill="#7F7F7F"/>
<path d="M59.5079 65.1885C59.0602 65.7439 58.3399 66.4918 57.3956 67.0077C56.5963 67.443 55.6804 67.6882 54.9392 67.8256L54.9987 67.9354L55.1613 68.234C55.1867 68.2296 56.8903 67.9298 58.1824 67.176C59.4841 66.4176 59.7411 65.7801 59.7411 65.7801L59.5079 65.1885Z" fill="#CD392D"/>
<path d="M75.5535 59.9932L77.6501 61.78C77.6501 61.78 77.6501 62.6831 77.1445 63.4094C76.7626 63.9574 76.3698 63.9178 76.0333 63.8788C75.9242 63.866 75.8209 63.8534 75.726 63.8604C75.3372 63.8897 74.496 65.5779 74.496 65.5779L72.7754 64.1336L75.5535 59.9932Z" fill="#DE735A"/>
<path d="M75.9206 60.3057H75.9196L75.9206 60.3067V60.3057Z" fill="#7F7F7F"/>
<path d="M75.9195 60.3057L75.9114 60.3187C75.877 60.4315 75.8391 60.5487 75.7984 60.6694C75.6139 61.2194 75.3609 61.8413 75.0216 62.4656C74.5441 63.3389 73.8601 64.0492 73.2747 64.5534L73.7603 64.9608C73.7603 64.9608 74.6188 64.2059 75.213 63.0291C75.8035 61.8579 75.9184 60.3247 75.9195 60.3057Z" fill="#CD392D"/>
<path d="M50.651 72.7607C50.6838 73.2836 50.7671 73.6996 50.8531 73.7617C50.8561 73.7641 50.8599 73.7664 50.864 73.7692C50.8673 73.7643 50.8689 73.7617 50.8689 73.7617C50.784 73.7006 50.7022 73.3031 50.668 72.7963C50.661 72.7828 50.6557 72.7707 50.651 72.7607Z" fill="#7F7F7F"/>
<path d="M50.8689 73.7617C50.8689 73.7617 50.8673 73.7643 50.864 73.7692C51.1501 73.9482 53.9372 74.9788 54.6296 74.9788C54.6322 74.9788 54.6345 74.9788 54.637 74.9788C53.9193 74.9704 51.0829 73.9168 50.8689 73.7617Z" fill="#145EC9"/>
<path d="M54.8115 71.9775C54.8115 71.9775 55.0292 73.7309 54.6311 74.0977C54.4806 74.2363 54.2143 74.2998 53.8826 74.2998C53.3373 74.2998 52.6147 74.1281 51.9369 73.8358C51.0676 73.4597 50.7587 72.9774 50.668 72.7967C50.7022 73.3034 50.7841 73.7009 50.869 73.7621C51.0829 73.9172 53.9194 74.9707 54.6371 74.9791C54.6411 74.9791 54.645 74.9791 54.6487 74.9789C54.7394 74.9761 54.9474 74.948 55.2344 74.9019C55.2867 74.3654 55.3274 73.1451 54.8115 71.9775Z" fill="#67C7FA"/>
<path d="M74.159 68.1934C74.156 68.1955 74.1544 68.1966 74.1544 68.1966C74.1297 68.241 74.1085 68.2794 74.0918 68.3096C74.0927 68.3096 74.0939 68.3096 74.0951 68.3096C74.112 68.2787 74.1339 68.2392 74.159 68.1934Z" fill="#7F7F7F"/>
<path d="M74.7813 68.0479C74.3869 68.0479 74.1901 68.1706 74.1587 68.192C74.1336 68.2379 74.112 68.2772 74.0947 68.3083C74.3375 68.3116 75.5004 68.3376 75.9984 68.6688C76.5449 69.033 76.6742 69.4386 76.6798 69.4558C76.6919 69.4956 76.6696 69.5379 76.6293 69.5503L76.6068 69.5538C76.5747 69.5538 76.5447 69.5331 76.5344 69.5003C76.5335 69.4968 76.4121 69.1277 75.9139 68.7951C75.4151 68.4632 74.0992 68.4595 74.0543 68.4595H74.0533H74.0531C74.0112 68.4595 73.9775 68.4258 73.9773 68.3844C73.8061 68.3876 73.3587 68.4076 72.9244 68.5202C72.9584 68.5155 73.1935 68.4856 73.5005 68.4856C73.8136 68.4856 74.2015 68.5167 74.5264 68.6381C75.1946 68.887 75.5199 69.56 75.72 69.5693C75.7221 69.5693 75.7241 69.5696 75.726 69.5696C75.8114 69.5696 75.7879 69.4738 75.7693 69.3779C75.7507 69.2819 75.7372 69.1858 75.843 69.1858C75.863 69.1858 75.8872 69.1893 75.9165 69.1968C76.2363 69.2791 76.7649 70.2019 76.9026 70.2019C76.9124 70.2019 76.92 70.1975 76.9256 70.1877C77.0124 70.0408 76.6223 69.4026 76.7047 69.2654C76.714 69.2493 76.727 69.2421 76.7426 69.2421C76.8607 69.2421 77.1354 69.6554 77.2466 69.7849C77.2547 69.7945 77.2619 69.7991 77.268 69.7991C77.3538 69.7991 77.1814 68.8474 75.98 68.3341C75.466 68.1139 75.0706 68.0479 74.7813 68.0479Z" fill="#67C7FA"/>
<path d="M74.0917 68.3086C74.0652 68.3563 74.0499 68.3839 74.0499 68.3839C74.0499 68.3839 74.0457 68.3839 74.0375 68.3839C74.0257 68.3839 74.005 68.3839 73.9773 68.3846C73.9773 68.426 74.0112 68.4598 74.0531 68.4598H74.0533H74.0543C74.0992 68.4598 75.4151 68.4637 75.9139 68.7954C76.4123 69.1279 76.5335 69.497 76.5344 69.5005C76.5447 69.5333 76.5747 69.554 76.6068 69.554L76.6293 69.5505C76.6696 69.5382 76.6919 69.4959 76.6798 69.4561C76.6742 69.4389 76.5447 69.0333 75.9984 68.6691C75.5004 68.3379 74.3378 68.3116 74.0947 68.3086C74.0938 68.3088 74.0926 68.3086 74.0917 68.3086Z" fill="#2C0E0B"/>
<path d="M79.1688 62.1846C80.208 62.8695 81.6206 63.9352 81.6994 64.2766C81.6215 63.9345 80.2077 62.8688 79.1688 62.1846Z" fill="white"/>
<path d="M78.7395 70.2177C78.739 70.2184 78.7383 70.2193 78.7376 70.22C78.7383 70.2193 78.739 70.2186 78.7395 70.2177Z" fill="#44DFF4"/>
<path d="M78.0848 61.5811C78.0848 61.5811 78.169 62.5186 77.8436 63.2379C77.5187 63.958 77.0959 64.3377 77.0959 64.3377H76.3975L76.8796 64.678L74.7767 66.9332C74.7767 66.9332 76.1563 65.9076 76.7949 65.4108C77.0559 65.2073 77.498 65.0936 77.9625 65.0936C78.6348 65.0936 79.3542 65.332 79.6393 65.8818C80.1217 66.8098 78.8925 69.1915 78.6634 69.2562C78.6397 69.2629 78.6062 69.2662 78.5653 69.2662C78.2094 69.2662 77.2868 69.0348 77.2868 69.0348C77.2868 69.0348 78.2899 69.6099 78.3011 69.9502C78.3085 70.1448 77.9306 70.7693 77.6048 71.2693C78.0887 70.8963 78.513 70.5209 78.7381 70.2207C78.7386 70.22 78.7392 70.219 78.7399 70.2183C78.7427 70.2146 78.7453 70.2109 78.7481 70.2072C78.7488 70.2062 78.7497 70.2051 78.7504 70.2041C78.7537 70.1997 78.7569 70.1953 78.7602 70.1909C79.4179 69.2727 81.7011 65.0238 81.7045 64.3243C81.7045 64.3061 81.7032 64.2903 81.7001 64.277C81.6213 63.9356 80.2084 62.87 79.1695 62.185C78.6911 61.8699 78.2922 61.6359 78.1397 61.5906L78.0848 61.5811Z" fill="#E1F4FE"/>
<path d="M67.7049 52.4511V52.4539C67.6795 52.5965 67.6442 52.75 67.5995 52.9123C67.4211 53.5696 67.0832 54.3603 66.4339 55.0722C65.0012 56.6426 61.6736 56.4523 61.0014 55.9318C60.9024 55.8546 60.7658 55.599 60.5975 55.2174V55.2085C60.2942 54.5143 59.9128 53.4128 59.5206 52.2262C59.333 51.645 59.142 51.0478 58.9604 50.4675C58.4348 48.7684 57.9859 47.2262 57.8554 46.7794C57.8296 46.694 57.8173 46.6482 57.8173 46.6482L56.7575 49.6705L56.623 50.0577L55.922 52.0465L55.843 52.277L55.4767 53.3272C55.4767 53.3272 55.2729 53.8138 54.792 54.3685C54.6294 54.5536 54.4382 54.7471 54.2122 54.9299C53.6777 55.365 52.9544 55.7546 52.0025 55.8883C49.4454 56.2442 47.2897 54.7787 47.3945 53.3954C47.4455 52.727 48.2232 50.8497 48.78 48.8716L52.99 39.585L54.9143 39.1975L62.1241 37.7451L64.1723 42.7717L67.7907 51.5227C67.7905 51.5232 67.8063 51.899 67.7049 52.4511Z" fill="#00757E"/>
<path d="M47.5073 54.1233C47.6529 54.7731 53.514 67.997 53.514 67.997C53.514 67.997 55.7132 67.9239 57.3956 67.0071C58.5457 66.3787 59.3634 65.4061 59.7616 64.8563L59.7678 64.8493C59.9481 64.6005 60.0437 64.4379 60.0437 64.4379L58.3457 60.3051L58.3417 60.2967L57.2633 57.6742L57.2607 57.6714L56.4674 55.7397C56.4588 55.7181 56.4502 55.6941 56.4409 55.6722L55.4759 53.3281C55.4759 53.3281 55.3845 53.253 55.2217 53.1293C54.8629 52.8581 54.1454 52.3625 53.267 51.9834C52.6581 51.7208 51.9708 51.5162 51.2752 51.4785C51.0822 51.4676 50.888 51.4724 50.6947 51.4894C50.5991 51.4983 50.5075 51.5071 50.4187 51.5176C48.2904 51.7562 47.7224 52.3581 47.7224 52.3581L47.7178 52.3778C47.6701 52.5295 47.3743 53.5235 47.5073 54.1233ZM76.2682 58.8106C76.2682 58.8106 76.1596 59.6032 75.7984 60.6691C75.6139 61.2191 75.3609 61.841 75.0216 62.4652C74.0187 64.2991 72.1063 65.4128 72.1063 65.4128C72.1063 65.4128 62.0926 57.0649 61.4305 56.4525C60.8116 55.8806 60.6214 55.2964 60.597 55.2178L60.5956 55.209L66.9097 51.9757L67.7911 51.5248L76.2682 58.8106Z" fill="#00757E"/>
<path d="M64.1721 42.7734L67.7904 51.5245C67.7904 51.5245 67.7904 51.5251 67.7904 51.5263L67.7913 51.5258L64.1721 42.7734Z" fill="white"/>
<path d="M64.1721 42.7734C64.5507 44.4242 65.7503 49.6508 66.9099 51.9768L67.7904 51.5263C67.7904 51.5251 67.7904 51.5244 67.7904 51.5244L64.1721 42.7734ZM67.7916 51.5258L67.7907 51.5263L66.9099 51.9768C67.1376 52.4331 67.3583 52.7589 67.559 52.8887L67.599 52.9148C69.0503 53.876 73.7857 58.2188 74.268 59.0375C74.7055 59.7773 74.9483 60.6832 75.6497 60.6832C75.6972 60.6832 75.7467 60.679 75.7986 60.6704C76.1595 59.6045 76.2684 58.8119 76.2684 58.8119L67.7916 51.5258Z" fill="#00C7D6"/>
<path d="M48.773 48.8971C48.746 48.959 48.7197 49.0199 48.6937 49.0799C48.7079 49.0618 48.722 49.0437 48.7362 49.0255C48.7486 48.983 48.7609 48.9399 48.773 48.8971ZM51.4245 42.9916C50.5901 44.818 49.5907 47.0238 48.8741 48.6653L51.4462 42.9919C51.4387 42.9919 51.4315 42.9919 51.4245 42.9916ZM62.3303 38.249C62.3301 38.2495 62.3296 38.25 62.3292 38.2504L62.3317 38.2565C62.3313 38.2541 62.3308 38.2516 62.3303 38.249Z" fill="#7F7F7F"/>
<path d="M62.3291 38.25C61.9442 38.7021 61.2593 39.4257 60.2818 40.1585C60.2878 40.1531 60.2941 40.148 60.3002 40.1427C59.5213 40.7276 58.5556 41.3188 57.4067 41.7818C57.13 41.8937 56.8581 41.9958 56.5906 42.0865C55.7673 42.3703 54.9975 42.5677 54.3114 42.7028C53.0555 42.9494 52.0753 42.9922 51.5541 42.9922C51.5152 42.9922 51.4794 42.9919 51.4457 42.9915L48.8739 48.6648C48.8395 48.7434 48.806 48.8207 48.773 48.8967C48.7609 48.9395 48.7485 48.9825 48.7362 49.0251C50.3275 46.9924 52.2943 44.396 53.26 44.1932C54.8808 43.8548 54.574 44.0952 57.1225 42.8414C61.9526 40.4657 62.4536 38.9749 62.3315 38.256L62.3291 38.25Z" fill="#003A3F"/>
<path d="M57.6423 47.1465L56.7572 49.6708L56.6227 50.0578L56.6225 50.059L57.6423 47.1465Z" fill="#7F7F7F"/>
<path d="M57.0228 43.6973L56.5918 50.0765L56.6225 50.0595L56.6227 50.0584L56.7572 49.6714L57.6423 47.147L57.817 46.6481L57.0228 43.6973Z" fill="#003A3F"/>
<path d="M59.7627 64.8555L59.7616 64.8569C59.7616 64.8569 59.7611 64.8576 59.7609 64.858C59.7613 64.8573 59.762 64.8566 59.7627 64.8559V64.8555ZM60.0437 64.4385C60.0423 64.441 60.0169 64.4836 59.9697 64.5566C60.0172 64.4836 60.042 64.441 60.0437 64.4385ZM55.9232 52.0498L55.9183 52.0572L55.8427 52.278L55.6315 52.8833L55.9232 52.0498Z" fill="#7F7F7F"/>
<path d="M55.9185 52.0566L55.2222 53.1297C55.3848 53.2532 55.476 53.3281 55.476 53.3281V53.3283L55.6318 52.8827L55.843 52.2774L55.9185 52.0566Z" fill="#003A3F"/>
<path d="M55.2222 53.1299L55.222 53.1301L54.642 54.0197L54.792 54.3707L58.7278 63.6129C58.7278 63.6129 59.2844 65.3348 58.5113 66.2009C58.9388 65.779 59.4297 65.2413 59.7609 64.8578C59.7609 64.8578 59.7614 64.8571 59.7616 64.8567L59.7628 64.8553L59.7662 64.8492C59.8551 64.7283 59.9232 64.6278 59.9697 64.5564C60.0172 64.4834 60.0423 64.4408 60.0437 64.4383L58.345 60.3054L58.341 60.2971C57.6959 58.7695 56.9989 57.0804 56.4663 55.7403C56.4581 55.7184 56.4493 55.6945 56.4402 55.6733L55.4755 53.3299L55.476 53.3287V53.3285C55.476 53.3285 55.3848 53.2534 55.2222 53.1299Z" fill="#003A3F"/>
<path d="M69.9673 63.7471C69.9412 63.7471 69.9157 63.7337 69.9017 63.7097C69.8805 63.6734 69.8929 63.6269 69.9289 63.6057C69.9426 63.5978 71.3092 62.788 72.6628 61.0105C74.0106 59.2401 74.099 56.9828 74.0996 56.96C74.101 56.9188 74.1345 56.8867 74.1755 56.8867H74.178C74.2199 56.8881 74.2527 56.923 74.2513 56.9651C74.2506 56.9881 74.1615 59.2927 72.7835 61.1028C71.4104 62.9059 70.0194 63.729 70.0057 63.7371L69.9673 63.7471ZM52.9802 65.7908C52.6767 65.7908 52.495 65.7698 52.4895 65.7691C52.4476 65.7643 52.4181 65.7261 52.4232 65.6847C52.4283 65.6431 52.4669 65.6114 52.5076 65.6184C52.5264 65.6208 54.3228 65.8252 56.1306 64.9016C57.941 63.9786 58.9441 62.1833 58.9541 62.1652C58.9743 62.1282 59.0203 62.1152 59.0571 62.1352C59.0938 62.1554 59.1073 62.2015 59.0871 62.2382C59.0768 62.2566 58.0512 64.0927 56.1997 65.0368C54.924 65.6884 53.653 65.7908 52.9802 65.7908Z" fill="#591C16"/>
<path d="M50.7787 21.7041C50.7555 21.7692 50.728 21.832 50.6929 21.8902V21.8923C50.4975 22.2297 50.1531 22.4109 49.8554 22.3065L49.6019 22.2155L48.5949 21.8622L44.2292 20.3203L43.2571 19.9759L43.452 19.4202L43.8385 18.3271L44.8107 18.6688L49.1761 20.2108L50.1831 20.5668L50.4392 20.6575C50.7882 20.7785 50.9392 21.2483 50.7787 21.7041Z" fill="#2894DB"/>
<path d="M44.8111 18.6689C44.7948 18.755 44.7762 18.8457 44.753 18.9366C44.7413 18.985 44.7288 19.0339 44.7155 19.0834L48.9088 20.5644L49.9161 20.9202L50.1717 21.0112C50.4663 21.1131 50.6201 21.4645 50.5636 21.8461L50.6929 21.8903C50.7278 21.8322 50.7554 21.7694 50.7787 21.7043C50.8224 21.5796 50.8431 21.454 50.8426 21.3347C50.8424 21.2424 50.8296 21.1538 50.8052 21.0724C50.7938 21.034 50.7796 20.9972 50.7631 20.9623C50.7312 20.8951 50.6901 20.8351 50.6408 20.7854C50.584 20.7284 50.5166 20.6844 50.4394 20.6577L50.1833 20.567L49.1763 20.2109L44.8111 18.6689Z" fill="#44DFF4"/>
<path d="M44.8111 18.6684C44.7948 18.7544 44.7762 18.8451 44.753 18.9361C44.7085 19.1219 44.6506 19.3173 44.5806 19.5149C44.5506 19.6035 44.5181 19.6894 44.4834 19.771C44.4043 19.9685 44.3185 20.1545 44.2299 20.3199C43.8924 20.9476 43.5089 21.3264 43.2529 21.2383L42.9926 21.1453L41.9716 20.785L38.9435 19.715L36.5504 18.8709L37.1176 17.2592L37.4804 16.2315L37.9246 14.9756L40.3155 15.8196L43.3459 16.8894L44.3687 17.2501L44.6271 17.3408C44.883 17.4311 44.9437 17.9683 44.8111 18.6684Z" fill="#103041"/>
<path d="M40.3155 15.8193C40.3013 16.0031 40.2778 16.2008 40.2409 16.4077C40.2022 16.6392 40.149 16.8836 40.0815 17.1362L41.7247 17.7078L44.0178 18.5032C44.0178 18.5032 44.3899 18.6332 44.7528 18.9358C44.776 18.8449 44.7946 18.7542 44.8109 18.6681C44.8565 18.4276 44.8793 18.2062 44.879 18.0155C44.8788 17.6515 44.7951 17.3997 44.6272 17.3404L44.3688 17.2497L43.3459 16.8889L40.3155 15.8193Z" fill="#1B526F"/>
<path d="M40.3155 15.82C40.3013 16.0037 40.2778 16.2014 40.2408 16.4084C40.1668 16.8526 40.0387 17.3456 39.8596 17.8505C39.8222 17.955 39.7852 18.0571 39.7454 18.1573C39.5063 18.7687 39.2268 19.3039 38.9433 19.7153C38.5177 20.3342 38.083 20.6717 37.7688 20.5598L37.3616 20.4181L35.7524 19.8481L28.7033 17.3598L27.2167 16.8361L28.1473 14.2012L28.9215 12.0102L29.3799 10.7101L29.382 10.7031L30.8681 11.2266L37.9176 13.7149L39.5273 14.2827L39.9343 14.4268C39.9575 14.4338 39.9782 14.4452 39.9992 14.4571C40.2643 14.6176 40.3692 15.1271 40.3155 15.82Z" fill="#2894DB"/>
<path d="M30.8692 11.2363C30.886 11.3705 30.8941 11.518 30.8941 11.6766C30.8937 11.9717 30.8641 12.3059 30.8062 12.6666L36.8338 14.7645L39.127 15.5624C39.127 15.5624 39.8247 15.8089 40.2408 16.409C40.2777 16.202 40.3015 16.0043 40.3154 15.8206C40.3247 15.7015 40.3291 15.5878 40.3291 15.4803C40.3284 14.9628 40.2187 14.5905 39.9989 14.4577L39.5686 14.3065L37.2803 13.4995L30.8692 11.2363Z" fill="#44DFF4"/>
<path d="M30.766 12.8961C30.673 13.3919 30.5267 13.9338 30.3313 14.4873C30.2823 14.6266 30.2311 14.7618 30.1802 14.8943C29.745 15.9918 29.2031 16.8805 28.7036 17.3596C28.3824 17.6689 28.0777 17.808 27.8354 17.7219L27.347 17.5524L25.4264 16.8733L20.5561 15.1548L19.1981 14.6757L16.9098 13.8661L15.235 13.2756L16.3305 10.1708L17.3584 7.25921L17.8189 5.95215L19.4958 6.54265L21.7838 7.35177L23.1423 7.83087L27.5356 9.38027L28.0126 9.54981L29.8239 10.1871L30.4032 10.392C30.4846 10.422 30.559 10.471 30.6197 10.5382C30.7453 10.685 30.8288 10.9222 30.8683 11.2269C30.9242 11.6637 30.889 12.2428 30.766 12.8961Z" fill="#103041"/>
<path d="M27.5356 9.38045L28.0126 9.55L29.8239 10.1872L30.4033 10.3921C30.4847 10.4221 30.5591 10.4712 30.6198 10.5384C30.7454 10.6852 30.8289 10.9224 30.8684 11.2271C30.8291 10.9224 30.7454 10.6852 30.6198 10.5384C30.5591 10.4712 30.4847 10.4221 30.4033 10.3921L29.8239 10.1872L27.5356 9.38045Z" fill="white"/>
<path d="M23.1423 7.83105C23.1644 7.99618 23.1753 8.17852 23.1753 8.37528C23.1753 8.64529 23.1546 8.94298 23.1135 9.26161L27.0891 10.645L29.382 11.4429C29.382 11.4429 30.5381 11.8499 30.766 12.8963C30.8507 12.4472 30.8937 12.0332 30.8942 11.6762C30.8942 11.5138 30.8858 11.3634 30.8681 11.2268C30.8288 10.9222 30.7451 10.685 30.6195 10.5382C30.5588 10.4708 30.4844 10.4219 30.403 10.3919L29.8236 10.187L28.0124 9.54977L27.5354 9.38022L23.1423 7.83105Z" fill="#1B526F"/>
<path d="M22.9909 9.98722C22.9677 10.1056 22.9397 10.2244 22.9116 10.3475L22.9004 10.3893V10.3919C22.7981 10.8196 22.6655 11.2685 22.5051 11.7243C22.4467 11.8918 22.3841 12.0548 22.3213 12.2127C21.8027 13.5244 21.1538 14.5854 20.5559 15.155C20.177 15.5199 19.8186 15.6829 19.5302 15.5801L18.9514 15.3757L16.6628 14.5687L16.9096 13.8663L18.0118 10.7426L19.2956 7.10774L19.4958 6.54258L19.7423 5.84277L22.0306 6.6498L22.61 6.85423C22.8983 6.95656 23.0751 7.30775 23.1425 7.8308C23.2167 8.38712 23.1656 9.13856 22.9909 9.98722Z" fill="#2894DB"/>
<path d="M22.0304 6.65021L21.7837 7.35212L21.5888 7.90564L20.3096 11.5268L19.1979 14.6763L18.9514 15.3761L16.6626 14.5691L5.44101 10.6084L4.5177 10.283L5.82267 6.58695L7.59929 1.55664L7.80884 1.63106L8.52283 1.88248L19.7421 5.84319L22.0304 6.65021Z" fill="#2894DB"/>
<path d="M22.0304 6.65039L21.7836 7.35229L21.5887 7.90582C21.5887 7.90582 23.1981 8.47097 22.9909 9.98757C23.1135 9.39079 23.1754 8.84215 23.1751 8.37585C23.1751 8.17886 23.1642 7.99652 23.1421 7.83163C23.0747 7.30834 22.8981 6.95715 22.6095 6.85505L22.0304 6.65039Z" fill="#44DFF4"/>
<path d="M8.52277 1.88184C8.59324 2.14697 8.62835 2.4735 8.62789 2.84725C8.62789 3.01981 8.61998 3.20262 8.60486 3.39379L8.62766 3.39542L19.2958 7.10751L21.5889 7.905L21.7838 7.35148L22.0306 6.64958L19.7423 5.84255L8.52277 1.88184Z" fill="#44DFF4"/>
<path d="M7.883 6.5624C7.80626 6.78125 7.72509 6.99545 7.64113 7.20453C6.98993 8.82091 6.15755 10.0812 5.44099 10.6071C5.12469 10.8422 4.82933 10.9303 4.58071 10.8443L1.81077 9.86516L1.39679 9.71887L4.81561 0.0322266L8.00208 1.15555C8.24861 1.2437 8.42281 1.49929 8.52281 1.88118C8.78074 2.85077 8.56212 4.64158 7.883 6.5624Z" fill="#103041"/>
<path d="M4.82654 0.0361328C5.23842 0.190794 5.44239 0.815018 5.44262 1.71275C5.44262 1.7588 5.44216 1.80531 5.44099 1.85276L7.42065 2.55071C7.66718 2.63932 7.84138 2.89491 7.94138 3.27633C8.16396 4.11313 8.03186 5.56043 7.55555 7.17541L7.64136 7.20448C7.72532 6.9954 7.80649 6.78144 7.88324 6.56235C8.37676 5.16668 8.62701 3.83962 8.62794 2.84654C8.6284 2.4728 8.59352 2.14626 8.52282 1.88113C8.42258 1.49925 8.24838 1.24365 8.00209 1.1555L4.82654 0.0361328Z" fill="#1B526F"/>
<path d="M44.4832 19.7715C44.4041 19.9689 44.3183 20.155 44.2297 20.3204L48.5953 21.8623L49.6023 22.2156L49.8558 22.3065C49.9128 22.3265 49.9712 22.3361 50.0303 22.3361C50.2798 22.3361 50.5354 22.1654 50.6933 21.8923C50.6305 21.9995 50.5538 22.0902 50.4677 22.1623C50.484 22.1295 50.498 22.0921 50.5115 22.0577C50.5363 21.987 50.5538 21.916 50.5643 21.846L44.4832 19.7715Z" fill="#145EC9"/>
<path d="M50.5638 21.8467C50.5536 21.9167 50.5361 21.9876 50.511 22.0583C50.4975 22.093 50.4836 22.1302 50.4673 22.163C50.5533 22.0906 50.6303 22.0002 50.6929 21.893V21.8909L50.5638 21.8467Z" fill="#22CFEE"/>
<path d="M39.7454 18.1572C39.5064 18.7687 39.2268 19.3038 38.9433 19.7152L41.5576 20.639C41.5432 20.4962 41.5546 20.3525 41.636 20.2785C41.8321 20.1008 42.0268 20.0966 42.0268 20.0966C42.0268 20.0966 42.0833 19.8308 42.4531 19.7659C42.501 19.7576 42.5449 19.7538 42.5845 19.7538C42.8508 19.7538 42.9387 19.9183 42.9387 19.9183C42.9387 19.9183 43.1452 19.8111 43.3524 19.8111C43.3917 19.8111 43.431 19.815 43.4689 19.8241C43.6375 19.865 43.8731 20.139 44.1159 20.5192C44.1543 20.4562 44.1922 20.3897 44.2294 20.3202C44.3181 20.1548 44.4039 19.9687 44.4829 19.7713L43.4522 19.4201L39.7454 18.1572Z" fill="#081820"/>
<path d="M30.1799 14.8945C29.7448 15.992 29.2029 16.8807 28.7033 17.3598L35.7523 19.8481L37.3615 20.4181L37.7688 20.5598C37.8088 20.574 37.8509 20.5809 37.8946 20.5809C38.1937 20.5809 38.5721 20.2551 38.9432 19.7153C39.2268 19.3039 39.5063 18.7685 39.7454 18.1573L37.1176 17.2596L30.1799 14.8945Z" fill="#145EC9"/>
<path d="M22.3214 12.2129C21.8027 13.5246 21.1539 14.5856 20.5559 15.1552L25.4262 16.8736L27.3468 17.5528L27.8352 17.7223C27.8826 17.739 27.9324 17.7474 27.9843 17.7474C28.1973 17.7474 28.445 17.6086 28.7034 17.36C29.203 16.8809 29.7449 15.9922 30.18 14.8947L28.1473 14.2014L22.3214 12.2129Z" fill="#081820"/>
<path d="M20.3096 11.5264L19.1979 14.6756L18.9514 15.3754L19.5302 15.5799C19.5874 15.6001 19.6472 15.6101 19.7093 15.6101C19.9612 15.6101 20.2519 15.4473 20.5559 15.1547C21.1538 14.5849 21.8027 13.5239 22.3213 12.2125L20.3096 11.5264Z" fill="#145EC9"/>
<path d="M7.64112 7.20508C7.53786 7.46137 7.43018 7.7086 7.31901 7.94559C7.30086 7.98443 7.28272 8.02304 7.26435 8.06118C7.26505 8.05955 7.26575 8.05815 7.26621 8.05653C6.6885 9.25916 6.0259 10.1783 5.44098 10.6076L16.6626 14.5683L18.9511 15.3754L19.1977 14.6755L20.3093 11.5263L18.0115 10.7425L16.33 10.1706L7.64112 7.20508Z" fill="#145EC9"/>
<path d="M7.64107 7.20554C7.53711 7.46137 7.42989 7.70859 7.31896 7.94605C7.43013 7.70905 7.53804 7.46183 7.64107 7.20554ZM4.44203 6.11523C4.35249 6.33595 4.25946 6.54991 4.16388 6.75644C4.16341 6.75737 4.16295 6.75853 4.16248 6.75969C4.16225 6.76016 4.16225 6.76039 4.16202 6.76086C4.10643 6.88063 4.05015 6.99785 3.99293 7.11227C3.98363 7.13111 3.9741 7.14995 3.96456 7.16856C3.92479 7.2474 3.88456 7.32484 3.84409 7.4009C3.82362 7.43974 3.80292 7.47788 3.78199 7.51602C3.78176 7.51648 3.78153 7.51695 3.7813 7.51741C3.17358 8.63074 2.50773 9.41893 1.94862 9.66894L1.81024 9.86616L4.58018 10.8453C4.64298 10.8669 4.70833 10.8776 4.77647 10.8776C4.97904 10.8776 5.20394 10.7839 5.44047 10.6081C6.02539 10.1787 6.68775 9.25962 7.2657 8.05698C7.27895 8.02559 7.29012 7.99233 7.30105 7.95907C7.39431 7.6951 7.47897 7.43369 7.55478 7.17646L5.82188 6.58689L4.44203 6.11523Z" fill="#081820"/>
<path d="M7.319 7.94629C7.30156 7.9835 7.28388 8.02048 7.2662 8.05746C7.26574 8.05909 7.26504 8.06048 7.26434 8.06211C7.28272 8.0235 7.30086 7.98513 7.319 7.94629Z" fill="#22CFEE"/>
<path d="M7.55557 7.17578C7.47975 7.43301 7.39509 7.69442 7.30183 7.95839C7.2909 7.99165 7.27974 8.0249 7.26648 8.0563C7.28416 8.01955 7.30183 7.98258 7.31927 7.94513C7.43021 7.70767 7.53743 7.46045 7.64139 7.20462L7.55557 7.17578Z" fill="#0D2937"/>
<path d="M4.69864 5.43885C3.75439 8.11367 2.27593 10.0305 1.39657 9.72028C0.516983 9.41003 0.569311 6.98988 1.51356 4.31436C2.45827 1.63931 3.93627 -0.277319 4.81586 0.0329328C5.69545 0.343185 5.64288 2.76357 4.69864 5.43885Z" fill="#9ADAFC"/>
<path d="M41.996 25.7308L42.033 25.4487C42.033 25.4487 41.8835 25.1801 41.8779 24.8305C41.8723 24.4814 41.8786 23.7039 41.7216 23.0197C41.5648 22.3352 41.1413 21.8075 41.0674 21.6024C40.9934 21.3973 41.202 21.1584 41.383 21.1052C41.5634 21.0526 41.6495 21.0382 41.6495 21.0382C41.6495 21.0382 41.4402 20.4567 41.636 20.2786C41.8321 20.1009 42.0267 20.0967 42.0267 20.0967C42.0267 20.0967 42.0832 19.8309 42.453 19.766C42.8226 19.7011 42.9389 19.9183 42.9389 19.9183C42.9389 19.9183 43.2312 19.7667 43.4691 19.8241C43.7075 19.8821 44.0799 20.4058 44.4173 21.0375C44.755 21.6689 45.0446 23.2376 45.1818 23.3674C45.3183 23.4972 45.7844 22.7981 46.1321 22.3978C46.4791 21.9968 47.2971 22.1648 47.3147 22.4739C47.3326 22.7827 46.8242 23.1934 46.6103 23.6502C46.397 24.1072 46.2537 24.8445 46.0786 25.0968C45.903 25.3501 45.7628 25.3852 45.7628 25.3852L45.7035 26.1041L41.996 25.7308Z" fill="#DE735A"/>
<path d="M43.7799 22.4794C43.7506 22.4794 43.7254 22.4573 43.7219 22.4273C43.7217 22.4245 43.7103 22.3417 43.5994 21.9419C43.5122 21.6268 43.257 21.1172 43.0712 20.7451C43.0133 20.6293 42.9614 20.526 42.9224 20.4437C42.7419 20.0637 42.8886 19.8874 42.8952 19.8802C42.9159 19.856 42.9526 19.8537 42.9773 19.8746C43.0012 19.8953 43.004 19.9314 42.9838 19.9558C42.9803 19.9602 42.8842 20.0925 43.0275 20.3939C43.0663 20.4756 43.1177 20.5784 43.1754 20.6933C43.3638 21.0696 43.6215 21.5852 43.7119 21.911C43.8261 22.3222 43.8373 22.4069 43.8382 22.4152C43.8417 22.4471 43.8185 22.4757 43.7864 22.4792L43.7799 22.4794ZM42.7082 22.5357C42.6821 22.5357 42.6584 22.518 42.6519 22.4917L42.5016 21.8917C42.4295 21.6059 42.1635 20.9793 42.0323 20.6881C41.899 20.3923 41.9674 20.096 41.9702 20.0837C41.9777 20.0525 42.0084 20.0328 42.0402 20.0404C42.0714 20.0479 42.0907 20.079 42.0835 20.1104C42.0828 20.1132 42.0218 20.3814 42.1384 20.6402C42.2707 20.9349 42.5405 21.5694 42.6142 21.8633L42.7645 22.4634C42.7724 22.4945 42.7533 22.5262 42.7221 22.5338L42.7082 22.5357ZM42.0907 22.6908L42.0846 22.6906C42.0525 22.6871 42.0295 22.6583 42.0328 22.6266C42.033 22.6259 42.0418 22.5131 41.9697 22.2264C41.8944 21.9271 41.5969 21.0663 41.5941 21.0577C41.5837 21.0272 41.5997 20.9942 41.63 20.9837C41.6607 20.9731 41.6932 20.9891 41.7039 21.0196C41.7162 21.0551 42.0058 21.894 42.0823 22.1982C42.1595 22.5048 42.1498 22.6262 42.1484 22.639C42.1456 22.6687 42.12 22.6908 42.0907 22.6908Z" fill="#591C16"/>
<path d="M62.698 37.784C62.698 37.784 60.8982 40.3748 57.407 41.7817C57.1302 41.8935 56.8584 41.9956 56.5909 42.0863C55.7676 42.3701 54.9978 42.5675 54.3117 42.7027C52.7465 43.0099 51.6094 43.0006 51.2557 42.9864C51.181 42.9818 51.1394 42.9794 51.1394 42.9794L50.0833 36.5351C50.0833 36.5351 49.7021 33.7835 49.7463 31.3717C49.7717 30.0298 49.9296 28.7925 50.3577 28.1904C51.5576 26.5063 55.219 25.3855 56.6535 26.0551C58.0884 26.7249 60.1283 29.2042 61.1607 32.8741C62.1959 36.5418 62.698 37.784 62.698 37.784Z" fill="#9ADAFC"/>
<path d="M56.6535 26.0554C58.0884 26.7252 60.1283 29.2045 61.1607 32.8745C60.1283 29.2042 58.0887 26.7252 56.6535 26.0554Z" fill="white"/>
<path d="M55.5567 25.8574C54.7524 25.8574 53.7668 26.0756 52.8488 26.4468C52.8493 26.4468 52.8495 26.4465 52.85 26.4465C53.7682 26.0756 54.7536 25.8577 55.5576 25.8577C55.7143 25.8577 55.8644 25.866 56.0055 25.883V25.8828C55.8644 25.8658 55.7139 25.8574 55.5567 25.8574Z" fill="#F5C499"/>
<path d="M62.6892 37.7968C62.6571 37.8417 62.5373 38.0059 62.3303 38.2487C62.5373 38.0059 62.6573 37.8414 62.6892 37.7968ZM62.6959 37.7873C62.6957 37.7875 62.6955 37.7877 62.6955 37.7879C62.6955 37.7879 62.6957 37.7877 62.6959 37.7873Z" fill="white"/>
<path d="M62.3314 38.249L62.3292 38.2517L62.3314 38.249Z" fill="#7F7F7F"/>
<path d="M62.3292 38.25C61.9464 38.6991 61.2677 39.4161 60.3002 40.1429C60.2942 40.1483 60.2879 40.1534 60.2819 40.1587C61.2596 39.4257 61.9443 38.7021 62.3292 38.25Z" fill="#00636B"/>
<path d="M55.5578 25.8584C54.7538 25.8584 53.7684 26.0763 52.8502 26.4473C52.9388 26.4296 53.0081 26.4203 53.0539 26.4203C53.0586 26.4203 53.063 26.4203 53.0672 26.4205C53.2902 26.4331 53.5007 26.4573 53.7117 26.5422C54.1145 26.4633 54.5033 26.4212 54.8571 26.4212C55.2871 26.4212 55.6653 26.4836 55.9532 26.618C57.3886 27.2883 59.4278 29.767 60.4607 33.437C61.4959 37.1049 61.998 38.3469 61.998 38.3469C61.998 38.3469 61.4249 39.1704 60.3002 40.1425C61.2677 39.4158 61.9464 38.699 62.3292 38.2496C62.3294 38.2492 62.3299 38.2487 62.3303 38.2482C62.5373 38.0054 62.6571 37.841 62.6892 37.7964C62.6918 37.7926 62.6939 37.7898 62.6952 37.7877L62.6957 37.787C62.6962 37.7861 62.6966 37.7854 62.6971 37.785V37.7847C62.6973 37.7843 62.6976 37.784 62.6976 37.784C62.6976 37.784 62.1954 36.5419 61.1603 32.8742C60.1279 29.204 58.0882 26.725 56.653 26.0552C56.47 25.9698 56.2509 25.9135 56.0053 25.8838C55.8646 25.8665 55.7146 25.8584 55.5578 25.8584Z" fill="#E1F4FE"/>
<path d="M54.8654 27.8857C55.2913 29.2098 55.3264 32.1928 53.2767 33.3572C52.4446 33.8308 51.1729 34.1185 49.8481 34.2606C49.9482 35.559 50.0833 36.5344 50.0833 36.5344L51.1394 42.9788C51.1394 42.9788 51.181 42.9813 51.2557 42.9857C51.3254 42.9885 51.4259 42.9911 51.5543 42.9911C52.0755 42.9911 53.0558 42.9483 54.3117 42.7018C53.5465 40.8435 52.5297 37.805 54.5303 34.1152C56.6188 30.2633 55.021 28.0832 54.8654 27.8857Z" fill="#67C7FA"/>
<path d="M53.2767 33.3581C52.4185 33.8465 51.0924 34.1372 49.723 34.2744C47.8578 34.4605 45.9112 34.3674 44.9483 34.1093L44.939 34.1067C44.676 34.037 44.4878 33.9672 44.3946 33.8997C44.1436 33.7207 43.9573 33.4741 43.8827 33.1416C43.755 32.5692 43.9529 31.7415 44.6855 30.5554C45.4644 29.2948 46.3972 28.7366 46.9252 28.5062C47.0805 28.4387 47.1994 28.3994 47.2717 28.3785C47.3203 28.3643 47.3482 28.3599 47.3482 28.3599C47.6087 28.2089 48.7181 27.7831 49.8949 27.3691H49.8975C51.288 26.8784 52.7741 26.4065 53.0672 26.4202C53.6091 26.4504 54.0763 26.5507 54.6557 27.4179C55.235 28.2857 55.6304 32.0206 53.2767 33.3581Z" fill="#9ADAFC"/>
<path d="M47.2717 28.3782C47.2717 28.6968 47.2552 28.9411 47.2182 29.0457C47.088 29.406 46.5205 32.6597 45.6207 33.7574C45.4132 34.0088 45.1902 34.146 44.9483 34.1088L44.939 34.1063C43.6529 33.9039 41.876 33.0457 41.0525 31.0991C40.9248 30.7991 40.8434 30.4595 40.7994 30.099C40.5411 28.1245 41.3318 25.5525 41.3318 25.5525L47.1231 25.5127C47.1231 25.5127 47.1647 26.0292 47.2066 26.6688V26.6735C47.2394 27.2342 47.2717 27.8898 47.2717 28.3782Z" fill="#9ADAFC"/>
<path d="M4.74769 0.0136719C4.77094 0.0187885 4.7935 0.025068 4.81583 0.0329754C4.81932 0.0341383 4.82281 0.0355342 4.8263 0.0369297C4.82281 0.0355342 4.81932 0.0343709 4.81583 0.0329754C4.7935 0.025068 4.77094 0.0185559 4.74769 0.0136719Z" fill="#7F7F7F"/>
<path d="M4.69861 5.43848C4.61698 5.66989 4.5314 5.89548 4.44232 6.1148C4.53116 5.89548 4.61675 5.66965 4.69861 5.43848Z" fill="#081820"/>
<path d="M3.84463 7.4009C3.82393 7.43974 3.80346 7.47788 3.78253 7.51602C3.80323 7.47811 3.82393 7.43974 3.84463 7.4009ZM3.99324 7.11227C3.98371 7.13111 3.9744 7.14995 3.96487 7.16856C3.9744 7.14995 3.98394 7.13088 3.99324 7.11227Z" fill="#040C10"/>
<path d="M1.39661 9.7207C1.40591 9.72396 1.41521 9.72698 1.42475 9.72977L1.42428 9.72954C1.41475 9.72675 1.40568 9.72396 1.39661 9.7207Z" fill="#7F7F7F"/>
<path d="M1.94915 9.66895C1.82472 9.72453 1.70541 9.7536 1.59331 9.7536C1.53494 9.7536 1.47819 9.74569 1.42377 9.72965L1.42423 9.72988C1.47842 9.74593 1.53494 9.75407 1.59308 9.75407C1.70541 9.75407 1.82472 9.725 1.94915 9.66895Z" fill="#081820"/>
<path d="M3.78178 7.5166C3.17407 8.62993 2.50845 9.41788 1.94934 9.66813C2.50821 9.41788 3.17384 8.62993 3.78178 7.5166Z" fill="#040C10"/>
<path d="M1.75354 8.70822C1.62005 8.12539 1.67703 6.6453 2.3908 4.62424C3.10433 2.60295 3.98834 1.41497 4.45883 1.04472C4.59256 1.62824 4.53465 3.1081 3.82135 5.12916C3.10805 7.15021 2.22357 8.33842 1.75354 8.70822ZM4.61884 0C4.07137 0 3.35458 0.691904 2.68012 1.80221C2.25753 2.49783 1.85146 3.35765 1.51353 4.31422C1.01931 5.71454 0.769299 7.04509 0.769531 8.0398C0.769531 8.94521 0.977219 9.57245 1.39631 9.72014C1.40538 9.72339 1.41469 9.72619 1.42376 9.72898C1.47818 9.74502 1.5347 9.75293 1.5933 9.75293C1.7054 9.75293 1.82471 9.72386 1.94914 9.66827C2.50824 9.41826 3.17387 8.63007 3.78158 7.51675C3.78181 7.51628 3.78204 7.51582 3.78228 7.51535C3.80298 7.47721 3.82367 7.43907 3.84437 7.40023C3.88484 7.32418 3.92484 7.24673 3.96484 7.16789C3.97438 7.14905 3.98368 7.13044 3.99322 7.11161C4.05043 6.99718 4.10671 6.87996 4.1623 6.76019C4.1623 6.76019 4.16253 6.75949 4.16277 6.75902C4.16323 6.75786 4.1637 6.75693 4.16416 6.75577C4.25975 6.54948 4.35278 6.33528 4.44232 6.11457C4.53139 5.89548 4.61698 5.66989 4.69861 5.43824C5.19283 4.03793 5.44284 2.70738 5.44261 1.7129C5.44261 0.814935 5.23864 0.190942 4.82653 0.0362809C4.82304 0.0348855 4.81955 0.033723 4.81606 0.0323276C4.79373 0.0244201 4.77117 0.0181406 4.74792 0.013024C4.70605 0.00441882 4.66303 0 4.61884 0ZM49.8951 27.3691C48.7181 27.7831 47.609 28.209 47.3485 28.3599C47.3485 28.3599 47.3206 28.3646 47.272 28.3785C47.272 28.6971 47.2554 28.9413 47.2185 29.046L49.8951 27.3691Z" fill="#67C7FA"/>
<path d="M47.2066 26.6738L46.9252 28.5063L46.6227 30.4883L47.2183 29.0461C47.2553 28.9414 47.2718 28.6974 47.2718 28.3786C47.2718 27.8902 47.2394 27.2346 47.2066 26.6738ZM45.6207 33.7578C45.4358 33.982 45.2384 34.1152 45.0263 34.1152C45.0005 34.1152 44.9746 34.1131 44.9484 34.1092C45.5647 34.2743 46.5845 34.372 47.7278 34.372C48.3704 34.372 49.0521 34.341 49.7233 34.2741L49.7254 34.2715C49.7254 34.2715 49.6817 34.2727 49.6 34.2727C49.1314 34.2729 47.4187 34.2373 45.6207 33.7578Z" fill="#67C7FA"/>
<path d="M40.748 29.1719L40.7992 30.0998C40.8432 30.4601 40.9248 30.7996 41.0523 31.0999C41.876 33.0465 43.6526 33.9047 44.9388 34.1071L44.9481 34.1096C44.9744 34.1136 45.0002 34.1157 45.026 34.1157C45.2381 34.1157 45.4356 33.9824 45.6204 33.7582C45.0365 33.6049 44.4455 33.4049 43.8824 33.1421C42.3016 32.4023 40.9597 31.1836 40.748 29.1719Z" fill="#67C7FA"/>
<path d="M41.934 25.1953L42.02 25.5474L42.033 25.4481C42.033 25.4481 41.9784 25.35 41.934 25.1953Z" fill="#7F7F7F"/>
<path d="M41.9328 25.1914L41.934 25.1961C41.9784 25.3507 42.033 25.4486 42.033 25.4486L42.02 25.5479L45.7519 25.5131L41.9328 25.1914Z" fill="#CD392D"/>
</svg>
