<svg width="26" height="26" viewBox="0 0 26 26" fill="none" xmlns="http://www.w3.org/2000/svg">
<path fill-rule="evenodd" clip-rule="evenodd" d="M12.8021 0.416504C19.6316 0.416504 25.1875 5.97242 25.1875 12.8019C25.1875 19.6314 19.6316 25.1873 12.8021 25.1873C5.97258 25.1873 0.416666 19.6314 0.416666 12.8019C0.416666 5.97242 5.97258 0.416504 12.8021 0.416504ZM12.8021 2.229C6.97187 2.229 2.22917 6.97171 2.22917 12.8019C2.22917 18.6321 6.97187 23.3748 12.8021 23.3748C18.6323 23.3748 23.375 18.6321 23.375 12.8019C23.375 6.97171 18.6323 2.229 12.8021 2.229ZM12.2955 8.58653C12.9239 8.84874 17.3331 11.1071 17.3331 12.7964C17.3331 14.3793 13.3649 16.5929 12.3511 17.0159C11.956 17.1802 11.5053 17.3349 11.0836 17.3349C10.7573 17.3349 10.448 17.2418 10.1955 16.9905C10.0009 16.7984 9.48134 16.2848 9.47892 12.9027C9.47772 9.31153 10.0178 8.77744 10.1955 8.59982C10.8274 7.9739 11.8569 8.40286 12.2955 8.58653ZM11.4533 10.1876C11.2395 11.3971 11.2358 14.2862 11.4497 15.4342C12.5106 15.0596 14.8089 13.5492 15.4275 12.8012C14.8113 12.075 12.542 10.596 11.4533 10.1876Z" fill="black"/>
</svg>
