<svg width="24" height="24" viewBox="0 0 24 24" fill="none" xmlns="http://www.w3.org/2000/svg">
<path d="M11.97 22C17.4928 22 21.97 17.5228 21.97 12C21.97 6.47715 17.4928 2 11.97 2C6.44712 2 1.96997 6.47715 1.96997 12C1.96997 17.5228 6.44712 22 11.97 22Z" fill="url(#paint0_linear_1802_1326)"/>
<path d="M14.97 10.2301L12.07 8.56012C11.35 8.14012 10.48 8.14012 9.75999 8.56012C9.03999 8.98012 8.60999 9.72012 8.60999 10.5601V13.9101C8.60999 14.7401 9.03999 15.4901 9.75999 15.9101C10.12 16.1201 10.52 16.2201 10.91 16.2201C11.31 16.2201 11.7 16.1201 12.06 15.9101L14.96 14.2401C15.68 13.8201 16.11 13.0801 16.11 12.2401C16.13 11.4001 15.7 10.6501 14.97 10.2301Z" fill="white"/>
<defs>
<linearGradient id="paint0_linear_1802_1326" x1="1.96997" y1="1.90741" x2="14.1555" y2="25.8797" gradientUnits="userSpaceOnUse">
<stop stop-color="#A594F9"/>
<stop offset="1" stop-color="#6247AA"/>
</linearGradient>
</defs>
</svg>
