<svg width="30" height="30" viewBox="0 0 30 30" fill="none" xmlns="http://www.w3.org/2000/svg">
<circle cx="15" cy="15" r="15" fill="#005C94"/>
<path fill-rule="evenodd" clip-rule="evenodd" d="M14.6554 8.23954C14.9363 8.23954 15.1643 8.46754 15.1643 8.74847C15.1643 9.0294 14.9363 9.2574 14.6554 9.2574H12.1182C10.3647 9.2574 9.23221 10.4585 9.23221 12.3171V17.9587C9.23221 19.8173 10.3647 21.0184 12.1182 21.0184H18.1059C19.8593 21.0184 20.9925 19.8173 20.9925 17.9587V15.2254C20.9925 14.9445 21.2205 14.7165 21.5015 14.7165C21.7824 14.7165 22.0104 14.9445 22.0104 15.2254V17.9587C22.0104 20.3975 20.4409 22.0363 18.1059 22.0363H12.1182C9.78321 22.0363 8.21436 20.3975 8.21436 17.9587V12.3171C8.21436 9.87829 9.78321 8.23954 12.1182 8.23954H14.6554ZM20.5654 8.83574L21.3913 9.66156C21.7937 10.0633 22.0149 10.5973 22.0142 11.166C22.0142 11.7346 21.793 12.268 21.3913 12.669L16.2959 17.7644C15.922 18.1383 15.4239 18.3446 14.8946 18.3446H12.3527C12.2156 18.3446 12.084 18.2889 11.9883 18.1905C11.8926 18.0928 11.8404 17.9605 11.8438 17.8227L11.9075 15.2584C11.9204 14.7481 12.126 14.2684 12.487 13.9067L17.5587 8.83574C18.3879 8.00788 19.7362 8.00788 20.5654 8.83574ZM17.141 10.6923L13.207 14.6267C13.0313 14.8024 12.9315 15.0358 12.9254 15.2835L12.8745 17.3267H14.8946C15.1525 17.3267 15.394 17.227 15.5766 17.0444L19.5343 13.0856L17.141 10.6923ZM18.278 9.5557L17.8602 9.97234L20.2536 12.3663L20.672 11.949C20.881 11.74 20.9963 11.4618 20.9963 11.166C20.9963 10.8694 20.881 10.5905 20.672 10.3815L19.8462 9.5557C19.4139 9.12481 18.7109 9.12481 18.278 9.5557Z" fill="white"/>
</svg>
