<svg width="31" height="30" viewBox="0 0 31 30" fill="none" xmlns="http://www.w3.org/2000/svg">
<circle cx="15.3479" cy="15" r="15" fill="#EE574D"/>
<path fill-rule="evenodd" clip-rule="evenodd" d="M21.0931 12.8502C21.3999 12.8754 21.6288 13.1436 21.6042 13.4505C21.5998 13.501 21.1971 18.4873 20.9653 20.5788C20.8211 21.8769 19.9637 22.6667 18.6694 22.6904C17.679 22.7075 16.7235 22.7172 15.7895 22.7172C14.7828 22.7172 13.8013 22.706 12.8302 22.686C11.5879 22.6615 10.7282 21.8561 10.5878 20.584C10.3537 18.4739 9.95327 13.5003 9.94955 13.4505C9.92429 13.1436 10.1531 12.8747 10.46 12.8502C10.7624 12.842 11.0358 13.0545 11.0603 13.3606C11.0627 13.3928 11.2264 15.4239 11.4048 17.4335L11.4407 17.8345C11.5305 18.8334 11.6216 19.7932 11.6956 20.4614C11.7751 21.1844 12.1652 21.5574 12.8532 21.5715C14.7107 21.6109 16.6061 21.6131 18.6493 21.5759C19.3804 21.5618 19.7757 21.1963 19.8575 20.4562C20.0878 18.3803 20.489 13.4111 20.4935 13.3606C20.518 13.0545 20.7892 12.8405 21.0931 12.8502ZM17.3489 7.85742C18.031 7.85742 18.6306 8.31734 18.8067 8.97638L18.9954 9.9133C19.0564 10.2204 19.3259 10.4447 19.638 10.4497L22.0763 10.4497C22.3839 10.4497 22.6336 10.6994 22.6336 11.007C22.6336 11.3146 22.3839 11.5642 22.0763 11.5642L19.6598 11.5641C19.6561 11.5642 19.6523 11.5642 19.6485 11.5642L19.6304 11.5635L11.9222 11.5642C11.9162 11.5642 11.9102 11.5642 11.9042 11.5642L11.8928 11.5635L9.47656 11.5642C9.16896 11.5642 8.91931 11.3146 8.91931 11.007C8.91931 10.6994 9.16896 10.4497 9.47656 10.4497L11.9143 10.449L11.9894 10.4443C12.269 10.408 12.5013 10.1956 12.5581 9.9133L12.7386 9.00981C12.9221 8.31734 13.5217 7.85742 14.2038 7.85742H17.3489ZM17.3489 8.97192H14.2038C14.0255 8.97192 13.8687 9.09154 13.8234 9.26318L13.6503 10.1325C13.6283 10.2426 13.5962 10.3487 13.5552 10.4499H17.9977C17.9567 10.3487 17.9246 10.2426 17.9025 10.1325L17.7219 9.229C17.684 9.09154 17.5273 8.97192 17.3489 8.97192Z" fill="white"/>
</svg>
