<svg width="30" height="30" viewBox="0 0 30 30" fill="none" xmlns="http://www.w3.org/2000/svg">
<circle cx="15" cy="15" r="15" fill="#EDB819"/>
<path d="M11.4673 23.4412C11.3128 23.4123 11.195 23.3583 11.1095 23.3024C10.8222 23.1288 10.3678 22.6522 10.5915 21.455L11.5226 16.4734L9.71528 16.1357C8.68034 15.9422 8.40056 15.3864 8.32267 15.0761C8.24622 14.758 8.24152 14.1417 9.06697 13.4886L16.155 7.93923C17.1102 7.19055 17.7397 7.37215 18.027 7.54574C18.3143 7.71933 18.7687 8.19593 18.545 9.39306L17.614 14.3747L19.4212 14.7124C20.4562 14.9059 20.736 15.4617 20.8138 15.772C20.8903 16.0901 20.895 16.7064 20.0695 17.3594L12.9815 22.9089C12.3162 23.432 11.8071 23.5047 11.4673 23.4412ZM17.3987 8.55535C17.3697 8.58191 17.1931 8.62883 16.8834 8.87468L9.79537 14.4241C9.53292 14.6308 9.47316 14.7795 9.46738 14.8104C9.48139 14.821 9.60597 14.9243 9.93036 14.9849L12.3169 15.4309C12.6336 15.4901 12.8471 15.8018 12.7879 16.1184L11.7486 21.6793C11.6764 22.0655 11.7142 22.2484 11.7364 22.3005C11.7653 22.2739 11.942 22.227 12.2517 21.9811L19.3397 16.4317C19.6022 16.225 19.6619 16.0763 19.6677 16.0454C19.6537 16.0348 19.5291 15.9316 19.2047 15.8709L16.8182 15.4249C16.5015 15.3657 16.288 15.0541 16.3472 14.7374L17.3865 9.17654C17.4664 8.79181 17.4195 8.61518 17.3987 8.55535Z" fill="white"/>
</svg>
