<svg width="20" height="19" viewBox="0 0 20 19" fill="none" xmlns="http://www.w3.org/2000/svg">
<path d="M19.2277 18.9999C19.1051 19.0017 18.9842 18.97 18.8775 18.9081C18.7709 18.8463 18.6823 18.7565 18.621 18.6481C17.7026 17.0513 16.3937 15.7254 14.8224 14.8002C13.2511 13.8749 11.4713 13.3821 9.65724 13.3699V17.5924C9.65656 17.7314 9.6156 17.867 9.53953 17.9822C9.46345 18.0974 9.35566 18.1871 9.22974 18.2399C9.10417 18.2938 8.96578 18.3085 8.83202 18.2822C8.69826 18.2559 8.57513 18.1897 8.47817 18.0921L0.203958 9.64711C0.139331 9.58169 0.0880345 9.50386 0.0530287 9.4181C0.0180228 9.33234 0 9.24036 0 9.14745C0 9.05455 0.0180228 8.96257 0.0530287 8.87681C0.0880345 8.79105 0.139331 8.71321 0.203958 8.64779L8.47817 0.202811C8.57513 0.10516 8.69826 0.0390105 8.83202 0.0127085C8.96578 -0.0135934 9.10417 0.00113085 9.22974 0.0550235C9.35566 0.107819 9.46345 0.197475 9.53953 0.312693C9.6156 0.427911 9.65656 0.563534 9.65724 0.702472V5.00238C12.5099 5.37634 15.132 6.79619 17.0349 8.99732C18.9378 11.1984 19.9916 14.0306 20 16.9661C19.9984 17.4367 19.9684 17.9067 19.9104 18.3736C19.8931 18.52 19.8313 18.6572 19.7336 18.7658C19.6358 18.8744 19.5071 18.9489 19.3656 18.9788L19.2277 18.9999ZM9.31248 11.9624C11.071 11.9367 12.8141 12.3009 14.4212 13.0299C16.0284 13.7589 17.4613 14.8354 18.621 16.1849C18.4135 13.632 17.3216 11.238 15.5412 9.43246C13.7608 7.62687 11.4083 6.52783 8.90567 6.33246C8.73376 6.31661 8.57392 6.23552 8.45775 6.10522C8.34157 5.97492 8.27751 5.80488 8.27821 5.62871V2.39851L1.66573 9.14745L8.27821 15.8964V12.6662C8.27821 12.4796 8.35085 12.3005 8.48016 12.1686C8.60947 12.0366 8.78485 11.9624 8.96772 11.9624H9.34006H9.31248Z" fill="#6E6E6E"/>
</svg>
