<svg width="17" height="20" viewBox="0 0 17 20" fill="none" xmlns="http://www.w3.org/2000/svg">
<path fill-rule="evenodd" clip-rule="evenodd" d="M11.2256 0C14.4798 0 16.3467 1.61078 16.3467 4.41694V18.3624C16.3467 18.9476 16.0455 19.4743 15.5389 19.7688C15.0343 20.0643 14.4261 20.07 13.9157 19.7822L8.19782 16.552L2.42721 19.7889C2.17777 19.929 1.90435 20 1.62997 20C1.34696 20 1.06394 19.9242 0.806831 19.7726C0.301242 19.4781 0 18.9514 0 18.3672V4.24138C0 1.54555 1.86789 0 5.12496 0H11.2256ZM11.2256 1.43906H5.12496C2.67952 1.43906 1.43906 2.38116 1.43906 4.24138V18.3672C1.43906 18.4573 1.49086 18.5063 1.53403 18.5312C1.57721 18.5581 1.64532 18.5773 1.72399 18.5331L7.84669 15.0986C8.06543 14.9767 8.33309 14.9758 8.55279 15.0995L14.6227 18.5283C14.7024 18.5744 14.7705 18.5533 14.8136 18.5274C14.8568 18.5015 14.9077 18.4525 14.9077 18.3624L14.9073 4.30762C14.9001 3.48191 14.7403 1.43906 11.2256 1.43906ZM11.6466 6.45513C12.0437 6.45513 12.3661 6.77747 12.3661 7.17465C12.3661 7.57183 12.0437 7.89418 11.6466 7.89418H4.62589C4.22871 7.89418 3.90636 7.57183 3.90636 7.17465C3.90636 6.77747 4.22871 6.45513 4.62589 6.45513H11.6466Z" fill="#6E6E6E"/>
</svg>
