<svg width="24" height="24" viewBox="0 0 24 24" fill="none" xmlns="http://www.w3.org/2000/svg">
<path d="M7.11003 5.96028L16.13 2.95028C20.18 1.60028 22.38 3.81028 21.04 7.86028L18.03 16.8803C16.01 22.9503 12.69 22.9503 10.67 16.8803L9.78003 14.2003L7.10003 13.3103C1.04003 11.3003 1.04003 7.99028 7.11003 5.96028Z" fill="url(#paint0_linear_1802_676)"/>
<path d="M12.12 11.6296L15.93 7.80957L12.12 11.6296Z" fill="#292D32"/>
<path d="M12.1201 12.38C11.9301 12.38 11.7401 12.31 11.5901 12.16C11.3001 11.87 11.3001 11.39 11.5901 11.1L15.3901 7.28C15.6801 6.99 16.1601 6.99 16.4501 7.28C16.7401 7.57 16.7401 8.05 16.4501 8.34L12.6501 12.16C12.5001 12.3 12.3101 12.38 12.1201 12.38Z" fill="white"/>
<defs>
<linearGradient id="paint0_linear_1802_676" x1="2.55627" y1="2.46631" x2="14.0597" y2="25.0937" gradientUnits="userSpaceOnUse">
<stop stop-color="#09C6F9"/>
<stop offset="1" stop-color="#045DE9"/>
</linearGradient>
</defs>
</svg>
