<svg width="31" height="31" viewBox="0 0 31 31" fill="none" xmlns="http://www.w3.org/2000/svg">
<path fill-rule="evenodd" clip-rule="evenodd" d="M15.5 12.2705C17.2836 12.2705 18.7291 13.716 18.7291 15.4997C18.7291 17.2833 17.2836 18.7288 15.5 18.7288C13.7163 18.7288 12.2708 17.2833 12.2708 15.4997C12.2708 13.716 13.7163 12.2705 15.5 12.2705Z" stroke="black" stroke-width="1.5" stroke-linecap="round" stroke-linejoin="round"/>
<path fill-rule="evenodd" clip-rule="evenodd" d="M26.0503 9.36474C25.1674 7.82475 23.2128 7.2978 21.6851 8.1871C20.3563 8.95901 18.6957 7.99316 18.6957 6.44806C18.6957 4.67076 17.2642 3.229 15.4997 3.229C13.7351 3.229 12.3037 4.67076 12.3037 6.44806C12.3037 7.99316 10.643 8.95901 9.31547 8.1871C7.78652 7.2978 5.83195 7.82475 4.94904 9.36474C4.06739 10.9047 4.59055 12.8734 6.1195 13.7614C7.44704 14.5346 7.44704 16.465 6.1195 17.2382C4.59055 18.1275 4.06739 20.0962 4.94904 21.6349C5.83195 23.1749 7.78652 23.7019 9.31421 22.8139C10.6417 22.0407 12.3037 23.0065 12.3037 24.5516C12.3037 26.3289 13.7351 27.7707 15.4997 27.7707C17.2642 27.7707 18.6957 26.3289 18.6957 24.5516C18.6957 23.0065 20.3563 22.0407 21.6851 22.8139C23.2128 23.7019 25.1674 23.1749 26.0503 21.6349C26.9332 20.0962 26.4088 18.1275 24.8811 17.2382C23.5536 16.465 23.5523 14.5346 24.8811 13.7614C26.4088 12.8734 26.9332 10.9047 26.0503 9.36474Z" stroke="black" stroke-width="1.5" stroke-linecap="round" stroke-linejoin="round"/>
</svg>
