<svg width="24" height="24" viewBox="0 0 24 24" fill="none" xmlns="http://www.w3.org/2000/svg">
<path d="M20.41 6.96043V9.80043L7.39997 19.3404L4.76997 17.3704C4.11997 16.8804 3.58997 15.8304 3.58997 15.0204V6.96043C3.58997 5.84043 4.44997 4.60043 5.49997 4.21043L10.97 2.16043C11.54 1.95043 12.46 1.95043 13.03 2.16043L18.5 4.21043C19.55 4.60043 20.41 5.84043 20.41 6.96043Z" fill="url(#paint0_linear_425_2246)"/>
<path opacity="0.5" d="M20.4099 11.1699V15.0199C20.4099 15.8299 19.8799 16.8799 19.2299 17.3699L13.7599 21.4599C13.2799 21.8199 12.6399 21.9999 11.9999 21.9999C11.3599 21.9999 10.7199 21.8199 10.2399 21.4599L8.31995 20.0299L20.4099 11.1699Z" fill="url(#paint1_linear_425_2246)"/>
<defs>
<linearGradient id="paint0_linear_425_2246" x1="3.58997" y1="1.92266" x2="14.3403" y2="22.4404" gradientUnits="userSpaceOnUse">
<stop stop-color="#EBEBEB"/>
<stop offset="1" stop-color="#4062BB"/>
</linearGradient>
<linearGradient id="paint1_linear_425_2246" x1="8.31995" y1="11.1198" x2="14.4806" y2="24.6496" gradientUnits="userSpaceOnUse">
<stop stop-color="#EBEBEB"/>
<stop offset="1" stop-color="#4062BB"/>
</linearGradient>
</defs>
</svg>
