<svg width="26" height="26" viewBox="0 0 26 26" fill="none" xmlns="http://www.w3.org/2000/svg">
<rect width="26" height="26" rx="13" fill="#1DA1F2"/>
<path d="M19.3714 10.1904C19.3714 10.3326 19.3714 10.4748 19.3714 10.5967C19.3714 14.8014 16.162 19.6561 10.312 19.6561C8.50419 19.6561 6.83856 19.1279 5.41669 18.2342C5.66044 18.2545 5.9245 18.2748 6.16825 18.2748C7.65106 18.2748 9.03231 17.767 10.1292 16.9139C8.72762 16.8936 7.5495 15.9592 7.16356 14.6998C7.36669 14.7404 7.5495 14.7607 7.77294 14.7607C8.05731 14.7607 8.34169 14.7201 8.60575 14.6389C7.14325 14.3545 6.04637 13.0748 6.04637 11.5311C6.04637 11.5107 6.04637 11.5107 6.04637 11.4904C6.47294 11.7342 6.96044 11.8764 7.48856 11.8967C6.63544 11.3279 6.06669 10.3529 6.06669 9.23574C6.06669 8.64668 6.22919 8.09824 6.49325 7.63105C8.05731 9.56074 10.4136 10.8201 13.0542 10.9623C12.9932 10.7389 12.9729 10.4748 12.9729 10.2311C12.9729 8.46387 14.3948 7.04199 16.162 7.04199C17.0761 7.04199 17.9089 7.42793 18.4776 8.0373C19.2089 7.89512 19.8792 7.63105 20.5089 7.26543C20.2651 8.01699 19.7573 8.62637 19.1073 9.03262C19.7573 8.95137 20.3667 8.78887 20.9354 8.5248C20.5292 9.1748 20.0011 9.74355 19.3714 10.1904Z" fill="white"/>
</svg>
