<svg width="328" height="59" viewBox="0 0 328 59" fill="none" xmlns="http://www.w3.org/2000/svg">
<rect x="0.5" y="0.5" width="327" height="58" rx="10.5" fill="#376299" fill-opacity="0.1" stroke="#376299" stroke-dasharray="4 4"/>
<path d="M124.768 36.216C121.582 36.216 119.314 33.948 119.314 30.726V23.634H121.564V30.654C121.564 32.706 122.896 34.182 124.768 34.182C126.658 34.182 127.99 32.706 127.99 30.654V23.634H130.222V30.726C130.222 33.948 127.972 36.216 124.768 36.216ZM138.231 26.478C140.697 26.478 142.497 28.494 142.497 31.338C142.497 34.2 140.697 36.216 138.231 36.216C136.845 36.216 135.729 35.586 134.991 34.524V39.096H132.795V26.694H134.991V28.17C135.729 27.108 136.845 26.478 138.231 26.478ZM137.637 34.344C139.203 34.344 140.319 33.084 140.319 31.338C140.319 29.592 139.203 28.35 137.637 28.35C136.089 28.35 135.009 29.592 135.009 31.338C135.009 33.084 136.089 34.344 137.637 34.344ZM144.483 36V23.418H146.679V36H144.483ZM153.606 36.216C150.906 36.216 148.62 33.984 148.62 31.338C148.62 28.692 150.906 26.478 153.606 26.478C156.306 26.478 158.592 28.692 158.592 31.338C158.592 33.984 156.306 36.216 153.606 36.216ZM153.606 34.344C155.136 34.344 156.432 32.976 156.432 31.338C156.432 29.718 155.136 28.35 153.606 28.35C152.058 28.35 150.762 29.718 150.762 31.338C150.762 32.976 152.058 34.344 153.606 34.344ZM164.547 26.478C167.013 26.478 168.543 28.044 168.543 30.402V36H166.401V34.884C165.717 35.748 164.547 36.216 163.467 36.216C161.487 36.216 159.993 35.046 159.993 33.246C159.993 31.41 161.703 30.15 163.791 30.15C164.637 30.15 165.555 30.33 166.401 30.654V30.402C166.401 29.322 165.807 28.278 164.115 28.278C163.233 28.278 162.387 28.584 161.595 28.98L160.839 27.45C162.153 26.802 163.377 26.478 164.547 26.478ZM163.953 34.614C165.015 34.614 166.149 34.074 166.401 33.084V32.04C165.717 31.806 164.943 31.68 164.115 31.68C163.017 31.68 162.135 32.292 162.135 33.174C162.135 34.056 162.909 34.614 163.953 34.614ZM177.995 23.418H180.191V36H177.995V34.56C177.257 35.604 176.141 36.216 174.773 36.216C172.307 36.216 170.507 34.2 170.507 31.338C170.507 28.494 172.307 26.478 174.773 26.478C176.141 26.478 177.257 27.09 177.995 28.134V23.418ZM175.367 34.344C176.915 34.344 177.995 33.084 177.995 31.338C177.995 29.592 176.915 28.35 175.367 28.35C173.801 28.35 172.685 29.592 172.685 31.338C172.685 33.084 173.801 34.344 175.367 34.344ZM187.869 36V23.634H190.101V36H187.869ZM203.358 26.478C205.302 26.478 206.76 27.972 206.76 30.078V36H204.618V30.438C204.618 29.214 203.88 28.35 202.818 28.35C201.612 28.35 200.784 29.16 200.784 30.294V36H198.642V30.438C198.642 29.214 197.904 28.35 196.824 28.35C195.636 28.35 194.79 29.16 194.79 30.294V36H192.594V26.694H194.79V27.954C195.258 27.054 196.212 26.478 197.382 26.478C198.696 26.478 199.776 27.144 200.352 28.242C200.802 27.162 201.972 26.478 203.358 26.478ZM213.186 26.478C215.652 26.478 217.182 28.044 217.182 30.402V36H215.04V34.884C214.356 35.748 213.186 36.216 212.106 36.216C210.126 36.216 208.632 35.046 208.632 33.246C208.632 31.41 210.342 30.15 212.43 30.15C213.276 30.15 214.194 30.33 215.04 30.654V30.402C215.04 29.322 214.446 28.278 212.754 28.278C211.872 28.278 211.026 28.584 210.234 28.98L209.478 27.45C210.792 26.802 212.016 26.478 213.186 26.478ZM212.592 34.614C213.654 34.614 214.788 34.074 215.04 33.084V32.04C214.356 31.806 213.582 31.68 212.754 31.68C211.656 31.68 210.774 32.292 210.774 33.174C210.774 34.056 211.548 34.614 212.592 34.614ZM226.49 26.694H228.686V35.01C228.686 37.404 226.67 39.096 223.826 39.096C222.224 39.096 220.748 38.574 219.83 37.854L220.64 36.252C221.288 36.846 222.404 37.224 223.502 37.224C225.338 37.224 226.49 36.342 226.49 34.938V33.732C225.752 34.722 224.636 35.316 223.304 35.316C220.892 35.316 219.11 33.48 219.11 30.888C219.11 28.296 220.892 26.478 223.304 26.478C224.618 26.478 225.824 27.09 226.49 28.08V26.694ZM223.934 33.444C225.428 33.444 226.49 32.382 226.49 30.888C226.49 29.412 225.428 28.35 223.934 28.35C222.458 28.35 221.396 29.412 221.396 30.888C221.396 32.382 222.458 33.444 223.934 33.444ZM235.482 34.272C236.346 34.272 237.372 33.876 237.894 33.336L239.28 34.776C238.47 35.64 236.85 36.216 235.5 36.216C232.836 36.216 230.64 34.182 230.64 31.32C230.64 28.53 232.728 26.478 235.374 26.478C238.254 26.478 239.928 28.656 239.928 32.094H232.908C233.178 33.372 234.15 34.272 235.482 34.272ZM235.464 28.422C234.24 28.422 233.25 29.196 232.926 30.42H237.822C237.57 29.25 236.778 28.422 235.464 28.422Z" fill="#376299"/>
<path d="M102.767 19C106.495 19 109 21.6159 109 25.5084V34.4916C109 38.3841 106.495 41 102.766 41H93.2328C89.5046 41 87 38.3841 87 34.4916V25.5084C87 21.6159 89.5046 19 93.2328 19H102.767ZM103.98 30.6051C102.801 29.8695 101.891 30.9025 101.645 31.2328C101.408 31.5518 101.205 31.9037 100.99 32.2556C100.466 33.124 99.8654 34.1253 98.8257 34.7076C97.3147 35.5443 96.1676 34.7735 95.3424 34.2127C95.0327 34.0038 94.7319 33.8063 94.4321 33.6746C93.6932 33.3556 93.0284 33.7189 92.0417 34.9721C91.5241 35.6271 91.0108 36.2765 90.4909 36.9235C90.1801 37.3106 90.2542 37.9077 90.6735 38.1666C91.3427 38.5786 92.159 38.8 93.0815 38.8H102.352C102.875 38.8 103.4 38.7285 103.9 38.565C105.026 38.1972 105.919 37.3549 106.386 36.2424C106.78 35.307 106.971 34.1718 106.603 33.2273C106.48 32.914 106.296 32.6223 106.039 32.3657C105.363 31.6948 104.731 31.0682 103.98 30.6051ZM94.1487 23.4C92.6322 23.4 91.4 24.6339 91.4 26.15C91.4 27.6661 92.6322 28.9 94.1487 28.9C95.6641 28.9 96.8975 27.6661 96.8975 26.15C96.8975 24.6339 95.6641 23.4 94.1487 23.4Z" fill="#376299"/>
</svg>
