<svg width="24" height="24" viewBox="0 0 24 24" fill="none" xmlns="http://www.w3.org/2000/svg">
<path d="M21.08 8.58003V15.42C21.08 16.54 20.48 17.58 19.51 18.15L13.57 21.58C12.6 22.14 11.4 22.14 10.42 21.58L4.48004 18.15C3.51004 17.59 2.91003 16.55 2.91003 15.42V8.58003C2.91003 7.46003 3.51004 6.41999 4.48004 5.84999L10.42 2.42C11.39 1.86 12.59 1.86 13.57 2.42L19.51 5.84999C20.48 6.41999 21.08 7.45003 21.08 8.58003Z" fill="url(#paint0_linear_425_2174)"/>
<path d="M9.75 11.9999V10.7999C9.75 9.25989 10.84 8.62993 12.17 9.39993L13.21 9.9999L14.25 10.5999C15.58 11.3699 15.58 12.6299 14.25 13.3999L13.21 13.9999L12.17 14.5999C10.84 15.3699 9.75 14.7399 9.75 13.1999V11.9999Z" fill="white"/>
<defs>
<linearGradient id="paint0_linear_425_2174" x1="11.995" y1="2" x2="11.995" y2="22" gradientUnits="userSpaceOnUse">
<stop stop-color="#CD06FF"/>
<stop offset="1" stop-color="#D8A6FF"/>
</linearGradient>
</defs>
</svg>
