<svg width="30" height="23" viewBox="0 0 30 23" fill="none" xmlns="http://www.w3.org/2000/svg">
<path d="M15.0528 0.677734C18.639 0.677734 21.1428 3.14902 21.1428 6.6906V16.8749C21.1428 20.4165 18.639 22.8878 15.0528 22.8878H6.47665C2.89043 22.8878 0.386597 20.4165 0.386597 16.8749V6.6906C0.386597 3.14902 2.89043 0.677734 6.47665 0.677734H15.0528ZM26.9764 4.20022C27.6264 3.86951 28.389 3.90409 29.0094 4.29493C29.6298 4.68426 30 5.36071 30 6.10029V17.4661C30 18.2072 29.6298 18.8821 29.0094 19.2715C28.6703 19.4834 28.2913 19.5917 27.9092 19.5917C27.5909 19.5917 27.2725 19.5165 26.9749 19.3647L24.782 18.2583C23.9706 17.8464 23.4672 17.0197 23.4672 16.1012V7.46371C23.4672 6.54374 23.9706 5.71697 24.782 5.30809L26.9764 4.20022Z" fill="#005C94"/>
</svg>
