<svg width="22" height="18" viewBox="0 0 22 18" fill="none" xmlns="http://www.w3.org/2000/svg">
<path fill-rule="evenodd" clip-rule="evenodd" d="M11.0029 0C15.5524 0.00329996 19.6378 3.19216 21.9324 8.53149C22.0226 8.73939 22.0226 8.97479 21.9324 9.18269C19.6389 14.5231 15.5524 17.712 11.0029 17.7153H10.9963C6.44674 17.712 2.3614 14.5231 0.0668242 9.18269C-0.0222747 8.97479 -0.0222747 8.73939 0.0668242 8.53149C2.3614 3.19216 6.44784 0.00329996 10.9963 0H11.0029ZM10.9996 1.64998C7.22004 1.65108 3.77268 4.33835 1.7267 8.85709C3.77268 13.3769 7.21894 16.0642 10.9996 16.0653C14.7802 16.0642 18.2265 13.3769 20.2725 8.85709C18.2265 4.33835 14.7802 1.65108 10.9996 1.64998ZM10.9993 4.55482C13.3719 4.55482 15.3024 6.4853 15.3024 8.85797C15.3024 11.2295 13.3719 13.1589 10.9993 13.1589C8.62659 13.1589 6.69721 11.2295 6.69721 8.85797C6.69721 6.4853 8.62659 4.55482 10.9993 4.55482ZM10.9993 6.2048C9.53628 6.2048 8.34719 7.39499 8.34719 8.85797C8.34719 10.3199 9.53628 11.5089 10.9993 11.5089C12.4622 11.5089 13.6524 10.3199 13.6524 8.85797C13.6524 7.39499 12.4622 6.2048 10.9993 6.2048Z" fill="#6E6E6E"/>
</svg>
