<svg width="18" height="18" viewBox="0 0 18 18" fill="none" xmlns="http://www.w3.org/2000/svg">
<g clip-path="url(#clip0_347_1507)">
<path fill-rule="evenodd" clip-rule="evenodd" d="M15.3774 2.6158C13.6854 0.929881 11.4353 0.000947594 9.03799 0C4.09842 0 0.0782173 4.00098 0.0762405 8.91885C0.0755816 10.4909 0.488264 12.0254 1.27246 13.378L0.00109863 18L4.75185 16.7597C6.06077 17.4702 7.53452 17.8447 9.03441 17.8453H9.03809C13.9772 17.8453 17.9977 13.8439 17.9997 8.92597C18.0007 6.5427 17.0694 4.30171 15.3774 2.6158ZM9.03809 16.3389H9.03504C7.6985 16.3384 6.38755 15.981 5.24395 15.3056L4.97194 15.1449L2.15281 15.8809L2.9053 13.1452L2.72817 12.8648C1.98256 11.6844 1.58874 10.3201 1.58933 8.91941C1.59096 4.83188 4.93242 1.50643 9.04104 1.50643C11.0305 1.50718 12.9007 2.27933 14.3071 3.6806C15.7134 5.08187 16.4874 6.9445 16.4867 8.92538C16.4849 13.0132 13.1435 16.3389 9.03809 16.3389ZM13.1238 10.7866C12.8999 10.6751 11.799 10.1359 11.5937 10.0615C11.3885 9.98715 11.2392 9.94997 11.0899 10.1731C10.9406 10.3962 10.5115 10.8982 10.3808 11.0469C10.2502 11.1957 10.1196 11.2143 9.89569 11.1027C9.67178 10.9912 8.95028 10.7558 8.09497 9.99655C7.42934 9.40564 6.9799 8.67575 6.84929 8.45266C6.71867 8.22953 6.8354 8.1089 6.94749 7.99781C7.04821 7.89795 7.1714 7.73751 7.28337 7.60735C7.39532 7.47722 7.43263 7.38426 7.50726 7.23553C7.58191 7.08678 7.5446 6.95662 7.48862 6.84507C7.43263 6.73353 6.98483 5.63655 6.79821 5.19033C6.61647 4.75575 6.43185 4.81455 6.2944 4.80775C6.16393 4.80129 6.0145 4.7999 5.86524 4.7999C5.71596 4.7999 5.47338 4.85569 5.26811 5.07878C5.06287 5.30191 4.48443 5.84109 4.48443 6.93804C4.48443 8.03499 5.28678 9.09474 5.39875 9.24348C5.51069 9.39223 6.9777 11.6433 9.22396 12.6087C9.7582 12.8383 10.1753 12.9754 10.5005 13.0782C11.0369 13.2478 11.5251 13.2238 11.9109 13.1665C12.3411 13.1025 13.2357 12.6273 13.4223 12.1067C13.6089 11.5861 13.6089 11.1399 13.553 11.0469C13.497 10.954 13.3477 10.8982 13.1238 10.7866Z" fill="#005C94"/>
</g>
<defs>
<clipPath id="clip0_347_1507">
<rect width="18" height="18" fill="white"/>
</clipPath>
</defs>
</svg>
