<svg width="32" height="23" viewBox="0 0 32 23" fill="none" xmlns="http://www.w3.org/2000/svg">
<path d="M31.2938 3.50943C31.1103 2.83112 30.7522 2.21272 30.2553 1.71581C29.7584 1.21891 29.1401 0.860841 28.4618 0.677261C25.9785 0 15.984 0 15.984 0C15.984 0 5.98913 0.0205003 3.50583 0.697762C2.82751 0.881352 2.20912 1.23944 1.71223 1.73637C1.21535 2.23329 0.857316 2.85172 0.673785 3.53006C-0.0773523 7.94238 -0.368732 14.6657 0.694411 18.9016C0.877961 19.5799 1.236 20.1983 1.73288 20.6952C2.22977 21.1921 2.84815 21.5502 3.52646 21.7337C6.00975 22.411 16.0044 22.411 16.0044 22.411C16.0044 22.411 25.999 22.411 28.4821 21.7337C29.1605 21.5502 29.7789 21.1921 30.2758 20.6952C30.7727 20.1983 31.1307 19.5799 31.3143 18.9016C32.1066 14.483 32.3507 7.76376 31.2938 3.50943Z" fill="#FF0000"/>
<path d="M12.8029 16.008L21.094 11.2057L12.8029 6.40332V16.008Z" fill="white"/>
</svg>
